SplineFontDB: 3.0
FontName: JuraDemiBold
FullName: Jura Demi-Bold
FamilyName: Jura
Weight: Demibold
Copyright: Copyright 2009, 2010, 2011 by Daniel Johnson.  Released under the terms of the Open Font License.
Version: 2.6.1
ItalicAngle: 0
UnderlinePosition: -102
UnderlineWidth: 51
Ascent: 819
Descent: 205
LayerCount: 2
Layer: 0 0 "Back"  1
Layer: 1 1 "Fore"  0
NeedsXUIDChange: 1
XUID: [1021 338 342 15367]
FSType: 0
OS2Version: 2
OS2_WeightWidthSlopeOnly: 0
OS2_UseTypoMetrics: 1
CreationTime: 1232036477
ModificationTime: 1315629473
PfmFamily: 17
TTFWeight: 600
TTFWidth: 5
LineGap: 0
VLineGap: 0
Panose: 2 0 7 3 0 0 0 0 0 0
OS2TypoAscent: 879
OS2TypoAOffset: 0
OS2TypoDescent: -257
OS2TypoDOffset: 0
OS2TypoLinegap: 0
OS2WinAscent: 879
OS2WinAOffset: 0
OS2WinDescent: 257
OS2WinDOffset: 0
HheadAscent: 879
HheadAOffset: 0
HheadDescent: -257
HheadDOffset: 0
OS2SubXSize: 665
OS2SubYSize: 716
OS2SubXOff: 0
OS2SubYOff: 143
OS2SupXSize: 665
OS2SupYSize: 716
OS2SupXOff: 0
OS2SupYOff: 491
OS2StrikeYSize: 51
OS2StrikeYPos: 265
OS2Vendor: 'PfEd'
OS2CodePages: 2000009f.00000000
OS2UnicodeRanges: a00002ef.5000204b.00000020.00000000
Lookup: 260 0 0 "'abvm' Above Base Mark lookup 1"  {"'abvm' Above Base Mark lookup 1-1"  } ['abvm' ('DFLT' <'dflt' > 'cyrl' <'dflt' > 'grek' <'dflt' > 'latn' <'dflt' > ) ]
Lookup: 260 0 0 "'blwm' Below Base Mark lookup 2"  {"'blwm' Below Base Mark lookup 2-1"  } ['blwm' ('DFLT' <'dflt' > 'cyrl' <'dflt' > 'grek' <'dflt' > 'latn' <'dflt' > ) ]
Lookup: 258 0 0 "'kern' Horizontal Kerning in Latin lookup 0"  {"'kern' Horizontal Kerning in Latin lookup 0 per glyph data 0"  "'kern' Horizontal Kerning in Latin lookup 0 kerning class 1"  } ['kern' ('latn' <'dflt' > ) ]
MarkAttachClasses: 1
DEI: 91125
KernClass2: 158+ 130 "'kern' Horizontal Kerning in Latin lookup 0 kerning class 1" 
 5 space
 2 Xi
 29 Alphatonos Alpha Delta Lambda
 5 Gamma
 20 Epsilontonos Epsilon
 4 Zeta
 49 Etatonos Iotatonos Eta Iota Mu Nu Pi Iotadieresis
 5 Kappa
 26 Omicrontonos Theta Omicron

StartChar: .notdef
Encoding: 65536 -1 0
Width: 538
Flags: HW
HStem: 0 71<167.864 370.136> 606 72<167.864 370.136>
VStem: 85 71<84.9264 591.558> 382 71<84.9264 591.558>
LayerCount: 2
Fore
SplineSet
156 546 m 2,0,-1
 156 130 l 2,1,2
 156 98 156 98 167.5 84.5 c 128,-1,3
 179 71 179 71 210 71 c 2,4,-1
 328 71 l 2,5,6
 359 71 359 71 370.5 84.5 c 128,-1,7
 382 98 382 98 382 130 c 2,8,-1
 382 546 l 2,9,10
 382 578 382 578 370.5 592 c 128,-1,11
 359 606 359 606 328 606 c 2,12,-1
 210 606 l 2,13,14
 179 606 179 606 167.5 592 c 128,-1,15
 156 578 156 578 156 546 c 2,0,-1
85 0 m 1,16,-1
 85 678 l 1,17,-1
 453 678 l 1,18,-1
 453 0 l 1,19,-1
 85 0 l 1,16,-1
EndSplineSet
Validated: 1
EndChar

StartChar: exclam
Encoding: 33 33 2
Width: 260
Flags: HW
HStem: -22 102<80.5312 180.188>
VStem: 69 123<-8.81641 66.8275> 94 72<156.058 648.684>
LayerCount: 2
Fore
SplineSet
130 80 m 128,-1,1
 150 80 150 80 171 66 c 128,-1,2
 192 52 192 52 192 30 c 128,-1,3
 192 8 192 8 172 -7 c 128,-1,4
 152 -22 152 -22 131 -22 c 128,-1,5
 110 -22 110 -22 89.5 -7.5 c 128,-1,6
 69 7 69 7 69 29 c 128,-1,7
 69 51 69 51 89.5 65.5 c 128,-1,0
 110 80 110 80 130 80 c 128,-1,1
166 197 m 2,8,9
 166 154 166 154 130 154 c 128,-1,10
 94 154 94 154 94 197 c 2,11,-1
 94 616 l 2,12,13
 94 639 94 639 105 649 c 128,-1,14
 116 659 116 659 130 659 c 128,-1,15
 144 659 144 659 155 649 c 128,-1,16
 166 639 166 639 166 616 c 2,17,-1
 166 197 l 2,8,9
EndSplineSet
Validated: 8388609
EndChar

StartChar: quotedbl
Encoding: 34 34 3
Width: 314
Flags: HW
HStem: 423 235<82.3445 130.656 183.344 232.656>
VStem: 71 71<433.316 647.684> 172 72<425.058 647.684>
LayerCount: 2
Fore
SplineSet
172 615 m 2,0,1
 172 638 172 638 183 648 c 128,-1,2
 194 658 194 658 208 658 c 128,-1,3
 222 658 222 658 233 648 c 128,-1,4
 244 638 244 638 244 615 c 2,5,-1
 244 466 l 2,6,7
 244 423 244 423 208 423 c 128,-1,8
 172 423 172 423 172 466 c 2,9,-1
 172 615 l 2,0,1
71 615 m 2,10,11
 71 638 71 638 82 648 c 128,-1,12
 93 658 93 658 107 658 c 0,13,14
 142 658 142 658 142 615 c 2,15,-1
 142 466 l 2,16,17
 142 443 142 443 131 433 c 128,-1,18
 120 423 120 423 106 423 c 0,19,20
 71 423 71 423 71 466 c 2,21,-1
 71 615 l 2,10,11
EndSplineSet
Validated: 1
EndChar

StartChar: numbersign
Encoding: 35 35 4
Width: 622
Flags: HW
HStem: -4 21G<112.5 131.5 290 310> 190 72<53.3157 138 240 317 419 544.942> 374 72<83.8002 205 306 383 486 567.684> 620 20G<313 334 492.5 513>
VStem: 468 73<610 636.77>
LayerCount: 2
Fore
SplineSet
306 446 m 1,0,-1
 409 446 l 1,1,-1
 468 610 l 1,2,3
 480 640 480 640 505 640 c 0,4,5
 521 640 521 640 531 629 c 128,-1,6
 541 618 541 618 541 607 c 128,-1,7
 541 596 541 596 538 584 c 1,8,-1
 486 446 l 1,9,-1
 535 446 l 2,10,11
 558 446 558 446 568 435 c 128,-1,12
 578 424 578 424 578 410 c 128,-1,13
 578 396 578 396 568 385 c 128,-1,14
 558 374 558 374 535 374 c 2,15,-1
 460 374 l 1,16,-1
 419 262 l 1,17,-1
 504 262 l 2,18,19
 547 262 547 262 547 226 c 128,-1,20
 547 190 547 190 504 190 c 2,21,-1
 393 190 l 1,22,-1
 334 26 l 1,23,24
 320 -4 320 -4 300 -4 c 128,-1,25
 280 -4 280 -4 270.5 6 c 128,-1,26
 261 16 261 16 261 28 c 128,-1,27
 261 40 261 40 264 52 c 1,28,-1
 317 190 l 1,29,-1
 214 190 l 1,30,-1
 155 26 l 1,31,32
 141 -4 141 -4 122 -4 c 128,-1,33
 103 -4 103 -4 93 5.5 c 128,-1,34
 83 15 83 15 83 27 c 128,-1,35
 83 39 83 39 86 51 c 1,36,-1
 138 190 l 1,37,-1
 86 190 l 2,38,39
 63 190 63 190 53 201 c 128,-1,40
 43 212 43 212 43 226 c 128,-1,41
 43 240 43 240 53 251 c 128,-1,42
 63 262 63 262 86 262 c 2,43,-1
 164 262 l 1,44,-1
 205 374 l 1,45,-1
 116 374 l 2,46,47
 74 374 74 374 74 411 c 0,48,49
 74 425 74 425 83.5 435.5 c 128,-1,50
 93 446 93 446 116 446 c 2,51,-1
 231 446 l 1,52,-1
 290 610 l 2,53,54
 300 640 300 640 326 640 c 0,55,56
 342 640 342 640 352 630 c 128,-1,57
 362 620 362 620 362 606 c 128,-1,58
 362 592 362 592 359 585 c 2,59,-1
 306 446 l 1,0,-1
281 374 m 1,60,-1
 240 262 l 1,61,-1
 342 262 l 1,62,-1
 383 374 l 1,63,-1
 281 374 l 1,60,-1
EndSplineSet
Validated: 8388609
EndChar

StartChar: dollar
Encoding: 36 36 5
Width: 628
Flags: HW
HStem: -7 21G<300.5 336.5> 84 72<142.801 284 356 483.652> 291 72<147.439 284 356 481.274> 485 72<144.863 284 356 485.714> 623 20G<301 337>
VStem: 61 72<165.287 243.942 378.041 476.216> 284 72<-4.4375 84 156 291 363 485 557 640.748> 495 72<166.596 279.027 400.322 476.229>
LayerCount: 2
Fore
SplineSet
171 84 m 2,0,1
 106 84 106 84 83.5 116.5 c 128,-1,2
 61 149 61 149 61 203 c 0,3,4
 61 246 61 246 97 246 c 128,-1,5
 133 246 133 246 133 205 c 0,6,7
 133 174 133 174 142.5 165 c 128,-1,8
 152 156 152 156 178 156 c 2,9,-1
 284 156 l 1,10,-1
 284 291 l 1,11,-1
 201 291 l 2,12,13
 125 291 125 291 93 330 c 128,-1,14
 61 369 61 369 61 428 c 0,15,16
 61 557 61 557 201 557 c 2,17,-1
 284 557 l 1,18,-1
 284 602 l 2,19,20
 284 643 284 643 318 643 c 0,21,22
 356 643 356 643 356 603 c 2,23,-1
 356 557 l 1,24,-1
 457 557 l 2,25,26
 522 557 522 557 544.5 525.5 c 128,-1,27
 567 494 567 494 567 446 c 128,-1,28
 567 398 567 398 531 398 c 0,29,30
 530 397 l 0,31,32
 495 397 495 397 495 439 c 0,33,34
 495 468 495 468 486 476.5 c 128,-1,35
 477 485 477 485 450 485 c 2,36,-1
 356 485 l 1,37,-1
 356 363 l 1,38,-1
 430 363 l 2,39,40
 431 363 431 363 432 363 c 0,41,42
 567 363 567 363 567 224 c 0,43,44
 567 84 567 84 428 84 c 2,45,-1
 356 84 l 1,46,-1
 356 34 l 2,47,48
 356 -7 356 -7 317 -7 c 0,49,50
 284 -7 284 -7 284 32 c 2,51,-1
 284 84 l 1,52,-1
 171 84 l 2,0,1
446 291 m 2,53,-1
 356 291 l 1,54,-1
 356 156 l 1,55,-1
 446 156 l 2,56,57
 473 156 473 156 484 170 c 128,-1,58
 495 184 495 184 495 216 c 128,-1,59
 495 248 495 248 481 269.5 c 128,-1,60
 467 291 467 291 446 291 c 2,53,-1
182 363 m 2,61,-1
 284 363 l 1,62,-1
 284 485 l 1,63,-1
 182 485 l 2,64,65
 156 485 156 485 144.5 474.5 c 128,-1,66
 133 464 133 464 133 432 c 128,-1,67
 133 400 133 400 147 381.5 c 128,-1,68
 161 363 161 363 182 363 c 2,61,-1
EndSplineSet
Validated: 1
EndChar

StartChar: percent
Encoding: 37 37 6
Width: 597
Flags: HW
HStem: 91 72<405.226 444.864> 203 72<405.226 444.863> 369 72<152.334 191.613> 476 72<152.334 191.613>
VStem: 79 73<441.025 475.818> 192 82<441.025 475.818> 322 83<163.295 202.705> 445 72<163.295 202.703>
LayerCount: 2
Fore
SplineSet
405 183 m 128,-1,1
 405 175 405 175 411 169 c 128,-1,2
 417 163 417 163 425 163 c 128,-1,3
 433 163 433 163 439 169 c 128,-1,4
 445 175 445 175 445 183 c 0,5,6
 445 203 445 203 425 203 c 0,7,8
 417 203 417 203 411 197 c 128,-1,0
 405 191 405 191 405 183 c 128,-1,1
322 183 m 128,-1,10
 322 221 322 221 353 248 c 128,-1,11
 384 275 384 275 423.5 275 c 128,-1,12
 463 275 463 275 490 248 c 128,-1,13
 517 221 517 221 517 183 c 128,-1,14
 517 145 517 145 490 118 c 128,-1,15
 463 91 463 91 423.5 91 c 128,-1,16
 384 91 384 91 353 118 c 128,-1,9
 322 145 322 145 322 183 c 128,-1,10
158 471.5 m 128,-1,18
 152 467 152 467 152 460 c 128,-1,19
 152 453 152 453 158.5 447 c 128,-1,20
 165 441 165 441 171.5 441 c 128,-1,21
 178 441 178 441 185 447 c 128,-1,22
 192 453 192 453 192 460 c 128,-1,23
 192 467 192 467 185 471.5 c 128,-1,24
 178 476 178 476 171 476 c 128,-1,17
 164 476 164 476 158 471.5 c 128,-1,18
106 396 m 128,-1,26
 79 423 79 423 79 460 c 128,-1,27
 79 497 79 497 106 522.5 c 128,-1,28
 133 548 133 548 173 548 c 128,-1,29
 213 548 213 548 243.5 522.5 c 128,-1,30
 274 497 274 497 274 460 c 128,-1,31
 274 423 274 423 243.5 396 c 128,-1,32
 213 369 213 369 173 369 c 128,-1,25
 133 369 133 369 106 396 c 128,-1,26
464 514 m 2,33,34
 480 528 480 528 493 528 c 128,-1,35
 506 528 506 528 517.5 518 c 128,-1,36
 529 508 529 508 529 492.5 c 128,-1,37
 529 477 529 477 514 462 c 2,38,-1
 133 115 l 2,39,40
 118 101 118 101 104 101 c 128,-1,41
 90 101 90 101 78.5 111 c 128,-1,42
 67 121 67 121 67 136.5 c 128,-1,43
 67 152 67 152 83 168 c 1,44,-1
 464 514 l 2,33,34
EndSplineSet
Validated: 1
EndChar

StartChar: ampersand
Encoding: 38 38 7
Width: 534
Flags: HW
HStem: -24 72<171.065 335.136> 590 72<186.766 303.053>
VStem: 41 72<105.03 271.327> 66 74<420.956 545.608> 423 71<143.128 270.391>
LayerCount: 2
Fore
SplineSet
357 86 m 1,0,-1
 167 305 l 1,1,2
 113 266 113 266 113 182 c 0,3,4
 113 132 113 132 139 100 c 128,-1,5
 165 68 165 68 195.5 58 c 128,-1,6
 226 48 226 48 260 48 c 0,7,8
 312 48 312 48 357 86 c 1,0,-1
121 359 m 1,9,10
 66 418 66 418 66 476 c 0,11,12
 66 557 66 557 125.5 609.5 c 128,-1,13
 185 662 185 662 254 662 c 0,14,15
 298 662 298 662 336 632.5 c 128,-1,16
 374 603 374 603 391 572.5 c 128,-1,17
 408 542 408 542 408 528 c 128,-1,18
 408 514 408 514 398 503.5 c 128,-1,19
 388 493 388 493 372.5 493 c 128,-1,20
 357 493 357 493 344 508 c 128,-1,21
 331 523 331 523 322 541.5 c 128,-1,22
 313 560 313 560 295.5 575 c 128,-1,23
 278 590 278 590 254 590 c 0,24,25
 210 590 210 590 175 559 c 128,-1,26
 140 528 140 528 140 476 c 0,27,28
 140 444 140 444 176 403 c 2,29,-1
 402 142 l 1,30,31
 423 178 423 178 423 225.5 c 128,-1,32
 423 273 423 273 460 273 c 0,33,34
 494 273 494 273 494 227 c 0,35,36
 494 148 494 148 451 84 c 1,37,-1
 493 38 l 2,38,39
 502 28 502 28 502 11 c 128,-1,40
 502 -6 502 -6 491 -14 c 128,-1,41
 480 -22 480 -22 465 -22 c 128,-1,42
 450 -22 450 -22 432 -2 c 2,43,-1
 403 31 l 1,44,45
 338 -24 338 -24 260 -24 c 0,46,47
 185 -24 185 -24 118 21 c 0,48,49
 84 44 84 44 62.5 86 c 128,-1,50
 41 128 41 128 41 182 c 0,51,52
 41 295 41 295 121 359 c 1,9,10
EndSplineSet
Validated: 8388609
EndChar

StartChar: quotesingle
Encoding: 39 39 8
Width: 212
Flags: HW
HStem: 423 235<82.3445 130.656>
VStem: 71 71<433.316 647.684>
LayerCount: 2
Fore
SplineSet
71 615 m 2,0,1
 71 638 71 638 82 648 c 128,-1,2
 93 658 93 658 107 658 c 0,3,4
 142 658 142 658 142 615 c 2,5,-1
 142 466 l 2,6,7
 142 443 142 443 131 433 c 128,-1,8
 120 423 120 423 106 423 c 0,9,10
 71 423 71 423 71 466 c 2,11,-1
 71 615 l 2,0,1
EndSplineSet
Validated: 1
EndChar

StartChar: parenleft
Encoding: 40 40 9
Width: 271
Flags: HW
HStem: -57 72<156.096 223> 620 73<152.5 223>
VStem: 73 72<30.6404 615.056>
LayerCount: 2
Fore
SplineSet
223 15 m 1,0,-1
 223 -57 l 1,1,2
 136 -57 136 -57 114 -32 c 0,3,4
 84 2 84 2 78.5 44.5 c 128,-1,5
 73 87 73 87 73 133 c 2,6,-1
 73 503 l 2,7,8
 73 598 73 598 93 636 c 0,9,10
 104 656 104 656 114 668 c 0,11,12
 126 680 126 680 146 686 c 0,13,14
 171 693 171 693 212 693 c 0,15,16
 217 693 217 693 223 693 c 1,17,-1
 223 621 l 1,18,19
 191 621 191 621 179 620 c 128,-1,20
 167 619 167 619 157 605.5 c 128,-1,21
 147 592 147 592 146 572 c 128,-1,22
 145 552 145 552 145 503 c 2,23,-1
 145 133 l 2,24,25
 145 50 145 50 156 30 c 0,26,27
 159 24 159 24 170 20 c 0,28,29
 181 15 181 15 212 15 c 0,30,31
 217 15 217 15 223 15 c 1,0,-1
EndSplineSet
Validated: 1
EndChar

StartChar: parenright
Encoding: 41 41 10
Width: 271
Flags: HW
HStem: -57 72<48 117.772> 621 72<48 118>
VStem: 126 72<21.156 614.734>
LayerCount: 2
Fore
SplineSet
48 15 m 1,0,1
 51 15 51 15 55 15 c 0,2,3
 108 15 108 15 115 30 c 0,4,5
 124 47 124 47 125 73.5 c 128,-1,6
 126 100 126 100 126 133 c 2,7,-1
 126 503 l 2,8,9
 126 552 126 552 125 572 c 128,-1,10
 124 592 124 592 114 605.5 c 128,-1,11
 104 619 104 619 92 620 c 128,-1,12
 80 621 80 621 48 621 c 1,13,-1
 48 693 l 1,14,15
 134 693 134 693 156 668 c 0,16,17
 186 634 186 634 192 591.5 c 128,-1,18
 198 549 198 549 198 503 c 2,19,-1
 198 133 l 2,20,21
 198 38 198 38 178 0 c 0,22,23
 167 -20 167 -20 156.5 -32 c 128,-1,24
 146 -44 146 -44 126 -50 c 0,25,26
 101 -57 101 -57 59 -57 c 0,27,28
 54 -57 54 -57 48 -57 c 1,29,-1
 48 15 l 1,0,1
EndSplineSet
Validated: 1
EndChar

StartChar: asterisk
Encoding: 42 42 11
Width: 415
Flags: HW
HStem: 331 320<182.344 231.656>
VStem: 171 72<341.316 428 554 648.942>
LayerCount: 2
Fore
SplineSet
243 374 m 2,0,1
 243 351 243 351 232 341 c 128,-1,2
 221 331 221 331 207 331 c 128,-1,3
 193 331 193 331 182 341 c 128,-1,4
 171 351 171 351 171 374 c 2,5,-1
 171 428 l 1,6,7
 106 395 106 395 98 394 c 1,8,9
 84 394 84 394 74 405 c 128,-1,10
 64 416 64 416 64 433 c 128,-1,11
 64 450 64 450 86 463 c 2,12,-1
 135 492 l 1,13,-1
 87 519 l 2,14,15
 64 531 64 531 64 553 c 0,16,17
 64 569 64 569 75 578.5 c 128,-1,18
 86 588 86 588 93 588 c 2,19,-1
 102 588 l 2,20,21
 106 588 106 588 109 586.5 c 128,-1,22
 112 585 112 585 115.5 583.5 c 128,-1,23
 119 582 119 582 122 580.5 c 128,-1,24
 125 579 125 579 130.5 576 c 128,-1,25
 136 573 136 573 141 570.5 c 128,-1,26
 146 568 146 568 154.5 563 c 128,-1,27
 163 558 163 558 171 554 c 1,28,-1
 171 608 l 2,29,30
 171 651 171 651 207 651 c 128,-1,31
 243 651 243 651 243 608 c 2,32,-1
 243 554 l 1,33,34
 308 587 308 587 316 588 c 1,35,36
 331 588 331 588 341 577 c 128,-1,37
 351 566 351 566 351 550 c 128,-1,38
 351 534 351 534 328 519 c 1,39,-1
 280 492 l 1,40,-1
 328 463 l 2,41,42
 351 448 351 448 351 429 c 0,43,44
 351 420 351 420 342 407 c 128,-1,45
 333 394 333 394 316 394 c 0,46,47
 314 394 314 394 312 394 c 128,-1,48
 310 394 310 394 308 394.5 c 128,-1,49
 306 395 306 395 304 396 c 128,-1,50
 302 397 302 397 298.5 398.5 c 128,-1,51
 295 400 295 400 292 401.5 c 128,-1,52
 289 403 289 403 283.5 406 c 128,-1,53
 278 409 278 409 273 411.5 c 128,-1,54
 268 414 268 414 259.5 419 c 128,-1,55
 251 424 251 424 243 428 c 1,56,-1
 243 374 l 2,0,1
EndSplineSet
Validated: 1
EndChar

StartChar: plus
Encoding: 43 43 12
Width: 531
Flags: HW
HStem: 194 73<43.7999 229 301 484.108>
VStem: 229 72<-19.9902 194 267 480.942>
LayerCount: 2
Fore
SplineSet
229 194 m 1,0,-1
 75 194 l 2,1,2
 34 194 34 194 34 231 c 0,3,4
 34 244 34 244 43.5 255.5 c 128,-1,5
 53 267 53 267 75 267 c 2,6,-1
 229 267 l 1,7,-1
 229 440 l 2,8,9
 229 483 229 483 265 483 c 128,-1,10
 301 483 301 483 301 440 c 2,11,-1
 301 267 l 1,12,-1
 453 267 l 2,13,14
 497 267 497 267 497 229 c 0,15,16
 497 213 497 213 484.5 203.5 c 128,-1,17
 472 194 472 194 453 194 c 2,18,-1
 301 194 l 1,19,-1
 301 20 l 2,20,21
 301 -22 301 -22 265 -22 c 128,-1,22
 229 -22 229 -22 229 20 c 2,23,-1
 229 194 l 1,0,-1
EndSplineSet
Validated: 1
EndChar

StartChar: comma
Encoding: 44 44 13
Width: 226
Flags: HW
HStem: -95 171<77.2275 109.186>
VStem: 47 66<-92.2314 -65>
LayerCount: 2
Fore
SplineSet
113 -65 m 1,0,1
 100 -95 100 -95 79 -95 c 0,2,3
 47 -95 47 -95 47 -60 c 1,4,5
 50 -42 l 1,6,-1
 74 45 l 2,7,8
 83 76 83 76 109 76 c 0,9,10
 132 76 132 76 146 65.5 c 128,-1,11
 160 55 160 55 160 43.5 c 128,-1,12
 160 32 160 32 153 18 c 2,13,-1
 113 -65 l 1,0,1
EndSplineSet
Validated: 8388609
EndChar

StartChar: hyphen
Encoding: 45 45 14
Width: 476
Flags: HW
HStem: 194 73<82.7999 390.108>
VStem: 73 330<203.798 255.14>
LayerCount: 2
Fore
SplineSet
359 267 m 2,0,1
 403 267 403 267 403 229 c 0,2,3
 403 213 403 213 390.5 203.5 c 128,-1,4
 378 194 378 194 359 194 c 2,5,-1
 114 194 l 2,6,7
 73 194 73 194 73 231 c 0,8,9
 73 244 73 244 82.5 255.5 c 128,-1,10
 92 267 92 267 114 267 c 2,11,-1
 359 267 l 2,0,1
EndSplineSet
Validated: 1
EndChar

StartChar: period
Encoding: 46 46 15
Width: 250
Flags: HW
HStem: -22 102<75.5312 174.469>
VStem: 64 122<-8.82751 66.8275>
LayerCount: 2
Fore
SplineSet
165.5 -7.5 m 128,-1,1
 145 -22 145 -22 124 -22 c 128,-1,2
 103 -22 103 -22 83.5 -7.5 c 128,-1,3
 64 7 64 7 64 29 c 128,-1,4
 64 51 64 51 84.5 65.5 c 128,-1,5
 105 80 105 80 125 80 c 128,-1,6
 145 80 145 80 165.5 65.5 c 128,-1,7
 186 51 186 51 186 29 c 128,-1,0
 186 7 186 7 165.5 -7.5 c 128,-1,1
EndSplineSet
Validated: 1
EndChar

StartChar: slash
Encoding: 47 47 16
Width: 375
Flags: HW
VStem: 42 71<-15.2635 6>
LayerCount: 2
Fore
SplineSet
113 6 m 1,0,1
 101 -23 101 -23 77 -23 c 0,2,3
 66 -23 66 -23 54 -15.5 c 128,-1,4
 42 -8 42 -8 42 8 c 0,5,-1
 42 16 l 0,6,7
 42 25 42 25 52 53 c 2,8,-1
 262 631 l 1,9,10
 275 660 275 660 297 660 c 0,11,12
 309 660 309 660 321.5 652 c 128,-1,13
 334 644 334 644 334 629 c 128,-1,14
 334 614 334 614 325 590 c 2,15,-1
 113 6 l 1,0,1
EndSplineSet
Validated: 1
EndChar

StartChar: zero
Encoding: 48 48 17
Width: 592
Flags: HW
HStem: -5 72<152.025 439.975> 568 73<152.025 439.975>
VStem: 44 72<100.072 534.034> 476 72<100.072 534.034>
LayerCount: 2
Fore
SplineSet
116 491 m 2,0,-1
 116 144 l 2,1,2
 116 117 116 117 147.5 92 c 128,-1,3
 179 67 179 67 227 67 c 2,4,-1
 365 67 l 2,5,6
 413 67 413 67 444.5 92 c 128,-1,7
 476 117 476 117 476 144 c 2,8,-1
 476 491 l 2,9,10
 476 518 476 518 444.5 543 c 128,-1,11
 413 568 413 568 365 568 c 2,12,-1
 227 568 l 2,13,14
 179 568 179 568 147.5 543 c 128,-1,15
 116 518 116 518 116 491 c 2,0,-1
548 158 m 2,16,17
 548 86 548 86 493.5 40.5 c 128,-1,18
 439 -5 439 -5 354 -5 c 2,19,-1
 238 -5 l 2,20,21
 153 -5 153 -5 98.5 40.5 c 128,-1,22
 44 86 44 86 44 158 c 2,23,-1
 44 478 l 2,24,25
 44 550 44 550 98.5 595.5 c 128,-1,26
 153 641 153 641 238 641 c 2,27,-1
 354 641 l 2,28,29
 439 641 439 641 493.5 595.5 c 128,-1,30
 548 550 548 550 548 478 c 2,31,-1
 548 158 l 2,16,17
EndSplineSet
Validated: 1
EndChar

StartChar: one
Encoding: 49 49 18
Width: 592
Flags: HW
HStem: -7 21G<287 323>
VStem: 269 72<-5.08594 569>
LayerCount: 2
Fore
SplineSet
269 569 m 1,0,-1
 261 562 l 2,1,2
 244 546 244 546 226 546 c 128,-1,3
 208 546 208 546 199.5 556 c 128,-1,4
 191 566 191 566 191 580 c 128,-1,5
 191 594 191 594 209 610 c 2,6,-1
 270 670 l 1,7,8
 288 685 288 685 302 685 c 128,-1,9
 316 685 316 685 328.5 675.5 c 128,-1,10
 341 666 341 666 341 647 c 2,11,-1
 341 33 l 2,12,13
 341 -7 341 -7 305 -7 c 128,-1,14
 269 -7 269 -7 269 33 c 2,15,-1
 269 569 l 1,0,-1
EndSplineSet
Validated: 1
EndChar

StartChar: two
Encoding: 50 50 19
Width: 592
Flags: HW
HStem: -5 72<117 545.847> 474 21G<63 99> 569 72<126.285 445.035>
VStem: 45 72<67 127.757 476.153 558.683> 476 72<403.916 539.885>
LayerCount: 2
Fore
SplineSet
548 456 m 0,0,1
 548 406 548 406 505.5 366 c 128,-1,2
 463 326 463 326 401.5 296.5 c 128,-1,3
 340 267 340 267 277.5 237 c 128,-1,4
 215 207 215 207 168.5 163.5 c 128,-1,5
 122 120 122 120 117 67 c 1,6,-1
 503 67 l 2,7,8
 548 67 548 67 548 31 c 128,-1,9
 548 -5 548 -5 503 -5 c 2,10,-1
 45 -5 l 1,11,-1
 45 52 l 2,12,13
 45 122 45 122 89.5 176.5 c 128,-1,14
 134 231 134 231 197 264 c 128,-1,15
 260 297 260 297 323.5 324.5 c 128,-1,16
 387 352 387 352 431.5 384 c 128,-1,17
 476 416 476 416 476 454 c 0,18,19
 476 529 476 529 443 549 c 128,-1,20
 410 569 410 569 314 569 c 2,21,-1
 161 569 l 2,22,23
 135 569 135 569 126 559 c 128,-1,24
 117 549 117 549 117 519 c 0,25,26
 117 474 117 474 81 474 c 128,-1,27
 45 474 45 474 45 519 c 0,28,29
 45 585 45 585 71 613 c 128,-1,30
 97 641 97 641 154 641 c 2,31,-1
 314 641 l 2,32,33
 435 641 435 641 491.5 603 c 128,-1,34
 548 565 548 565 548 456 c 0,0,1
EndSplineSet
Validated: 1
EndChar

StartChar: three
Encoding: 51 51 20
Width: 592
Flags: HW
HStem: -5 72<143.703 441.693> 289 73<241.241 386.078> 474 21G<62 98> 569 72<143.703 444.187>
VStem: 44 72<92.2141 159.638 476.362 543.813> 477 71<100.968 220.518 418.581 536.824>
LayerCount: 2
Fore
SplineSet
342 569 m 2,0,-1
 250 569 l 2,1,2
 199 569 199 569 157.5 553 c 128,-1,3
 116 537 116 537 116 517 c 0,4,5
 116 474 116 474 80 474 c 128,-1,6
 44 474 44 474 44 522 c 128,-1,7
 44 570 44 570 98 605.5 c 128,-1,8
 152 641 152 641 243 641 c 2,9,-1
 329 641 l 2,10,11
 449 641 449 641 498.5 596.5 c 128,-1,12
 548 552 548 552 548 447 c 0,13,14
 548 414 548 414 512 380 c 128,-1,15
 476 346 476 346 435 326 c 1,16,17
 475 305 475 305 511.5 264 c 128,-1,18
 548 223 548 223 548 189 c 0,19,20
 548 84 548 84 498.5 39.5 c 128,-1,21
 449 -5 449 -5 329 -5 c 2,22,-1
 243 -5 l 2,23,24
 152 -5 152 -5 98 31 c 0,25,26
 44 66 44 66 44 114 c 128,-1,27
 44 162 44 162 80 162 c 128,-1,28
 116 162 116 162 116 119 c 0,29,30
 116 99 116 99 157 83 c 128,-1,31
 198 67 198 67 250 67 c 2,32,-1
 342 67 l 2,33,34
 420 67 420 67 448.5 93.5 c 128,-1,35
 477 120 477 120 477 168 c 128,-1,36
 477 216 477 216 413.5 252.5 c 128,-1,37
 350 289 350 289 294 289 c 0,38,39
 238 290 238 290 238 326 c 128,-1,40
 238 362 238 362 297 362 c 128,-1,41
 356 362 356 362 416.5 392 c 128,-1,42
 477 422 477 422 477 470 c 128,-1,43
 477 518 477 518 448.5 543.5 c 128,-1,44
 420 569 420 569 342 569 c 2,0,-1
EndSplineSet
Validated: 1
EndChar

StartChar: four
Encoding: 52 52 21
Width: 592
Flags: HW
HStem: -7 21G<417.5 444> 160 72<124 386 462 547.99> 621 20G<361.448 462>
VStem: 386 76<3.3147 160 232 550>
LayerCount: 2
Fore
SplineSet
508 160 m 2,0,-1
 462 160 l 1,1,-1
 462 32 l 2,2,3
 462 -7 462 -7 426 -7 c 0,4,5
 409 -7 409 -7 397.5 3 c 128,-1,6
 386 13 386 13 386 32 c 2,7,-1
 386 160 l 1,8,-1
 42 160 l 1,9,-1
 42 235 l 1,10,-1
 378 641 l 1,11,-1
 462 641 l 1,12,-1
 462 232 l 1,13,-1
 508 232 l 2,14,15
 550 232 550 232 550 196 c 128,-1,16
 550 160 550 160 508 160 c 2,0,-1
386 232 m 1,17,-1
 386 550 l 1,18,-1
 124 232 l 1,19,-1
 386 232 l 1,17,-1
EndSplineSet
Validated: 1
EndChar

StartChar: five
Encoding: 53 53 22
Width: 592
Flags: HW
HStem: -9 72<187.851 395.641> 377 72<132 402.321> 569 72<151.315 491.2>
VStem: 471 72<137.644 314.697>
LayerCount: 2
Fore
SplineSet
60 130.5 m 128,-1,1
 71 141 71 141 81 141 c 128,-1,2
 91 141 91 141 119 121.5 c 128,-1,3
 147 102 147 102 193 82.5 c 128,-1,4
 239 63 239 63 291 63 c 0,5,6
 381 63 381 63 426 107.5 c 128,-1,7
 471 152 471 152 471 229.5 c 128,-1,8
 471 307 471 307 422.5 342 c 128,-1,9
 374 377 374 377 319 377 c 2,10,-1
 55 377 l 1,11,-1
 64 508 l 2,12,13
 69 582 69 582 98 611.5 c 128,-1,14
 127 641 127 641 190 641 c 2,15,-1
 459 641 l 2,16,17
 501 641 501 641 501 604 c 0,18,19
 501 590 501 590 491.5 579.5 c 128,-1,20
 482 569 482 569 459 569 c 2,21,-1
 182 569 l 2,22,23
 161 569 161 569 151 559.5 c 128,-1,24
 141 550 141 550 138 523 c 2,25,-1
 132 449 l 1,26,-1
 310 449 l 2,27,28
 403 449 403 449 473 390.5 c 128,-1,29
 543 332 543 332 543 226 c 128,-1,30
 543 120 543 120 473.5 55.5 c 128,-1,31
 404 -9 404 -9 291 -9 c 0,32,33
 219 -9 219 -9 134 28 c 128,-1,34
 49 65 49 65 49 105 c 0,35,0
 49 120 49 120 60 130.5 c 128,-1,1
EndSplineSet
Validated: 1
EndChar

StartChar: six
Encoding: 54 54 23
Width: 592
Flags: HW
HStem: -9 72<191.193 400.807> 366 72<190.028 401.136> 624 20G<296 325.5>
VStem: 44 72<131.889 296.441> 476 72<132.16 296.458>
LayerCount: 2
Fore
SplineSet
114 53 m 128,-1,1
 44 115 44 115 44 206.5 c 128,-1,2
 44 298 44 298 66.5 372.5 c 128,-1,3
 89 447 89 447 122 495 c 128,-1,4
 155 543 155 543 192.5 578 c 128,-1,5
 230 613 230 613 259 628.5 c 128,-1,6
 288 644 288 644 304 644 c 0,7,8
 347 644 347 644 347 611 c 0,9,10
 347 590 347 590 317 575 c 1,11,12
 267 553 267 553 221.5 509 c 128,-1,13
 176 465 176 465 149 401 c 1,14,15
 211 438 211 438 296 438 c 0,16,17
 408 438 408 438 478 375.5 c 128,-1,18
 548 313 548 313 548 214.5 c 128,-1,19
 548 116 548 116 478 53.5 c 128,-1,20
 408 -9 408 -9 296 -9 c 128,-1,0
 184 -9 184 -9 114 53 c 128,-1,1
116 214 m 128,-1,22
 116 144 116 144 163 103.5 c 128,-1,23
 210 63 210 63 296 63 c 128,-1,24
 382 63 382 63 429 103.5 c 128,-1,25
 476 144 476 144 476 214 c 128,-1,26
 476 284 476 284 429.5 325 c 128,-1,27
 383 366 383 366 296 366 c 128,-1,28
 209 366 209 366 162.5 325 c 128,-1,21
 116 284 116 284 116 214 c 128,-1,22
EndSplineSet
Validated: 1
EndChar

StartChar: seven
Encoding: 55 55 24
Width: 592
Flags: HW
HStem: -10 21G<260.5 281> 574 72<134.801 453>
VStem: 53 72<481.153 563.167>
LayerCount: 2
Fore
SplineSet
268 -10 m 0,0,1
 253 -10 253 -10 239 -2 c 128,-1,2
 225 6 225 6 225 20 c 128,-1,3
 225 34 225 34 232 47 c 1,4,-1
 453 574 l 1,5,-1
 171 574 l 2,6,7
 144 574 144 574 134.5 563.5 c 128,-1,8
 125 553 125 553 125 524 c 0,9,10
 125 479 125 479 89 479 c 128,-1,11
 53 479 53 479 53 524 c 0,12,13
 53 589 53 589 79.5 617.5 c 128,-1,14
 106 646 106 646 163 646 c 2,15,-1
 503 646 l 2,16,17
 539 646 539 646 539 613 c 0,18,19
 539 600 539 600 535 590 c 2,20,-1
 307 22 l 2,21,22
 294 -10 294 -10 268 -10 c 0,0,1
EndSplineSet
Validated: 1
EndChar

StartChar: eight
Encoding: 56 56 25
Width: 592
Flags: HW
HStem: -5 72<144.63 447.436> 292 72<145.004 426.573> 569 72<138.137 451.829>
VStem: 44 72<95.1277 263.332 386.023 547.612> 476 72<94.8988 263.273 386.073 546.604>
LayerCount: 2
Fore
SplineSet
149 272.5 m 128,-1,1
 116 253 116 253 116 179.5 c 128,-1,2
 116 106 116 106 148.5 86.5 c 128,-1,3
 181 67 181 67 279 67 c 2,4,-1
 314 67 l 2,5,6
 411 67 411 67 443.5 86.5 c 128,-1,7
 476 106 476 106 476 179.5 c 128,-1,8
 476 253 476 253 443.5 272.5 c 128,-1,9
 411 292 411 292 314 292 c 2,10,-1
 279 292 l 2,11,0
 182 292 182 292 149 272.5 c 128,-1,1
486 28 m 0,12,13
 454 8 454 8 414 1.5 c 128,-1,14
 374 -5 374 -5 314 -5 c 2,15,-1
 279 -5 l 2,16,17
 157 -5 157 -5 100.5 32 c 128,-1,18
 44 69 44 69 44 175 c 128,-1,19
 44 281 44 281 100 326 c 1,20,21
 44 366 44 366 44 468 c 0,22,23
 44 554 44 554 86 598 c 0,24,25
 118 630 118 630 201 638 c 0,26,27
 231 640 231 640 279 641 c 2,28,-1
 314 641 l 2,29,30
 465 640 465 640 506 598 c 0,31,32
 548 555 548 555 548 459.5 c 128,-1,33
 548 364 548 364 493 326 c 1,34,35
 548 280 548 280 548 173 c 128,-1,36
 548 66 548 66 486 28 c 0,12,13
473 428.5 m 128,-1,38
 476 444 476 444 476 468 c 128,-1,39
 476 492 476 492 473.5 509 c 128,-1,40
 471 526 471 526 461.5 538 c 128,-1,41
 452 550 452 550 443 556 c 128,-1,42
 434 562 434 562 411 565 c 0,43,44
 380 569 380 569 314 569 c 2,45,-1
 277 569 l 2,46,47
 179 569 179 569 166.5 563 c 128,-1,48
 154 557 154 557 142 550 c 128,-1,49
 130 543 130 543 126 531.5 c 128,-1,50
 122 520 122 520 119 504 c 128,-1,51
 116 488 116 488 116 466 c 128,-1,52
 116 444 116 444 119 428.5 c 128,-1,53
 122 413 122 413 126 402 c 128,-1,54
 130 391 130 391 141.5 384 c 128,-1,55
 153 377 153 377 162.5 373 c 128,-1,56
 172 369 172 369 193 367 c 0,57,58
 225 364 225 364 279 364 c 2,59,-1
 314 364 l 2,60,61
 414 364 414 364 427 370.5 c 128,-1,62
 440 377 440 377 451 383.5 c 128,-1,63
 462 390 462 390 466 401.5 c 128,-1,37
 470 413 470 413 473 428.5 c 128,-1,38
EndSplineSet
Validated: 1
EndChar

StartChar: nine
Encoding: 57 57 26
Width: 592
Flags: HW
HStem: -16 73<128.801 253.171> 292 72<165.619 434.602> 569 72<175.216 432.314>
VStem: 44 72<406.905 522.804> 476 72<402.108 529.828>
LayerCount: 2
Fore
SplineSet
44 466 m 0,0,1
 44 544 44 544 96 584 c 0,2,3
 146 622 146 622 208 632 c 0,4,5
 260 641 260 641 305 641 c 0,6,7
 310 641 310 641 314 641 c 0,8,9
 548 641 548 641 548 466 c 0,10,11
 548 361 548 361 515 269.5 c 128,-1,12
 482 178 482 178 428 116 c 128,-1,13
 374 54 374 54 304 19 c 128,-1,14
 234 -16 234 -16 160 -16 c 0,15,16
 119 -16 119 -16 119 21 c 0,17,18
 119 35 119 35 128.5 46 c 128,-1,19
 138 57 138 57 166 57 c 128,-1,20
 194 57 194 57 235.5 72 c 128,-1,21
 277 87 277 87 320.5 116 c 128,-1,22
 364 145 364 145 401.5 197 c 128,-1,23
 439 249 439 249 457 315 c 1,24,25
 406 292 406 292 314 292 c 0,26,27
 44 292 44 292 44 466 c 0,0,1
314 569 m 0,28,29
 116 569 116 569 116 466 c 0,30,31
 116 374 116 374 256 366 c 0,32,33
 280 364 280 364 314 364 c 0,34,35
 405 364 405 364 440.5 390 c 128,-1,36
 476 416 476 416 476 466 c 128,-1,37
 476 516 476 516 439.5 542.5 c 128,-1,38
 403 569 403 569 314 569 c 0,28,29
EndSplineSet
Validated: 1
EndChar

StartChar: colon
Encoding: 58 58 27
Width: 268
Flags: HW
HStem: 29 102<84.5312 183.469> 382 102<84.5312 183.469>
VStem: 73 122<42.1725 117.828 395.172 470.828>
LayerCount: 2
Fore
SplineSet
174.5 43.5 m 128,-1,1
 154 29 154 29 133 29 c 128,-1,2
 112 29 112 29 92.5 43.5 c 128,-1,3
 73 58 73 58 73 80 c 128,-1,4
 73 102 73 102 93.5 116.5 c 128,-1,5
 114 131 114 131 134 131 c 128,-1,6
 154 131 154 131 174.5 116.5 c 128,-1,7
 195 102 195 102 195 80 c 128,-1,0
 195 58 195 58 174.5 43.5 c 128,-1,1
174.5 396.5 m 128,-1,9
 154 382 154 382 133 382 c 128,-1,10
 112 382 112 382 92.5 396.5 c 128,-1,11
 73 411 73 411 73 433 c 128,-1,12
 73 455 73 455 93.5 469.5 c 128,-1,13
 114 484 114 484 134 484 c 128,-1,14
 154 484 154 484 174.5 469.5 c 128,-1,15
 195 455 195 455 195 433 c 128,-1,8
 195 411 195 411 174.5 396.5 c 128,-1,9
EndSplineSet
Validated: 1
EndChar

StartChar: semicolon
Encoding: 59 59 28
Width: 271
Flags: HW
HStem: 382 102<84.5312 183.469>
VStem: 73 122<395.172 470.828> 80 66<-41.2314 -14>
LayerCount: 2
Fore
SplineSet
146 -14 m 1,0,1
 133 -44 133 -44 112 -44 c 0,2,3
 80 -44 80 -44 80 -9 c 1,4,5
 83 9 l 1,6,-1
 107 96 l 2,7,8
 116 127 116 127 142 127 c 0,9,10
 165 127 165 127 179 116.5 c 128,-1,11
 193 106 193 106 193 94.5 c 128,-1,12
 193 83 193 83 186 69 c 2,13,-1
 146 -14 l 1,0,1
174.5 396.5 m 128,-1,15
 154 382 154 382 133 382 c 128,-1,16
 112 382 112 382 92.5 396.5 c 128,-1,17
 73 411 73 411 73 433 c 128,-1,18
 73 455 73 455 93.5 469.5 c 128,-1,19
 114 484 114 484 134 484 c 128,-1,20
 154 484 154 484 174.5 469.5 c 128,-1,21
 195 455 195 455 195 433 c 128,-1,14
 195 411 195 411 174.5 396.5 c 128,-1,15
EndSplineSet
Validated: 8388609
EndChar

StartChar: less
Encoding: 60 60 29
Width: 548
Flags: W
LayerCount: 2
Fore
SplineSet
55 298 m 1,0,1
 33 312 33 312 33 332.5 c 128,-1,2
 33 353 33 353 55 366 c 2,3,-1
 420 576 l 2,4,5
 432 584 432 584 446 584 c 128,-1,6
 460 584 460 584 470 575 c 128,-1,7
 480 566 480 566 480 552.5 c 128,-1,8
 480 539 480 539 471.5 529 c 128,-1,9
 463 519 463 519 455 515 c 2,10,-1
 140 333 l 1,11,-1
 455 149 l 2,12,13
 480 134 480 134 480 116 c 0,14,15
 480 100 480 100 469 89.5 c 128,-1,16
 458 79 458 79 445 79 c 128,-1,17
 432 79 432 79 419 88 c 1,18,-1
 55 298 l 1,0,1
EndSplineSet
Validated: 1
EndChar

StartChar: equal
Encoding: 61 61 30
Width: 488
Flags: HW
HStem: 244 73<88.7999 396.108> 347 73<88.7999 396.108>
VStem: 79 330<253.798 305.14 356.798 408.14>
LayerCount: 2
Fore
SplineSet
365 420 m 2,0,1
 409 420 409 420 409 382 c 0,2,3
 409 366 409 366 396.5 356.5 c 128,-1,4
 384 347 384 347 365 347 c 2,5,-1
 120 347 l 2,6,7
 79 347 79 347 79 384 c 0,8,9
 79 397 79 397 88.5 408.5 c 128,-1,10
 98 420 98 420 120 420 c 2,11,-1
 365 420 l 2,0,1
365 317 m 2,12,13
 409 317 409 317 409 279 c 0,14,15
 409 263 409 263 396.5 253.5 c 128,-1,16
 384 244 384 244 365 244 c 2,17,-1
 120 244 l 2,18,19
 79 244 79 244 79 281 c 0,20,21
 79 294 79 294 88.5 305.5 c 128,-1,22
 98 317 98 317 120 317 c 2,23,-1
 365 317 l 2,12,13
EndSplineSet
Validated: 1
EndChar

StartChar: greater
Encoding: 62 62 31
Width: 548
Flags: W
LayerCount: 2
Fore
SplineSet
493 298 m 1,0,-1
 129 88 l 1,1,2
 116 79 116 79 103 79 c 128,-1,3
 90 79 90 79 82 87 c 0,4,5
 68 100 68 100 68 117 c 128,-1,6
 68 134 68 134 93 149 c 2,7,-1
 408 333 l 1,8,-1
 93 515 l 2,9,10
 85 519 85 519 76.5 529 c 128,-1,11
 68 539 68 539 68 552.5 c 128,-1,12
 68 566 68 566 78 575 c 128,-1,13
 88 584 88 584 102 584 c 128,-1,14
 116 584 116 584 128 576 c 2,15,-1
 493 366 l 2,16,17
 515 353 515 353 515 332.5 c 128,-1,18
 515 312 515 312 493 298 c 1,0,-1
EndSplineSet
Validated: 1
EndChar

StartChar: question
Encoding: 63 63 32
Width: 553
Flags: HW
HStem: -22 102<210.531 309.469> 587 72<139.151 412.981>
VStem: 37 73<438.316 559.74> 199 122<-8.82751 66.8275> 224 72<161.316 291> 441 72<412.304 557.575>
LayerCount: 2
Fore
SplineSet
300.5 -7.5 m 128,-1,1
 280 -22 280 -22 259 -22 c 128,-1,2
 238 -22 238 -22 218.5 -7.5 c 128,-1,3
 199 7 199 7 199 29 c 128,-1,4
 199 51 199 51 219.5 65.5 c 128,-1,5
 240 80 240 80 260 80 c 128,-1,6
 280 80 280 80 300.5 65.5 c 128,-1,7
 321 51 321 51 321 29 c 128,-1,0
 321 7 321 7 300.5 -7.5 c 128,-1,1
224 194 m 2,8,-1
 224 346 l 1,9,-1
 389 391 l 2,10,11
 411 397 411 397 426 422.5 c 128,-1,12
 441 448 441 448 441 485 c 128,-1,13
 441 522 441 522 421 554.5 c 128,-1,14
 401 587 401 587 354 587 c 2,15,-1
 261 587 l 2,16,17
 171 587 171 587 140.5 567 c 128,-1,18
 110 547 110 547 110 471 c 0,19,20
 110 448 110 448 98.5 438 c 128,-1,21
 87 428 87 428 73.5 428 c 128,-1,22
 60 428 60 428 48.5 438 c 128,-1,23
 37 448 37 448 37 471 c 0,24,25
 37 583 37 583 92 621 c 128,-1,26
 147 659 147 659 261 659 c 2,27,-1
 337 659 l 2,28,29
 385 659 385 659 421 643.5 c 128,-1,30
 457 628 457 628 476 602 c 0,31,32
 513 551 513 551 513 482.5 c 128,-1,33
 513 414 513 414 482.5 374.5 c 128,-1,34
 452 335 452 335 378 314 c 2,35,-1
 296 291 l 1,36,-1
 296 194 l 2,37,38
 296 171 296 171 285 161 c 128,-1,39
 274 151 274 151 260.5 151 c 128,-1,40
 247 151 247 151 235.5 161 c 128,-1,41
 224 171 224 171 224 194 c 2,8,-1
EndSplineSet
Validated: 8388609
EndChar

StartChar: at
Encoding: 64 64 33
Width: 612
Flags: HW
HStem: -15 72<208.083 462.199> 175 72<256.032 365.262> 416 72<255.214 364.88> 579 72<208.083 404.917>
VStem: 69 72<129.697 506.303> 174 72<258.934 404.324> 375 72<267.652 404.118> 472 72<68.3484 149.607 273.246 504.292>
LayerCount: 2
Fore
SplineSet
69 395 m 2,0,1
 69 514 69 514 129.5 582.5 c 128,-1,2
 190 651 190 651 292 651 c 2,3,-1
 321 651 l 2,4,5
 423 651 423 651 483.5 582.5 c 128,-1,6
 544 514 544 514 544 395 c 0,7,8
 544 350 544 350 541 322.5 c 128,-1,9
 538 295 538 295 525 263.5 c 128,-1,10
 512 232 512 232 488 215 c 0,11,12
 432 175 432 175 310 175 c 0,13,14
 232 175 232 175 203 212 c 128,-1,15
 174 249 174 249 174 331.5 c 128,-1,16
 174 414 174 414 203 451 c 128,-1,17
 232 488 232 488 310.5 488 c 128,-1,18
 389 488 389 488 418 451 c 128,-1,19
 447 414 447 414 447 332 c 0,20,21
 447 289 447 289 441 267 c 1,22,23
 459 276 459 276 465.5 303 c 128,-1,24
 472 330 472 330 472 406 c 128,-1,25
 472 482 472 482 434 530.5 c 128,-1,26
 396 579 396 579 321 579 c 2,27,-1
 292 579 l 2,28,29
 216 579 216 579 178.5 531 c 128,-1,30
 141 483 141 483 141 395 c 2,31,-1
 141 241 l 2,32,33
 141 153 141 153 178.5 105 c 128,-1,34
 216 57 216 57 292 57 c 2,35,-1
 426 57 l 2,36,37
 453 57 453 57 462.5 68 c 128,-1,38
 472 79 472 79 472 109 c 0,39,40
 472 152 472 152 508 152 c 128,-1,41
 544 152 544 152 544 102 c 128,-1,42
 544 52 544 52 521 18.5 c 128,-1,43
 498 -15 498 -15 433 -15 c 2,44,-1
 292 -15 l 2,45,46
 190 -15 190 -15 129.5 53.5 c 128,-1,47
 69 122 69 122 69 241 c 2,48,-1
 69 395 l 2,0,1
257 262.5 m 128,-1,50
 268 247 268 247 310.5 247 c 128,-1,51
 353 247 353 247 364 262.5 c 128,-1,52
 375 278 375 278 375 331.5 c 128,-1,53
 375 385 375 385 364 400.5 c 128,-1,54
 353 416 353 416 310.5 416 c 128,-1,55
 268 416 268 416 257 401 c 128,-1,56
 246 386 246 386 246 332 c 128,-1,49
 246 278 246 278 257 262.5 c 128,-1,50
EndSplineSet
Validated: 1
EndChar

StartChar: A
Encoding: 65 65 34
Width: 610
Flags: HW
HStem: 189 72<195 415> 616 20G<256.087 353.913>
VStem: 24 73<-12.9854 12> 513 73<-12.9854 12>
AnchorPoint: "bottom" 304 -0 basechar 0
AnchorPoint: "top" 304 678 basechar 0
LayerCount: 2
Fore
SplineSet
346 636 m 1,0,-1
 583 37 l 2,1,2
 586 28 586 28 586 14 c 128,-1,3
 586 0 586 0 573.5 -8 c 128,-1,4
 561 -16 561 -16 550 -16 c 0,5,6
 524 -16 524 -16 513 12 c 2,7,-1
 444 189 l 1,8,-1
 166 189 l 1,9,-1
 97 12 l 1,10,11
 85 -16 85 -16 60 -16 c 0,12,13
 49 -16 49 -16 36.5 -8 c 128,-1,14
 24 0 24 0 24 14 c 128,-1,15
 24 28 24 28 27 37 c 2,16,-1
 264 636 l 1,17,-1
 346 636 l 1,0,-1
195 261 m 1,18,-1
 415 261 l 1,19,-1
 304 532 l 1,20,-1
 195 261 l 1,18,-1
EndSplineSet
Validated: 1
EndChar

StartChar: B
Encoding: 66 66 35
Width: 644
Flags: HW
HStem: 0 72<156 484.801> 312 72<156 446.449> 559 77<156 446.416>
VStem: 84 72<72 312 384 559> 474 72<410.132 533.593> 516 72<102.311 283.109>
AnchorPoint: "top" 314 678 basechar 0
AnchorPoint: "bottom" 314 0 basechar 0
LayerCount: 2
Fore
SplineSet
354 312 m 2,0,-1
 156 312 l 1,1,-1
 156 72 l 1,2,-1
 336 72 l 2,3,4
 446 72 446 72 481 91.5 c 128,-1,5
 516 111 516 111 516 184 c 2,6,-1
 516 200 l 2,7,8
 516 273 516 273 483.5 292.5 c 128,-1,9
 451 312 451 312 354 312 c 2,0,-1
84 44 m 2,10,-1
 84 592 l 2,11,12
 84 636 84 636 118 636 c 2,13,-1
 306 636 l 2,14,15
 428 636 428 636 487 601.5 c 128,-1,16
 546 567 546 567 546 475 c 0,17,18
 546 403 546 403 506 366 c 1,19,20
 588 325 588 325 588 203 c 2,21,-1
 588 184 l 2,22,23
 588 75 588 75 529 37.5 c 128,-1,24
 470 0 470 0 336 0 c 2,25,-1
 118 0 l 2,26,27
 84 0 84 0 84 44 c 2,10,-1
306 384 m 2,28,29
 403 384 403 384 438.5 401 c 128,-1,30
 474 418 474 418 474 472 c 128,-1,31
 474 526 474 526 438.5 542.5 c 128,-1,32
 403 559 403 559 306 559 c 2,33,-1
 156 559 l 1,34,-1
 156 384 l 1,35,-1
 306 384 l 2,28,29
EndSplineSet
Validated: 8388609
EndChar

StartChar: C
Encoding: 67 67 36
Width: 631
Flags: HW
HStem: 0 72<174.297 493.714> 469 21G<532 557> 564 72<172.979 493.714>
VStem: 71 72<102.311 533.689> 503 72<83.3474 156.168 479.347 552.653>
AnchorPoint: "top" 330 678 basechar 0
AnchorPoint: "bottom" 330 0 basechar 0
LayerCount: 2
Fore
SplineSet
465 0 m 2,0,-1
 324 0 l 2,1,2
 189 0 189 0 130 37.5 c 128,-1,3
 71 75 71 75 71 184 c 2,4,-1
 71 452 l 2,5,6
 71 561 71 561 128 598.5 c 128,-1,7
 185 636 185 636 306 636 c 2,8,-1
 465 636 l 2,9,10
 530 636 530 636 552.5 602.5 c 128,-1,11
 575 569 575 569 575 519 c 128,-1,12
 575 469 575 469 539 469 c 0,13,14
 525 469 525 469 514 479 c 0,15,16
 503 490 503 490 503 516 c 128,-1,17
 503 542 503 542 494 553 c 128,-1,18
 485 564 485 564 458 564 c 2,19,-1
 306 564 l 2,20,21
 209 564 209 564 176 544 c 128,-1,22
 143 524 143 524 143 450 c 2,23,-1
 143 186 l 2,24,25
 143 111 143 111 178 91.5 c 128,-1,26
 213 72 213 72 324 72 c 2,27,-1
 458 72 l 2,28,29
 485 72 485 72 494 83 c 128,-1,30
 503 94 503 94 503 120 c 128,-1,31
 503 146 503 146 514 156.5 c 128,-1,32
 525 167 525 167 539 167 c 0,33,34
 575 166 575 166 575 116 c 128,-1,35
 575 66 575 66 552.5 33 c 128,-1,36
 530 0 530 0 465 0 c 2,0,-1
EndSplineSet
Validated: 1
EndChar

StartChar: D
Encoding: 68 68 37
Width: 659
Flags: HW
HStem: 0 72<156 484.801> 564 72<156 485.035>
VStem: 84 72<72 564> 516 72<102.311 535.502>
AnchorPoint: "top" 323 678 basechar 0
AnchorPoint: "bottom" 323 0 basechar 0
LayerCount: 2
Fore
SplineSet
588 452 m 2,0,-1
 588 184 l 2,1,2
 588 75 588 75 529 37.5 c 128,-1,3
 470 0 470 0 336 0 c 2,4,-1
 118 0 l 2,5,6
 84 0 84 0 84 44 c 2,7,-1
 84 592 l 2,8,9
 84 636 84 636 118 636 c 2,10,-1
 354 636 l 2,11,12
 475 636 475 636 531.5 598 c 128,-1,13
 588 560 588 560 588 452 c 2,0,-1
516 186 m 2,14,-1
 516 450 l 2,15,16
 516 524 516 524 483.5 544 c 128,-1,17
 451 564 451 564 354 564 c 2,18,-1
 156 564 l 1,19,-1
 156 72 l 1,20,-1
 336 72 l 2,21,22
 447 72 447 72 481.5 91.5 c 128,-1,23
 516 111 516 111 516 186 c 2,14,-1
EndSplineSet
Validated: 1
EndChar

StartChar: E
Encoding: 69 69 38
Width: 636
Flags: HW
HStem: 0 72<156 585.583> 322 72<156 468.253> 564 72<156 585.583>
VStem: 84 72<72 322 394 564>
AnchorPoint: "top" 333 678 basechar 0
AnchorPoint: "bottom" 333 0 basechar 0
LayerCount: 2
Fore
SplineSet
156 322 m 1,0,-1
 156 72 l 1,1,-1
 544 72 l 2,2,3
 588 72 588 72 588 34 c 0,4,5
 588 0 588 0 544 0 c 2,6,-1
 118 0 l 2,7,8
 84 0 84 0 84 44 c 2,9,-1
 84 592 l 2,10,11
 84 636 84 636 118 636 c 2,12,-1
 544 636 l 2,13,14
 588 636 588 636 588 598 c 0,15,16
 588 564 588 564 544 564 c 2,17,-1
 156 564 l 1,18,-1
 156 394 l 1,19,-1
 421 394 l 2,20,21
 471 394 471 394 471 356 c 0,22,23
 471 322 471 322 421 322 c 2,24,-1
 156 322 l 1,0,-1
EndSplineSet
Validated: 1
EndChar

StartChar: F
Encoding: 70 70 39
Width: 615
Flags: HW
HStem: -7 21G<102 138> 322 72<156 468.253> 564 72<156 585.583>
VStem: 84 72<-4.94238 322 394 564>
AnchorPoint: "top" 333 678 basechar 0
AnchorPoint: "bottom" 293 0 basechar 0
LayerCount: 2
Fore
SplineSet
156 35 m 2,0,1
 156 -7 156 -7 120 -7 c 128,-1,2
 84 -7 84 -7 84 36 c 2,3,-1
 84 592 l 2,4,5
 84 636 84 636 118 636 c 2,6,-1
 544 636 l 2,7,8
 588 636 588 636 588 598 c 0,9,10
 588 564 588 564 544 564 c 2,11,-1
 156 564 l 1,12,-1
 156 394 l 1,13,-1
 421 394 l 2,14,15
 471 394 471 394 471 356 c 0,16,17
 471 322 471 322 421 322 c 2,18,-1
 156 322 l 1,19,-1
 156 35 l 2,0,1
EndSplineSet
Validated: 1
EndChar

StartChar: G
Encoding: 71 71 40
Width: 645
Flags: HW
HStem: 0 72<171.63 493.714> 236 72<328.393 503> 469 21G<520.5 539> 564 72<174.297 493.714>
VStem: 71 72<100.773 533.409> 503 72<81.8016 236 472.48 553.167>
AnchorPoint: "top" 320 678 basechar 0
AnchorPoint: "bottom" 320 0 basechar 0
LayerCount: 2
Fore
SplineSet
503 236 m 1,0,-1
 376 236 l 2,1,2
 326 236 326 236 326 272 c 128,-1,3
 326 308 326 308 376 308 c 2,4,-1
 575 308 l 1,5,-1
 575 115 l 2,6,7
 575 63 575 63 552.5 31.5 c 128,-1,8
 530 0 530 0 465 0 c 2,9,-1
 306 0 l 2,10,11
 184 0 184 0 127.5 37 c 128,-1,12
 71 74 71 74 71 181 c 2,13,-1
 71 455 l 2,14,15
 71 564 71 564 130 600 c 128,-1,16
 189 636 189 636 324 636 c 2,17,-1
 465 636 l 2,18,19
 530 636 530 636 552.5 603 c 128,-1,20
 575 570 575 570 575 520 c 128,-1,21
 575 470 575 470 539 470 c 0,22,-1
 538 469 l 0,23,24
 503 469 503 469 503 513 c 0,25,26
 503 543 503 543 494 553.5 c 128,-1,27
 485 564 485 564 458 564 c 2,28,-1
 324 564 l 2,29,30
 214 564 214 564 178.5 544.5 c 128,-1,31
 143 525 143 525 143 452 c 2,32,-1
 143 184 l 2,33,34
 143 111 143 111 175.5 91.5 c 128,-1,35
 208 72 208 72 306 72 c 2,36,-1
 458 72 l 2,37,38
 485 72 485 72 494 81.5 c 128,-1,39
 503 91 503 91 503 120 c 2,40,-1
 503 236 l 1,0,-1
EndSplineSet
Validated: 1
EndChar

StartChar: H
Encoding: 72 72 41
Width: 672
Flags: HW
HStem: -7 21G<102 138 534 570> 307 72<156 516> 623 20G<101 137 534 570>
VStem: 84 72<-4.99023 307 379 640.638> 516 72<-4.99023 307 379 640.942>
AnchorPoint: "bottom" 336 0 basechar 0
AnchorPoint: "top" 336 678 basechar 0
LayerCount: 2
Fore
SplineSet
156 35 m 2,0,1
 156 -7 156 -7 120 -7 c 128,-1,2
 84 -7 84 -7 84 35 c 2,3,-1
 84 600 l 2,4,5
 84 643 84 643 118 643 c 0,6,7
 156 643 156 643 156 600 c 2,8,-1
 156 379 l 1,9,-1
 516 379 l 1,10,-1
 516 600 l 2,11,12
 516 643 516 643 552 643 c 128,-1,13
 588 643 588 643 588 600 c 2,14,-1
 588 35 l 2,15,16
 588 -7 588 -7 552 -7 c 128,-1,17
 516 -7 516 -7 516 35 c 2,18,-1
 516 307 l 1,19,-1
 156 307 l 1,20,-1
 156 35 l 2,0,1
EndSplineSet
Validated: 1
EndChar

StartChar: I
Encoding: 73 73 42
Width: 240
Flags: HW
HStem: -7 21G<102 138> 623 20G<102 138>
VStem: 84 72<-5.08594 641.038>
AnchorPoint: "bottom" 120 0 basechar 0
LayerCount: 2
Fore
SplineSet
156 33 m 2,0,1
 156 -7 156 -7 120 -7 c 128,-1,2
 84 -7 84 -7 84 33 c 2,3,-1
 84 602 l 2,4,5
 84 643 84 643 120 643 c 128,-1,6
 156 643 156 643 156 602 c 2,7,-1
 156 33 l 2,0,1
EndSplineSet
Validated: 1
EndChar

StartChar: J
Encoding: 74 74 43
Width: 591
Flags: HW
HStem: -8 72<136.816 406.731> 623 20G<467 492>
VStem: 33 73<94.1738 212.623> 438 72<95.1772 633.2>
AnchorPoint: "bottom" 272 0 basechar 0
AnchorPoint: "top" 476 678 basechar 0
LayerCount: 2
Fore
SplineSet
139 84.5 m 128,-1,1
 172 64 172 64 271.5 64 c 128,-1,2
 371 64 371 64 404.5 84 c 128,-1,3
 438 104 438 104 438 176 c 2,4,-1
 438 603 l 2,5,6
 438 624 438 624 449 633.5 c 128,-1,7
 460 643 460 643 474 643 c 0,8,9
 510 643 510 643 510 602 c 2,10,-1
 510 173 l 2,11,12
 510 66 510 66 453 29 c 128,-1,13
 396 -8 396 -8 272 -8 c 0,14,15
 210 -8 210 -8 169.5 -1 c 128,-1,16
 129 6 129 6 96 26 c 0,17,18
 33 64 33 64 33 182 c 0,19,20
 33 225 33 225 71 225 c 0,21,22
 87 225 87 225 96.5 213 c 128,-1,23
 106 201 106 201 106 182 c 0,24,0
 106 105 106 105 139 84.5 c 128,-1,1
EndSplineSet
Validated: 1
EndChar

StartChar: K
Encoding: 75 75 44
Width: 560
Flags: HW
HStem: -7 21G<102 138 508.25 522.75> 623 20G<102 127 443.25 457.75>
VStem: 84 72<-4.99023 264 346 632.684>
AnchorPoint: "top" 288 678 basechar 0
AnchorPoint: "bottom" 288 0 basechar 0
LayerCount: 2
Fore
SplineSet
541 55 m 1,0,1
 554 40 554 40 554 26.5 c 128,-1,2
 554 13 554 13 542 3 c 128,-1,3
 530 -7 530 -7 515.5 -7 c 128,-1,4
 501 -7 501 -7 485 12 c 1,5,-1
 199 316 l 1,6,-1
 156 264 l 1,7,-1
 156 35 l 2,8,9
 156 -7 156 -7 120 -7 c 128,-1,10
 84 -7 84 -7 84 33 c 2,11,-1
 84 602 l 2,12,13
 84 643 84 643 120 643 c 0,14,15
 134 643 134 643 145 633 c 128,-1,16
 156 623 156 623 156 600 c 2,17,-1
 156 346 l 1,18,-1
 419 624 l 2,19,20
 436 643 436 643 450.5 643 c 128,-1,21
 465 643 465 643 476 633.5 c 128,-1,22
 487 624 487 624 487 609.5 c 128,-1,23
 487 595 487 595 475 581 c 1,24,-1
 251 354 l 1,25,-1
 541 55 l 1,0,1
EndSplineSet
Validated: 1
EndChar

StartChar: L
Encoding: 76 76 45
Width: 554
Flags: HW
HStem: 0 72<156 529.942> 623 20G<113 127>
VStem: 84 72<72 633.2>
AnchorPoint: "top" 121 678 basechar 0
AnchorPoint: "bottom" 310 0 basechar 0
LayerCount: 2
Fore
SplineSet
118 0 m 2,0,1
 84 0 84 0 84 43 c 2,2,-1
 84 603 l 2,3,4
 84 624 84 624 95 633.5 c 128,-1,5
 106 643 106 643 120 643 c 128,-1,6
 134 643 134 643 145 633.5 c 128,-1,7
 156 624 156 624 156 603 c 2,8,-1
 156 72 l 1,9,-1
 489 72 l 2,10,11
 532 72 532 72 532 36 c 128,-1,12
 532 0 532 0 489 0 c 2,13,-1
 118 0 l 2,0,1
EndSplineSet
Validated: 1
EndChar

StartChar: M
Encoding: 77 77 46
Width: 693
Flags: HW
HStem: -7 21G<102 138 555 591> 623 20G<101 129 563.5 591.5>
VStem: 84 72<-4.84668 523> 537 72<-4.84668 523>
AnchorPoint: "top" 346 678 basechar 0
AnchorPoint: "bottom" 346 0 basechar 0
LayerCount: 2
Fore
SplineSet
374 291 m 1,0,1
 362 279 362 279 346.5 279 c 128,-1,2
 331 279 331 279 319 291 c 1,3,-1
 156 523 l 1,4,-1
 156 38 l 2,5,6
 156 -7 156 -7 120 -7 c 128,-1,7
 84 -7 84 -7 84 35 c 2,8,-1
 84 600 l 2,9,10
 84 643 84 643 118 643 c 0,11,12
 140 643 140 643 156 620 c 2,13,-1
 346 354 l 1,14,-1
 537 620 l 2,15,16
 553 643 553 643 574 643 c 0,17,18
 609 643 609 643 609 600 c 2,19,-1
 609 35 l 2,20,21
 609 -7 609 -7 573 -7 c 128,-1,22
 537 -7 537 -7 537 38 c 2,23,-1
 537 523 l 1,24,-1
 374 291 l 1,0,1
EndSplineSet
Validated: 1
EndChar

StartChar: N
Encoding: 78 78 47
Width: 672
Flags: HW
HStem: -7 21G<102 138 541.5 570.5> 623 20G<101 129 534 570>
VStem: 84 72<-4.99023 517> 516 72<118 640.799>
AnchorPoint: "top" 336 678 basechar 0
AnchorPoint: "bottom" 336 0 basechar 0
LayerCount: 2
Fore
SplineSet
553 -7 m 0,0,1
 530 -7 530 -7 525 0 c 2,2,-1
 156 517 l 1,3,-1
 156 32 l 2,4,5
 156 -7 156 -7 120 -7 c 128,-1,6
 84 -7 84 -7 84 35 c 2,7,-1
 84 600 l 2,8,9
 84 643 84 643 118 643 c 0,10,11
 140 643 140 643 156 620 c 2,12,-1
 516 118 l 1,13,-1
 516 597 l 2,14,15
 516 643 516 643 552 643 c 128,-1,16
 588 643 588 643 588 600 c 2,17,-1
 588 35 l 2,18,19
 588 -7 588 -7 553 -7 c 0,0,1
EndSplineSet
Validated: 1
EndChar

StartChar: O
Encoding: 79 79 48
Width: 632
Flags: HW
HStem: -9 72<213.07 418.493> 573 72<212.737 418.825>
VStem: 64 72<138.458 497.542> 496 72<139.056 496.944>
AnchorPoint: "top" 316 678 basechar 0
AnchorPoint: "bottom" 316 0 basechar 0
LayerCount: 2
Fore
SplineSet
498.5 55 m 128,-1,1
 429 -9 429 -9 315.5 -9 c 128,-1,2
 202 -9 202 -9 133 54.5 c 128,-1,3
 64 118 64 118 64 230 c 2,4,-1
 64 406 l 2,5,6
 64 518 64 518 133 581.5 c 128,-1,7
 202 645 202 645 315.5 645 c 128,-1,8
 429 645 429 645 498.5 581 c 128,-1,9
 568 517 568 517 568 406 c 2,10,-1
 568 230 l 2,11,0
 568 119 568 119 498.5 55 c 128,-1,1
316 573 m 128,-1,13
 227 573 227 573 181.5 528.5 c 128,-1,14
 136 484 136 484 136 403 c 2,15,-1
 136 233 l 2,16,17
 136 151 136 151 182 107 c 128,-1,18
 228 63 228 63 316 63 c 128,-1,19
 404 63 404 63 450 107 c 128,-1,20
 496 151 496 151 496 233 c 2,21,-1
 496 403 l 2,22,23
 496 484 496 484 450.5 528.5 c 128,-1,12
 405 573 405 573 316 573 c 128,-1,13
EndSplineSet
Validated: 1
EndChar

StartChar: P
Encoding: 80 80 49
Width: 580
Flags: HW
HStem: -7 21G<102 138> 322 72<156 447.526> 569 72<156 447.345>
VStem: 84 72<-5.08594 322 394 569> 474 72<419.105 543.584>
AnchorPoint: "top" 310 678 basechar 0
AnchorPoint: "bottom" 310 0 basechar 0
LayerCount: 2
Fore
SplineSet
156 33 m 2,0,1
 156 -7 156 -7 120 -7 c 128,-1,2
 84 -7 84 -7 84 33 c 2,3,-1
 84 597 l 2,4,5
 84 641 84 641 118 641 c 2,6,-1
 309 641 l 2,7,8
 429 641 429 641 487.5 607 c 128,-1,9
 546 573 546 573 546 489 c 128,-1,10
 546 405 546 405 496.5 363.5 c 128,-1,11
 447 322 447 322 357 322 c 2,12,-1
 156 322 l 1,13,-1
 156 33 l 2,0,1
309 394 m 2,14,15
 410 394 410 394 442 412 c 0,16,17
 474 428 474 428 474 482 c 128,-1,18
 474 536 474 536 439.5 552.5 c 128,-1,19
 405 569 405 569 309 569 c 2,20,-1
 156 569 l 1,21,-1
 156 394 l 1,22,-1
 309 394 l 2,14,15
EndSplineSet
Validated: 1
EndChar

StartChar: Q
Encoding: 81 81 50
Width: 632
Flags: HW
HStem: -9 72<213.132 414.709> 573 72<212.8 419.2>
VStem: 64 72<138.458 497.542> 496 72<136.941 496.944>
AnchorPoint: "top" 316 678 basechar 0
AnchorPoint: "bottom" 316 0 basechar 0
LayerCount: 2
Fore
SplineSet
316 573 m 128,-1,1
 227 573 227 573 181.5 528.5 c 128,-1,2
 136 484 136 484 136 403 c 2,3,-1
 136 233 l 2,4,5
 136 151 136 151 182 107 c 128,-1,6
 228 63 228 63 316 63 c 0,7,8
 376 63 376 63 416 83 c 1,9,-1
 367 124 l 1,10,11
 349 135 349 135 349 151 c 128,-1,12
 349 167 349 167 360 178 c 0,13,14
 370 189 370 189 388 189 c 128,-1,15
 406 189 406 189 424 172 c 2,16,-1
 470 130 l 1,17,18
 496 172 496 172 496 233 c 2,19,-1
 496 403 l 2,20,21
 496 484 496 484 450.5 528.5 c 128,-1,0
 405 573 405 573 316 573 c 128,-1,1
316 -9 m 0,22,23
 202 -9 202 -9 133 54.5 c 128,-1,24
 64 118 64 118 64 230 c 2,25,-1
 64 406 l 2,26,27
 64 518 64 518 133 581.5 c 128,-1,28
 202 645 202 645 316 645 c 128,-1,29
 430 645 430 645 499 581 c 128,-1,30
 568 517 568 517 568 406 c 2,31,-1
 568 230 l 2,32,33
 568 138 568 138 523 79 c 1,34,-1
 551 53 l 2,35,36
 565 38 565 38 565 24 c 128,-1,37
 565 10 565 10 555 -1 c 128,-1,38
 545 -12 545 -12 528 -12 c 128,-1,39
 511 -12 511 -12 499 -1 c 2,40,-1
 470 28 l 1,41,42
 408 -9 408 -9 316 -9 c 0,22,23
EndSplineSet
Validated: 1
EndChar

StartChar: R
Encoding: 82 82 51
Width: 609
Flags: HW
HStem: -7 21G<102 138> 322 72<156 366.782> 569 77<156 446.416>
VStem: 84 72<-5.08594 322 394 569> 474 72<30.4471 147.77 419.589 543.593>
AnchorPoint: "bottom" 305 0 basechar 0
AnchorPoint: "top" 305 678 basechar 0
LayerCount: 2
Fore
SplineSet
438 336 m 1,0,1
 469 298 469 298 498 224.5 c 128,-1,2
 527 151 527 151 540.5 97.5 c 128,-1,3
 554 44 554 44 554 30 c 128,-1,4
 554 16 554 16 544 4 c 0,5,6
 532 -8 532 -8 516 -7.5 c 128,-1,7
 500 -7 500 -7 492 5 c 0,8,9
 484 18 484 18 482.5 34 c 128,-1,10
 481 50 481 50 467.5 100 c 128,-1,11
 454 150 454 150 419.5 221 c 128,-1,12
 385 292 385 292 342 322 c 1,13,-1
 156 322 l 1,14,-1
 156 33 l 2,15,16
 156 -7 156 -7 120 -7 c 128,-1,17
 84 -7 84 -7 84 33 c 2,18,-1
 84 602 l 2,19,20
 84 646 84 646 118 646 c 2,21,-1
 306 646 l 2,22,23
 428 646 428 646 487 611.5 c 128,-1,24
 546 577 546 577 546 485 c 0,25,26
 546 367 546 367 438 336 c 1,0,1
156 569 m 1,27,-1
 156 394 l 1,28,-1
 306 394 l 2,29,30
 404 394 404 394 439 411 c 128,-1,31
 474 428 474 428 474 482 c 128,-1,32
 474 536 474 536 438 552.5 c 128,-1,33
 402 569 402 569 306 569 c 2,34,-1
 156 569 l 1,27,-1
EndSplineSet
Validated: 8388609
EndChar

StartChar: S
Encoding: 83 83 52
Width: 658
Flags: HW
HStem: -8 72<167.353 494.75> 572 72<164.686 494.117>
VStem: 61 72<96.7969 212.623 406.002 538.53> 525 72<94.5742 240.613 425.377 540.48>
AnchorPoint: "bottom" 313 0 basechar 0
AnchorPoint: "top" 313 678 basechar 0
LayerCount: 2
Fore
SplineSet
156.5 541 m 128,-1,1
 133 510 133 510 133 475.5 c 128,-1,2
 133 441 133 441 149 415 c 128,-1,3
 165 389 165 389 185 385 c 2,4,-1
 460 336 l 2,5,6
 532 323 532 323 564.5 274 c 128,-1,7
 597 225 597 225 597 157.5 c 128,-1,8
 597 90 597 90 553 41 c 128,-1,9
 509 -8 509 -8 408 -8 c 2,10,-1
 312 -8 l 2,11,12
 180 -8 180 -8 120.5 30 c 128,-1,13
 61 68 61 68 61 182 c 0,14,15
 61 225 61 225 99 225 c 0,16,17
 115 225 115 225 124.5 213 c 128,-1,18
 134 201 134 201 134 182 c 0,19,20
 134 105 134 105 168.5 84.5 c 128,-1,21
 203 64 203 64 312 64 c 2,22,-1
 430 64 l 2,23,24
 482 64 482 64 503.5 95.5 c 128,-1,25
 525 127 525 127 525 167.5 c 128,-1,26
 525 208 525 208 507 235 c 128,-1,27
 489 262 489 262 473 265 c 2,28,-1
 200 316 l 2,29,30
 125 331 125 331 93 369.5 c 128,-1,31
 61 408 61 408 61 478 c 0,32,33
 61 542 61 542 102 590 c 0,34,35
 149 644 149 644 268 644 c 2,36,-1
 344 644 l 2,37,38
 411 644 411 644 453.5 637 c 128,-1,39
 496 630 496 630 531 610 c 0,40,41
 597 573 597 573 597 456 c 0,42,43
 597 433 597 433 585.5 423 c 128,-1,44
 574 413 574 413 559 413 c 128,-1,45
 544 413 544 413 534 425 c 128,-1,46
 524 437 524 437 524 456 c 0,47,48
 524 533 524 533 490 552.5 c 128,-1,49
 456 572 456 572 344 572 c 2,50,-1
 238 572 l 2,51,0
 180 572 180 572 156.5 541 c 128,-1,1
EndSplineSet
Validated: 1
EndChar

StartChar: T
Encoding: 84 84 53
Width: 520
Flags: HW
HStem: -7 21G<251 267> 564 72<36.3157 219 302 490.942>
VStem: 219 83<2.79968 564>
AnchorPoint: "top" 259 678 basechar 0
AnchorPoint: "bottom" 259 0 basechar 0
LayerCount: 2
Fore
SplineSet
450 636 m 2,0,1
 493 636 493 636 493 600 c 128,-1,2
 493 564 493 564 450 564 c 2,3,-1
 302 564 l 1,4,-1
 302 33 l 2,5,6
 302 12 302 12 288.5 2.5 c 128,-1,7
 275 -7 275 -7 259 -7 c 128,-1,8
 243 -7 243 -7 231 2 c 128,-1,9
 219 11 219 11 219 33 c 2,10,-1
 219 564 l 1,11,-1
 69 564 l 2,12,13
 46 564 46 564 36 575 c 128,-1,14
 26 586 26 586 26 600 c 128,-1,15
 26 614 26 614 36 625 c 128,-1,16
 46 636 46 636 69 636 c 2,17,-1
 450 636 l 2,0,1
EndSplineSet
Validated: 1
EndChar

StartChar: U
Encoding: 85 85 54
Width: 658
Flags: HW
HStem: -9 72<225.695 431.43> 623 20G<95 120 527 563>
VStem: 77 72<138.458 633.2> 509 72<139.056 641.038>
AnchorPoint: "top" 329 678 basechar 0
AnchorPoint: "bottom" 329 0 basechar 0
LayerCount: 2
Fore
SplineSet
509 603 m 2,0,1
 509 643 509 643 545 643 c 128,-1,2
 581 643 581 643 581 602 c 2,3,-1
 581 230 l 2,4,5
 581 119 581 119 511.5 55 c 128,-1,6
 442 -9 442 -9 328 -9 c 128,-1,7
 214 -9 214 -9 145.5 54.5 c 128,-1,8
 77 118 77 118 77 230 c 2,9,-1
 77 602 l 2,10,11
 77 643 77 643 113 643 c 0,12,13
 127 643 127 643 138 633.5 c 128,-1,14
 149 624 149 624 149 603 c 2,15,-1
 149 233 l 2,16,17
 149 151 149 151 195 107 c 128,-1,18
 241 63 241 63 329 63 c 128,-1,19
 417 63 417 63 463 107 c 128,-1,20
 509 151 509 151 509 233 c 2,21,-1
 509 603 l 2,0,1
EndSplineSet
Validated: 1
EndChar

StartChar: V
Encoding: 86 86 55
Width: 610
Flags: HW
HStem: 0 21G<256.087 353.913>
VStem: 24 73<624 648.985> 513 73<624 648.985>
AnchorPoint: "bottom" 304 -0 basechar 0
AnchorPoint: "top" 304 678 basechar 0
LayerCount: 2
Fore
SplineSet
513 624 m 2,0,1
 525 652 525 652 550 652 c 0,2,3
 561 652 561 652 573.5 644 c 128,-1,4
 586 636 586 636 586 622 c 128,-1,5
 586 608 586 608 583 599 c 2,6,-1
 346 0 l 1,7,-1
 264 0 l 1,8,-1
 27 599 l 2,9,10
 24 608 24 608 24 622 c 128,-1,11
 24 636 24 636 36.5 644 c 128,-1,12
 49 652 49 652 60 652 c 0,13,14
 86 652 86 652 97 624 c 2,15,-1
 306 104 l 1,16,-1
 513 624 l 2,0,1
EndSplineSet
Validated: 1
EndChar

StartChar: W
Encoding: 87 87 56
Width: 955
Flags: HW
HStem: 0 21G<219.543 305.704 649.258 736.467>
AnchorPoint: "top" 477 678 basechar 0
AnchorPoint: "bottom" 477 0 basechar 0
LayerCount: 2
Fore
SplineSet
694 96 m 1,0,-1
 856 621 l 2,1,2
 864 649 864 649 896 649 c 128,-1,3
 928 649 928 649 928 618 c 0,4,5
 928 612 928 612 924 600 c 2,6,-1
 730 0 l 1,7,-1
 656 0 l 1,8,-1
 477 531 l 1,9,-1
 299 0 l 1,10,-1
 226 0 l 1,11,-1
 31 604 l 2,12,13
 27 616 27 616 27 624 c 0,14,15
 27 653 27 653 58 653 c 0,16,17
 90 653 90 653 99 625 c 2,18,-1
 263 96 l 1,19,-1
 436 620 l 1,20,21
 448 652 448 652 478 652 c 128,-1,22
 508 652 508 652 520 619 c 2,23,-1
 694 96 l 1,0,-1
EndSplineSet
Validated: 1
EndChar

StartChar: X
Encoding: 88 88 57
Width: 605
Flags: HW
HStem: -7 21G<69 85 520.5 535.5> 624 20G<66 85 520.25 534.75>
AnchorPoint: "top" 302 678 basechar 0
AnchorPoint: "bottom" 302 0 basechar 0
LayerCount: 2
Fore
SplineSet
497 621 m 2,0,1
 513 643 513 643 527.5 643 c 128,-1,2
 542 643 542 643 554 634.5 c 128,-1,3
 566 626 566 626 566 610.5 c 128,-1,4
 566 595 566 595 556 582 c 2,5,-1
 351 317 l 1,6,-1
 556 53 l 2,7,8
 566 41 566 41 566 25.5 c 128,-1,9
 566 10 566 10 554.5 1.5 c 128,-1,10
 543 -7 543 -7 528 -7 c 128,-1,11
 513 -7 513 -7 497 13 c 2,12,-1
 302 270 l 1,13,-1
 108 13 l 2,14,15
 93 -7 93 -7 77 -7 c 128,-1,16
 61 -7 61 -7 50 2 c 128,-1,17
 39 11 39 11 39 25.5 c 128,-1,18
 39 40 39 40 49 53 c 2,19,-1
 254 317 l 1,20,-1
 49 582 l 2,21,22
 39 594 39 594 39 611 c 0,23,24
 39 623 39 623 46 630 c 0,25,26
 58 644 58 644 74 644 c 0,27,28
 76 644 l 0,29,30
 94 644 94 644 108 621 c 1,31,-1
 302 365 l 1,32,-1
 497 621 l 2,0,1
EndSplineSet
Validated: 1
EndChar

StartChar: Y
Encoding: 89 89 58
Width: 563
Flags: HW
HStem: -7 21G<263 301> 623 20G<47.5 62.5 500 514>
VStem: 243 77<-4.5625 306>
AnchorPoint: "top" 281 678 basechar 0
AnchorPoint: "bottom" 281 0 basechar 0
LayerCount: 2
Fore
SplineSet
243 306 m 1,0,-1
 28 583 l 1,1,2
 18 600 18 600 18 612 c 128,-1,3
 18 624 18 624 29 633.5 c 128,-1,4
 40 643 40 643 55 643 c 128,-1,5
 70 643 70 643 86 621 c 2,6,-1
 281 365 l 1,7,-1
 475 621 l 1,8,9
 493 643 493 643 507 643 c 128,-1,10
 521 643 521 643 532.5 633.5 c 128,-1,11
 544 624 544 624 544 612 c 128,-1,12
 544 600 544 600 534 583 c 1,13,-1
 320 306 l 1,14,-1
 320 32 l 2,15,16
 320 -7 320 -7 282 -7 c 128,-1,17
 244 -7 244 -7 243 32 c 2,18,-1
 243 306 l 1,0,-1
EndSplineSet
Validated: 1
EndChar

StartChar: Z
Encoding: 90 90 59
Width: 602
Flags: HW
HStem: 0 72<144 550.847> 564 72<51.2012 461>
AnchorPoint: "top" 291 678 basechar 0
AnchorPoint: "bottom" 291 0 basechar 0
LayerCount: 2
Fore
SplineSet
50 0 m 1,0,-1
 50 64 l 1,1,-1
 461 564 l 1,2,-1
 95 564 l 2,3,4
 49 564 49 564 49 600 c 128,-1,5
 49 636 49 636 95 636 c 2,6,-1
 553 636 l 1,7,-1
 553 569 l 1,8,-1
 144 72 l 1,9,-1
 508 72 l 2,10,11
 553 72 553 72 553 36 c 128,-1,12
 553 0 553 0 508 0 c 2,13,-1
 50 0 l 1,0,-1
EndSplineSet
Validated: 1
EndChar

StartChar: bracketleft
Encoding: 91 91 60
Width: 279
Flags: HW
HStem: -57 72<153 231> 621 72<153 231>
VStem: 81 150<-57 15 621 693> 81 72<15 621>
LayerCount: 2
Fore
SplineSet
153 15 m 1,0,-1
 231 15 l 1,1,-1
 231 -57 l 1,2,-1
 81 -57 l 1,3,-1
 81 693 l 1,4,-1
 231 693 l 1,5,-1
 231 621 l 1,6,-1
 153 621 l 1,7,-1
 153 15 l 1,0,-1
EndSplineSet
Validated: 8388609
EndChar

StartChar: backslash
Encoding: 92 92 61
Width: 375
Flags: HW
VStem: 41 72<631 656.878> 262 72<-20.168 6>
LayerCount: 2
Fore
SplineSet
262 6 m 1,0,-1
 50 590 l 2,1,2
 41 612 41 612 41 628 c 128,-1,3
 41 644 41 644 53.5 652 c 128,-1,4
 66 660 66 660 78 660 c 0,5,6
 100 660 100 660 113 631 c 1,7,-1
 323 53 l 2,8,9
 334 24 334 24 334 8 c 128,-1,10
 334 -8 334 -8 321.5 -15.5 c 128,-1,11
 309 -23 309 -23 298 -23 c 0,12,13
 274 -23 274 -23 262 6 c 1,0,-1
EndSplineSet
Validated: 1
EndChar

StartChar: bracketright
Encoding: 93 93 62
Width: 279
Flags: HW
HStem: -57 72<48 126> 621 72<48 126>
VStem: 48 150<-57 15 621 693> 126 72<15 621>
LayerCount: 2
Fore
SplineSet
126 15 m 1,0,-1
 126 621 l 1,1,-1
 48 621 l 1,2,-1
 48 693 l 1,3,-1
 198 693 l 1,4,-1
 198 -57 l 1,5,-1
 48 -57 l 1,6,-1
 48 15 l 1,7,-1
 126 15 l 1,0,-1
EndSplineSet
Validated: 8388609
EndChar

StartChar: asciicircum
Encoding: 94 94 63
Width: 443
Flags: HW
HStem: 350 301
VStem: 70 71<353.006 377>
LayerCount: 2
Fore
SplineSet
103 350 m 0,0,1
 90 350 90 350 80 359.5 c 128,-1,2
 70 369 70 369 70 381 c 128,-1,3
 70 393 70 393 72 399 c 2,4,-1
 186 651 l 1,5,-1
 258 651 l 1,6,-1
 371 399 l 2,7,8
 373 392 373 392 373 380 c 128,-1,9
 373 368 373 368 364 359 c 0,10,11
 356 350 356 350 336 350 c 128,-1,12
 316 350 316 350 301 377 c 1,13,-1
 222 557 l 1,14,-1
 141 377 l 2,15,16
 129 350 129 350 103 350 c 0,0,1
EndSplineSet
Validated: 1
EndChar

StartChar: underscore
Encoding: 95 95 64
Width: 475
Flags: HW
HStem: -57 72<-12.9424 487.942>
LayerCount: 2
Fore
SplineSet
447 15 m 2,0,1
 490 15 490 15 490 -21 c 128,-1,2
 490 -57 490 -57 447 -57 c 2,3,-1
 28 -57 l 2,4,5
 -15 -57 -15 -57 -15 -21 c 128,-1,6
 -15 15 -15 15 28 15 c 2,7,-1
 447 15 l 2,0,1
EndSplineSet
Validated: 1
EndChar

StartChar: grave
Encoding: 96 96 65
Width: 212
Flags: HW
HStem: 495 198
VStem: 19 175
LayerCount: 2
Fore
SplineSet
183 559 m 1,0,1
 194 544 194 544 194 530 c 128,-1,2
 194 516 194 516 183 505.5 c 128,-1,3
 172 495 172 495 158 495 c 128,-1,4
 144 495 144 495 126 514 c 2,5,-1
 30 629 l 2,6,7
 19 641 19 641 19 657 c 128,-1,8
 19 673 19 673 29.5 683 c 128,-1,9
 40 693 40 693 55 693 c 128,-1,10
 70 693 70 693 87 674 c 2,11,-1
 183 559 l 1,0,1
EndSplineSet
Validated: 1
EndChar

StartChar: a
Encoding: 97 97 66
Width: 594
Flags: HW
HStem: 0 72<142.525 386.547> 233 72<163.724 451> 389 72<160.856 441.714>
VStem: 61 72<81.3438 204.135 307.153 377.389> 451 72<-4.84668 50 137.186 233 305 380.23>
AnchorPoint: "top" 293 510 basechar 0
AnchorPoint: "bottom" 268 0 basechar 0
LayerCount: 2
Fore
SplineSet
314 305 m 2,0,-1
 451 305 l 1,1,-1
 451 347 l 2,2,3
 451 372 451 372 442 380.5 c 128,-1,4
 433 389 433 389 406 389 c 2,5,-1
 265 389 l 2,6,7
 187 389 187 389 160 380.5 c 128,-1,8
 133 372 133 372 133 350 c 0,9,10
 133 305 133 305 97 305 c 128,-1,11
 61 305 61 305 61 350 c 0,12,13
 61 413 61 413 111.5 437 c 128,-1,14
 162 461 162 461 258 461 c 2,15,-1
 413 461 l 2,16,17
 477 461 477 461 500 431 c 128,-1,18
 523 401 523 401 523 331 c 2,19,-1
 523 35 l 2,20,21
 523 -7 523 -7 487 -7 c 128,-1,22
 451 -7 451 -7 451 38 c 2,23,-1
 451 50 l 1,24,25
 391 0 391 0 271 0 c 2,26,-1
 178 0 l 2,27,28
 127 0 127 0 94 35 c 128,-1,29
 61 70 61 70 61 129 c 0,30,31
 61 231 61 231 121.5 268 c 128,-1,32
 182 305 182 305 314 305 c 2,0,-1
451 233 m 1,33,-1
 314 233 l 2,34,35
 202 233 202 233 167.5 214.5 c 128,-1,36
 133 196 133 196 133 124 c 0,37,38
 133 103 133 103 148 87.5 c 128,-1,39
 163 72 163 72 178 72 c 2,40,-1
 271 72 l 2,41,42
 390 72 390 72 424 129 c 1,43,44
 451 172 451 172 451 229 c 0,45,46
 451 231 451 231 451 233 c 1,33,-1
EndSplineSet
Validated: 1
EndChar

StartChar: b
Encoding: 98 98 67
Width: 670
Flags: HW
HStem: 0 72<214.891 508.359> 389 72<214.891 508.359> 623 20G<92 128>
VStem: 75 72<-4.84668 50 137.531 323.406 411 640.473> 537 72<101.598 359.402>
AnchorPoint: "top" 357 510 basechar 0
AnchorPoint: "bottom" 347 0 basechar 0
LayerCount: 2
Fore
SplineSet
147 411 m 1,0,1
 209 461 209 461 328 461 c 2,2,-1
 357 461 l 2,3,4
 491 461 491 461 550 424.5 c 128,-1,5
 609 388 609 388 609 283 c 2,6,-1
 609 178 l 2,7,8
 609 73 609 73 550 36.5 c 128,-1,9
 491 0 491 0 357 0 c 2,10,-1
 328 0 l 2,11,12
 209 0 209 0 147 50 c 1,13,-1
 147 38 l 2,14,15
 147 -7 147 -7 111 -7 c 128,-1,16
 75 -7 75 -7 75 35 c 2,17,-1
 75 597 l 2,18,19
 75 643 75 643 109 643 c 0,20,21
 147 643 147 643 147 597 c 2,22,-1
 147 411 l 1,0,1
328 389 m 2,23,24
 226 389 226 389 186.5 346.5 c 128,-1,25
 147 304 147 304 147 232 c 2,26,-1
 147 228 l 2,27,28
 147 157 147 157 187 114.5 c 128,-1,29
 227 72 227 72 328 72 c 2,30,-1
 357 72 l 2,31,32
 468 72 468 72 502.5 90.5 c 128,-1,33
 537 109 537 109 537 181 c 2,34,-1
 537 280 l 2,35,36
 537 352 537 352 502.5 370.5 c 128,-1,37
 468 389 468 389 357 389 c 2,38,-1
 328 389 l 2,23,24
EndSplineSet
Validated: 1
EndChar

StartChar: c
Encoding: 99 99 68
Width: 624
Flags: HW
HStem: 0 72<161.729 483.714> 389 72<161.729 483.714>
VStem: 61 72<101.598 359.402> 493 72<83.3474 156.168 304.316 377.137>
AnchorPoint: "top" 328 510 basechar 0
AnchorPoint: "bottom" 328 0 basechar 0
LayerCount: 2
Fore
SplineSet
455 0 m 2,0,-1
 314 0 l 2,1,2
 179 0 179 0 120 36.5 c 128,-1,3
 61 73 61 73 61 178 c 2,4,-1
 61 283 l 2,5,6
 61 388 61 388 120 424.5 c 128,-1,7
 179 461 179 461 314 461 c 2,8,-1
 455 461 l 2,9,10
 520 461 520 461 542.5 427.5 c 128,-1,11
 565 394 565 394 565 344 c 128,-1,12
 565 294 565 294 529 294 c 0,13,14
 515 294 515 294 504 304 c 128,-1,15
 493 314 493 314 493 340 c 128,-1,16
 493 366 493 366 484 377.5 c 128,-1,17
 475 389 475 389 448 389 c 2,18,-1
 314 389 l 2,19,20
 202 389 202 389 167.5 370.5 c 128,-1,21
 133 352 133 352 133 280 c 2,22,-1
 133 181 l 2,23,24
 133 109 133 109 167.5 90.5 c 128,-1,25
 202 72 202 72 314 72 c 2,26,-1
 448 72 l 2,27,28
 475 72 475 72 484 83 c 128,-1,29
 493 94 493 94 493 120 c 128,-1,30
 493 146 493 146 504 156.5 c 128,-1,31
 515 167 515 167 529 167 c 0,32,33
 565 166 565 166 565 116 c 128,-1,34
 565 66 565 66 542.5 33 c 128,-1,35
 520 0 520 0 455 0 c 2,0,-1
EndSplineSet
Validated: 1
EndChar

StartChar: d
Encoding: 100 100 69
Width: 670
Flags: HW
HStem: 0 72<161.641 455.109> 389 72<162.086 523> 623 20G<542 578>
VStem: 61 72<101.598 361.682> 523 72<-4.84668 50 137.594 389 461 640.528>
AnchorPoint: "top" 303 510 basechar 0
AnchorPoint: "bottom" 313 0 basechar 0
LayerCount: 2
Fore
SplineSet
133 181 m 2,0,1
 133 109 133 109 167.5 90.5 c 128,-1,2
 202 72 202 72 313 72 c 2,3,-1
 342 72 l 2,4,5
 444 72 444 72 483.5 114.5 c 128,-1,6
 523 157 523 157 523 229 c 2,7,-1
 523 389 l 1,8,-1
 305 389 l 2,9,10
 200 389 200 389 166.5 370.5 c 128,-1,11
 133 352 133 352 133 280 c 2,12,-1
 133 181 l 2,0,1
61 283 m 2,13,14
 61 388 61 388 119 424.5 c 128,-1,15
 177 461 177 461 305 461 c 2,16,-1
 523 461 l 1,17,-1
 523 598 l 2,18,19
 523 643 523 643 561 643 c 0,20,21
 595 643 595 643 595 598 c 2,22,-1
 595 35 l 2,23,24
 595 -7 595 -7 559 -7 c 128,-1,25
 523 -7 523 -7 523 38 c 2,26,-1
 523 50 l 1,27,28
 461 0 461 0 342 0 c 2,29,-1
 313 0 l 2,30,31
 179 0 179 0 120 36.5 c 128,-1,32
 61 73 61 73 61 178 c 2,33,-1
 61 283 l 2,13,14
EndSplineSet
Validated: 1
EndChar

StartChar: e
Encoding: 101 101 70
Width: 651
Flags: HW
HStem: 0 72<161.729 503.714> 235 72<133 523> 389 72<159.199 496.305>
VStem: 61 72<101.598 235 307 364.092> 513 72<83.3474 156.168>
AnchorPoint: "top" 328 510 basechar 0
AnchorPoint: "bottom" 328 0 basechar 0
LayerCount: 2
Fore
SplineSet
595 283 m 2,0,-1
 595 235 l 1,1,-1
 133 235 l 1,2,-1
 133 181 l 2,3,4
 133 109 133 109 167.5 90.5 c 128,-1,5
 202 72 202 72 314 72 c 2,6,-1
 468 72 l 2,7,8
 495 72 495 72 504 83 c 128,-1,9
 513 94 513 94 513 120 c 128,-1,10
 513 146 513 146 524 156.5 c 128,-1,11
 535 167 535 167 549 167 c 0,12,13
 585 166 585 166 585 116 c 128,-1,14
 585 66 585 66 562.5 33 c 128,-1,15
 540 0 540 0 475 0 c 2,16,-1
 314 0 l 2,17,18
 179 0 179 0 120 36.5 c 128,-1,19
 61 73 61 73 61 178 c 2,20,-1
 61 283 l 2,21,22
 61 388 61 388 120 424.5 c 128,-1,23
 179 461 179 461 314 461 c 2,24,-1
 343 461 l 2,25,26
 477 461 477 461 536 424.5 c 128,-1,27
 595 388 595 388 595 283 c 2,0,-1
343 389 m 2,28,-1
 314 389 l 2,29,30
 206 389 206 389 171 374 c 128,-1,31
 136 359 136 359 133 307 c 1,32,-1
 523 307 l 1,33,34
 519 360 519 360 483 374.5 c 128,-1,35
 447 389 447 389 343 389 c 2,28,-1
EndSplineSet
Validated: 1
EndChar

StartChar: f
Encoding: 102 102 71
Width: 345
Flags: HW
HStem: -7 21G<97 133> 389 72<152 323.473> 564 72<180.908 346.473>
VStem: 80 72<-4.63794 389 461 535.647>
AnchorPoint: "top" 291 678 basechar 0
AnchorPoint: "bottom" 115 0 basechar 0
LayerCount: 2
Fore
SplineSet
303 564 m 0,0,1
 218 564 218 564 186 546 c 128,-1,2
 154 528 154 528 152 461 c 1,3,-1
 280 461 l 2,4,5
 326 461 326 461 326 423 c 0,6,7
 326 389 326 389 280 389 c 2,8,-1
 152 389 l 1,9,-1
 152 36 l 2,10,11
 152 -7 152 -7 114 -7 c 0,12,13
 80 -7 80 -7 80 36 c 2,14,-1
 80 394 l 1,15,16
 49 400 49 400 49 428 c 128,-1,17
 49 456 49 456 80 460 c 1,18,19
 84 564 84 564 139 600 c 128,-1,20
 194 636 194 636 303 636 c 0,21,22
 349 636 349 636 349 598 c 0,23,24
 349 564 349 564 303 564 c 0,0,1
EndSplineSet
Validated: 1
EndChar

StartChar: g
Encoding: 103 103 72
Width: 670
Flags: HW
HStem: -205 72<142.286 516.293> 0 72<161.465 523> 389 72<161.641 455.109>
VStem: 61 72<-121.652 -40.3926 101.598 359.402> 523 72<-125.261 0 72 323.469 411 465.847>
AnchorPoint: "bottom" 323 0 basechar 0
AnchorPoint: "top" 323 510 basechar 0
LayerCount: 2
Fore
SplineSet
595 -77 m 2,0,1
 595 -146 595 -146 573.5 -175.5 c 128,-1,2
 552 -205 552 -205 494 -205 c 2,3,-1
 171 -205 l 2,4,5
 106 -205 106 -205 83.5 -171.5 c 128,-1,6
 61 -138 61 -138 61 -88 c 128,-1,7
 61 -38 61 -38 97 -38 c 128,-1,8
 133 -38 133 -38 133 -81 c 0,9,10
 133 -111 133 -111 142 -122 c 128,-1,11
 151 -133 151 -133 178 -133 c 2,12,-1
 487 -133 l 2,13,14
 510 -133 510 -133 516.5 -125.5 c 128,-1,15
 523 -118 523 -118 523 -93 c 2,16,-1
 523 0 l 1,17,-1
 311 0 l 2,18,19
 179 0 179 0 120 36.5 c 128,-1,20
 61 73 61 73 61 178 c 2,21,-1
 61 283 l 2,22,23
 61 388 61 388 120 424.5 c 128,-1,24
 179 461 179 461 313 461 c 2,25,-1
 342 461 l 2,26,27
 461 461 461 461 523 411 c 1,28,-1
 523 423 l 2,29,30
 523 468 523 468 559 468 c 128,-1,31
 595 468 595 468 595 426 c 2,32,-1
 595 -77 l 2,0,1
311 72 m 2,33,-1
 523 72 l 1,34,-1
 523 233 l 2,35,36
 523 304 523 304 483 346.5 c 128,-1,37
 443 389 443 389 342 389 c 2,38,-1
 313 389 l 2,39,40
 202 389 202 389 167.5 370.5 c 128,-1,41
 133 352 133 352 133 280 c 2,42,-1
 133 181 l 2,43,44
 133 109 133 109 167.5 90.5 c 128,-1,45
 202 72 202 72 311 72 c 2,33,-1
EndSplineSet
Validated: 1
EndChar

StartChar: h
Encoding: 104 104 73
Width: 679
Flags: HW
HStem: -7 21G<93 129 555 591> 389 72<214.891 508.359> 623 20G<92 128>
VStem: 75 72<-4.99023 321.906 411 640.473> 537 72<-4.99023 359.402>
AnchorPoint: "bottom" 332 0 basechar 0
AnchorPoint: "top" 347 510 basechar 0
LayerCount: 2
Fore
SplineSet
328 389 m 2,0,1
 227 389 227 389 187 345.5 c 128,-1,2
 147 302 147 302 147 229 c 2,3,-1
 147 35 l 2,4,5
 147 -7 147 -7 111 -7 c 128,-1,6
 75 -7 75 -7 75 35 c 2,7,-1
 75 597 l 2,8,9
 75 643 75 643 109 643 c 0,10,11
 147 643 147 643 147 597 c 2,12,-1
 147 411 l 1,13,14
 209 461 209 461 328 461 c 2,15,-1
 357 461 l 2,16,17
 491 461 491 461 550 424.5 c 128,-1,18
 609 388 609 388 609 283 c 2,19,-1
 609 35 l 2,20,21
 609 -7 609 -7 573 -7 c 128,-1,22
 537 -7 537 -7 537 35 c 2,23,-1
 537 280 l 2,24,25
 537 352 537 352 502.5 370.5 c 128,-1,26
 468 389 468 389 357 389 c 2,27,-1
 328 389 l 2,0,1
EndSplineSet
Validated: 1
EndChar

StartChar: i
Encoding: 105 105 74
Width: 218
Flags: HW
HStem: 550 102<59.5312 158.469>
VStem: 48 122<563.172 638.828> 73 72<-12.1998 472.684>
AnchorPoint: "bottom" 109 0 basechar 0
AnchorPoint: "top" 109 678 basechar 0
LayerCount: 2
Fore
SplineSet
73 440 m 2,0,1
 73 463 73 463 84 473 c 128,-1,2
 95 483 95 483 109 483 c 128,-1,3
 123 483 123 483 134 473 c 128,-1,4
 145 463 145 463 145 440 c 2,5,-1
 145 20 l 2,6,7
 145 -22 145 -22 108 -22 c 0,8,9
 94 -22 94 -22 83.5 -12.5 c 128,-1,10
 73 -3 73 -3 73 20 c 2,11,-1
 73 440 l 2,0,1
109 550 m 128,-1,13
 89 550 89 550 68.5 564.5 c 128,-1,14
 48 579 48 579 48 601 c 128,-1,15
 48 623 48 623 67.5 637.5 c 128,-1,16
 87 652 87 652 108 652 c 128,-1,17
 129 652 129 652 149.5 637.5 c 128,-1,18
 170 623 170 623 170 601 c 128,-1,19
 170 579 170 579 149.5 564.5 c 128,-1,12
 129 550 129 550 109 550 c 128,-1,13
EndSplineSet
Validated: 8388609
EndChar

StartChar: j
Encoding: 106 106 75
Width: 222
Flags: HW
HStem: -175 72<-119.799 50.3282> 448 20G<93 129> 550 102<61.5312 160.469>
VStem: 50 122<563.172 638.828> 75 72<-78.4766 465.799>
AnchorPoint: "bottom" 110 -175 basechar 0
AnchorPoint: "top" 111 678 basechar 0
LayerCount: 2
Fore
SplineSet
111 550 m 128,-1,1
 91 550 91 550 70.5 564.5 c 128,-1,2
 50 579 50 579 50 601 c 128,-1,3
 50 623 50 623 69.5 637.5 c 128,-1,4
 89 652 89 652 110 652 c 128,-1,5
 131 652 131 652 151.5 637.5 c 128,-1,6
 172 623 172 623 172 601 c 128,-1,7
 172 579 172 579 151.5 564.5 c 128,-1,0
 131 550 131 550 111 550 c 128,-1,1
147 0 m 2,8,9
 147 -105 147 -105 92.5 -140 c 128,-1,10
 38 -175 38 -175 -76 -175 c 0,11,12
 -122 -175 -122 -175 -122 -139 c 128,-1,13
 -122 -103 -122 -103 -76 -103 c 0,14,15
 14 -103 14 -103 44.5 -85 c 128,-1,16
 75 -67 75 -67 75 0 c 2,17,-1
 75 422 l 2,18,19
 75 468 75 468 111 468 c 128,-1,20
 147 468 147 468 147 422 c 2,21,-1
 147 0 l 2,8,9
EndSplineSet
Validated: 8388609
EndChar

StartChar: k
Encoding: 107 107 76
Width: 496
Flags: HW
HStem: -7 22G<93 129 440.25 454.75> 446 20G<366.25 380.75> 623 20G<104 118>
VStem: 75 72<-4.99023 212 282 632.684>
AnchorPoint: "top" 277 510 basechar 0
AnchorPoint: "bottom" 277 0 basechar 0
LayerCount: 2
Fore
SplineSet
468 57 m 1,0,1
 482 47 482 47 482 31 c 128,-1,2
 482 15 482 15 472 4.5 c 128,-1,3
 462 -6 462 -6 447.5 -6 c 128,-1,4
 433 -6 433 -6 417 8 c 2,5,-1
 166 231 l 1,6,-1
 147 212 l 1,7,-1
 147 35 l 2,8,9
 147 -7 147 -7 111 -7 c 128,-1,10
 75 -7 75 -7 75 32 c 2,11,-1
 75 600 l 2,12,13
 75 623 75 623 86 633 c 128,-1,14
 97 643 97 643 111 643 c 128,-1,15
 125 643 125 643 136 633 c 128,-1,16
 147 623 147 623 147 600 c 2,17,-1
 147 282 l 1,18,-1
 343 452 l 2,19,20
 359 466 359 466 373.5 466 c 128,-1,21
 388 466 388 466 399 456 c 128,-1,22
 410 446 410 446 410 430.5 c 128,-1,23
 410 415 410 415 394 403 c 2,24,-1
 219 263 l 1,25,-1
 468 57 l 1,0,1
EndSplineSet
Validated: 1
EndChar

StartChar: l
Encoding: 108 108 77
Width: 294
Flags: HW
HStem: 0 72<172.286 250.847> 623 20G<109 145>
VStem: 91 72<81.8011 640.847>
AnchorPoint: "top" 128 678 basechar 0
AnchorPoint: "bottom" 188 0 basechar 0
LayerCount: 2
Fore
SplineSet
208 0 m 2,0,-1
 201 0 l 2,1,2
 138 0 138 0 114.5 31 c 128,-1,3
 91 62 91 62 91 133 c 2,4,-1
 91 598 l 2,5,6
 91 643 91 643 127 643 c 128,-1,7
 163 643 163 643 163 598 c 2,8,-1
 163 118 l 2,9,10
 163 91 163 91 172 81.5 c 128,-1,11
 181 72 181 72 208 72 c 0,12,13
 253 72 253 72 253 36 c 128,-1,14
 253 0 253 0 208 0 c 2,0,-1
EndSplineSet
Validated: 1
EndChar

StartChar: m
Encoding: 109 109 78
Width: 869
Flags: HW
HStem: -7 21G<92 128 417.5 454.5 745 781> 389 72<197.504 376.799 528.13 706.689>
VStem: 74 72<-4.99023 333.441 414 465.312> 399 74<-4.69287 329.586> 727 72<-4.99023 368.031>
AnchorPoint: "top" 437 510 basechar 0
AnchorPoint: "bottom" 437 0 basechar 0
LayerCount: 2
Fore
SplineSet
373.5 370 m 128,-1,1
 348 389 348 389 279 389 c 128,-1,2
 210 389 210 389 178 348.5 c 128,-1,3
 146 308 146 308 146 229 c 2,4,-1
 146 35 l 2,5,6
 146 -7 146 -7 110 -7 c 128,-1,7
 74 -7 74 -7 74 35 c 2,8,-1
 74 425 l 2,9,10
 74 468 74 468 108 468 c 0,11,12
 146 468 146 468 146 422 c 2,13,-1
 146 414 l 1,14,15
 193 461 193 461 265 461 c 128,-1,16
 337 461 337 461 382 446 c 128,-1,17
 427 431 427 431 450 390 c 1,18,19
 507 461 507 461 604 461 c 128,-1,20
 701 461 701 461 750 424 c 128,-1,21
 799 387 799 387 799 283 c 2,22,-1
 799 35 l 2,23,24
 799 -7 799 -7 763 -7 c 128,-1,25
 727 -7 727 -7 727 35 c 2,26,-1
 727 280 l 2,27,28
 727 352 727 352 702.5 370.5 c 128,-1,29
 678 389 678 389 610 389 c 0,30,31
 474 389 474 389 473 229 c 2,32,-1
 473 35 l 2,33,34
 473 -7 473 -7 436 -7 c 128,-1,35
 399 -7 399 -7 399 35 c 2,36,-1
 399 280 l 2,37,0
 399 351 399 351 373.5 370 c 128,-1,1
EndSplineSet
Validated: 1
EndChar

StartChar: n
Encoding: 110 110 79
Width: 678
Flags: HW
HStem: -7 21G<92 128 554 590> 389 72<213.891 507.359>
VStem: 74 72<-4.99023 321.906 411 465.312> 536 72<-4.99023 359.402>
AnchorPoint: "bottom" 336 0 basechar 0
AnchorPoint: "top" 341 510 basechar 0
LayerCount: 2
Fore
SplineSet
327 389 m 2,0,1
 226 389 226 389 186 345.5 c 128,-1,2
 146 302 146 302 146 229 c 2,3,-1
 146 35 l 2,4,5
 146 -7 146 -7 110 -7 c 128,-1,6
 74 -7 74 -7 74 35 c 2,7,-1
 74 425 l 2,8,9
 74 468 74 468 108 468 c 0,10,11
 146 468 146 468 146 422 c 2,12,-1
 146 411 l 1,13,14
 208 461 208 461 327 461 c 2,15,-1
 356 461 l 2,16,17
 490 461 490 461 549 424.5 c 128,-1,18
 608 388 608 388 608 283 c 2,19,-1
 608 35 l 2,20,21
 608 -7 608 -7 572 -7 c 128,-1,22
 536 -7 536 -7 536 35 c 2,23,-1
 536 280 l 2,24,25
 536 352 536 352 501.5 370.5 c 128,-1,26
 467 389 467 389 356 389 c 2,27,-1
 327 389 l 2,0,1
EndSplineSet
Validated: 1
EndChar

StartChar: o
Encoding: 111 111 80
Width: 656
Flags: HW
HStem: 0 72<161.729 494.359> 389 72<161.729 494.359>
VStem: 61 72<101.598 359.402> 523 72<101.598 359.402>
AnchorPoint: "bottom" 328 0 basechar 0
AnchorPoint: "top" 328 510 basechar 0
LayerCount: 2
Fore
SplineSet
343 0 m 2,0,-1
 314 0 l 2,1,2
 179 0 179 0 120 36.5 c 128,-1,3
 61 73 61 73 61 178 c 2,4,-1
 61 283 l 2,5,6
 61 388 61 388 120 424.5 c 128,-1,7
 179 461 179 461 314 461 c 2,8,-1
 343 461 l 2,9,10
 477 461 477 461 536 424.5 c 128,-1,11
 595 388 595 388 595 283 c 2,12,-1
 595 178 l 2,13,14
 595 73 595 73 536 36.5 c 128,-1,15
 477 0 477 0 343 0 c 2,0,-1
314 72 m 2,16,-1
 343 72 l 2,17,18
 454 72 454 72 488.5 90.5 c 128,-1,19
 523 109 523 109 523 181 c 2,20,-1
 523 280 l 2,21,22
 523 352 523 352 488.5 370.5 c 128,-1,23
 454 389 454 389 343 389 c 2,24,-1
 314 389 l 2,25,26
 202 389 202 389 167.5 370.5 c 128,-1,27
 133 352 133 352 133 280 c 2,28,-1
 133 181 l 2,29,30
 133 109 133 109 167.5 90.5 c 128,-1,31
 202 72 202 72 314 72 c 2,16,-1
EndSplineSet
Validated: 1
EndChar

StartChar: p
Encoding: 112 112 81
Width: 670
Flags: HW
HStem: -182 21G<92 128> 0 72<147 506.76> 389 72<214.891 508.359>
VStem: 75 72<-179.528 0 72 323.406 411 465.847> 537 72<99.3184 359.402>
AnchorPoint: "top" 337 510 basechar 0
AnchorPoint: "bottom" 337 0 basechar 0
LayerCount: 2
Fore
SplineSet
537 280 m 2,0,1
 537 352 537 352 502.5 370.5 c 128,-1,2
 468 389 468 389 357 389 c 2,3,-1
 328 389 l 2,4,5
 226 389 226 389 186.5 346.5 c 128,-1,6
 147 304 147 304 147 232 c 2,7,-1
 147 72 l 1,8,-1
 360 72 l 2,9,10
 469 72 469 72 503 90.5 c 128,-1,11
 537 109 537 109 537 181 c 2,12,-1
 537 280 l 2,0,1
609 178 m 2,13,14
 609 73 609 73 550.5 36.5 c 128,-1,15
 492 0 492 0 360 0 c 2,16,-1
 147 0 l 1,17,-1
 147 -137 l 2,18,19
 147 -182 147 -182 109 -182 c 0,20,21
 75 -182 75 -182 75 -137 c 2,22,-1
 75 426 l 2,23,24
 75 468 75 468 111 468 c 128,-1,25
 147 468 147 468 147 423 c 2,26,-1
 147 411 l 1,27,28
 209 461 209 461 328 461 c 2,29,-1
 357 461 l 2,30,31
 491 461 491 461 550 424.5 c 128,-1,32
 609 388 609 388 609 283 c 2,33,-1
 609 178 l 2,13,14
EndSplineSet
Validated: 1
EndChar

StartChar: q
Encoding: 113 113 82
Width: 670
Flags: HW
HStem: -182 21G<554 578> 0 72<161.465 523> 389 72<161.729 450.798>
VStem: 61 72<101.598 359.402> 523 72<-171.684 0 72 321.386 411 465.847>
AnchorPoint: "top" 310 510 basechar 0
AnchorPoint: "bottom" 310 0 basechar 0
LayerCount: 2
Fore
SplineSet
133 280 m 2,0,-1
 133 181 l 2,1,2
 133 109 133 109 167.5 90.5 c 128,-1,3
 202 72 202 72 311 72 c 2,4,-1
 523 72 l 1,5,-1
 523 232 l 2,6,7
 523 389 523 389 343 389 c 2,8,-1
 314 389 l 2,9,10
 202 389 202 389 167.5 370.5 c 128,-1,11
 133 352 133 352 133 280 c 2,0,-1
61 178 m 2,12,-1
 61 283 l 2,13,14
 61 388 61 388 120 424.5 c 128,-1,15
 179 461 179 461 314 461 c 2,16,-1
 343 461 l 2,17,18
 463 461 463 461 523 411 c 1,19,-1
 523 423 l 2,20,21
 523 468 523 468 559 468 c 128,-1,22
 595 468 595 468 595 426 c 2,23,-1
 595 -137 l 2,24,25
 595 -182 595 -182 561 -182 c 0,26,27
 547 -182 547 -182 535 -172 c 128,-1,28
 523 -162 523 -162 523 -137 c 2,29,-1
 523 0 l 1,30,-1
 311 0 l 2,31,32
 179 0 179 0 120 36.5 c 128,-1,33
 61 73 61 73 61 178 c 2,12,-1
EndSplineSet
Validated: 1
EndChar

StartChar: r
Encoding: 114 114 83
Width: 406
Flags: HW
HStem: -7 21G<92 128> 389 72<209.062 385.847>
VStem: 74 72<-4.99023 325.188 411 465.312>
AnchorPoint: "top" 268 510 basechar 0
AnchorPoint: "bottom" 218 0 basechar 0
LayerCount: 2
Fore
SplineSet
297 389 m 2,0,1
 223 389 223 389 184.5 348 c 128,-1,2
 146 307 146 307 146 229 c 2,3,-1
 146 35 l 2,4,5
 146 -7 146 -7 110 -7 c 128,-1,6
 74 -7 74 -7 74 35 c 2,7,-1
 74 425 l 2,8,9
 74 468 74 468 108 468 c 0,10,11
 146 468 146 468 146 422 c 2,12,-1
 146 411 l 1,13,14
 206 461 206 461 297 461 c 2,15,-1
 343 461 l 2,16,17
 388 461 388 461 388 425 c 128,-1,18
 388 389 388 389 343 389 c 2,19,-1
 297 389 l 2,0,1
EndSplineSet
Validated: 1
EndChar

StartChar: s
Encoding: 115 115 84
Width: 625
Flags: HW
HStem: 0 72<141.286 485.064> 200 72<146.439 480.076> 389 72<138.891 482.714>
VStem: 60 72<83.3484 163.599 285.02 382.999> 494 72<79.0107 184.777 304.316 377.137>
AnchorPoint: "top" 314 510 basechar 0
AnchorPoint: "bottom" 304 0 basechar 0
LayerCount: 2
Fore
SplineSet
170 0 m 2,0,1
 105 0 105 0 82.5 33 c 128,-1,2
 60 66 60 66 60 116 c 128,-1,3
 60 166 60 166 96 166 c 0,4,5
 97 167 l 0,6,7
 132 167 132 167 132 124 c 0,8,9
 132 94 132 94 141 83 c 128,-1,10
 150 72 150 72 177 72 c 2,11,-1
 445 72 l 2,12,13
 494 72 494 72 494 132 c 0,14,15
 494 161 494 161 480.5 180.5 c 128,-1,16
 467 200 467 200 445 200 c 2,17,-1
 199 200 l 2,18,19
 127 200 127 200 93.5 237 c 128,-1,20
 60 274 60 274 60 335 c 128,-1,21
 60 396 60 396 97 428.5 c 128,-1,22
 134 461 134 461 229 461 c 2,23,-1
 454 461 l 2,24,25
 519 461 519 461 541.5 427.5 c 128,-1,26
 564 394 564 394 564 344 c 128,-1,27
 564 294 564 294 528 294 c 0,28,29
 514 294 514 294 503 304 c 128,-1,30
 492 314 492 314 492 340 c 128,-1,31
 492 366 492 366 483 377.5 c 128,-1,32
 474 389 474 389 447 389 c 2,33,-1
 181 389 l 2,34,35
 132 389 132 389 132 334 c 0,36,37
 132 304 132 304 146 288 c 128,-1,38
 160 272 160 272 181 272 c 2,39,-1
 428 272 l 2,40,41
 502 272 502 272 534 232 c 128,-1,42
 566 192 566 192 566 130 c 128,-1,43
 566 68 566 68 528.5 34 c 128,-1,44
 491 0 491 0 398 0 c 2,45,-1
 170 0 l 2,0,1
EndSplineSet
Validated: 1
EndChar

StartChar: t
Encoding: 116 116 85
Width: 373
Flags: HW
HStem: 0 72<179.666 345.528> 389 72<152 323.473>
VStem: 80 72<98.207 389 461 598.473>
AnchorPoint: "bottom" 264 0 basechar 0
AnchorPoint: "top" 227 510 basechar 0
LayerCount: 2
Fore
SplineSet
152 181 m 2,0,1
 152 110 152 110 183 91 c 128,-1,2
 214 72 214 72 303 72 c 0,3,4
 348 72 348 72 348 38 c 0,5,6
 348 0 348 0 303 0 c 0,7,8
 190 0 190 0 135 37.5 c 128,-1,9
 80 75 80 75 80 178 c 2,10,-1
 80 394 l 1,11,12
 49 399 49 399 49 427 c 128,-1,13
 49 455 49 455 80 460 c 1,14,-1
 80 555 l 2,15,16
 80 601 80 601 114 601 c 0,17,18
 152 601 152 601 152 555 c 2,19,-1
 152 461 l 1,20,-1
 280 461 l 2,21,22
 326 461 326 461 326 423 c 0,23,24
 326 389 326 389 280 389 c 2,25,-1
 152 389 l 1,26,-1
 152 181 l 2,0,1
EndSplineSet
Validated: 1
EndChar

StartChar: u
Encoding: 117 117 86
Width: 678
Flags: HW
HStem: 0 72<170.641 464.109> 448 20G<88 124 550 586>
VStem: 70 72<101.598 465.99> 532 72<-4.3125 50 140.406 465.99>
AnchorPoint: "top" 337 510 basechar 0
AnchorPoint: "bottom" 337 0 basechar 0
LayerCount: 2
Fore
SplineSet
351 72 m 2,0,1
 454 72 454 72 493 116.5 c 128,-1,2
 532 161 532 161 532 232 c 2,3,-1
 532 426 l 2,4,5
 532 468 532 468 568 468 c 128,-1,6
 604 468 604 468 604 426 c 2,7,-1
 604 36 l 2,8,9
 604 -7 604 -7 570 -7 c 0,10,11
 532 -7 532 -7 532 39 c 2,12,-1
 532 50 l 1,13,14
 470 0 470 0 351 0 c 2,15,-1
 322 0 l 2,16,17
 188 0 188 0 129 36.5 c 128,-1,18
 70 73 70 73 70 178 c 2,19,-1
 70 426 l 2,20,21
 70 468 70 468 106 468 c 128,-1,22
 142 468 142 468 142 426 c 2,23,-1
 142 181 l 2,24,25
 142 109 142 109 176.5 90.5 c 128,-1,26
 211 72 211 72 322 72 c 2,27,-1
 351 72 l 2,0,1
EndSplineSet
Validated: 1
EndChar

StartChar: v
Encoding: 118 118 87
Width: 533
Flags: HW
HStem: 0 21G<205.667 317.843>
VStem: 30 72<455 479.384> 432 72<456 480.092>
AnchorPoint: "top" 264 510 basechar 0
AnchorPoint: "bottom" 264 0 basechar 0
LayerCount: 2
Fore
SplineSet
214 0 m 1,0,-1
 34 432 l 2,1,2
 30 442 30 442 30 454 c 128,-1,3
 30 466 30 466 40.5 474.5 c 128,-1,4
 51 483 51 483 64 483 c 0,5,6
 88 483 88 483 102 455 c 1,7,-1
 264 76 l 1,8,-1
 432 456 l 2,9,10
 444 483 444 483 470 483 c 0,11,12
 504 483 504 483 504 450 c 0,13,14
 504 441 504 441 500 432 c 2,15,-1
 309 0 l 1,16,-1
 214 0 l 1,0,-1
EndSplineSet
Validated: 1
EndChar

StartChar: w
Encoding: 119 119 88
Width: 834
Flags: HW
HStem: 0 21G<177.019 284.966 539.712 649.406> 453 20G<49 79.5 403 433 755.5 786>
VStem: 731 72<445 469.973>
AnchorPoint: "top" 418 510 basechar 0
AnchorPoint: "bottom" 418 0 basechar 0
LayerCount: 2
Fore
SplineSet
799 424 m 2,0,-1
 642 0 l 1,1,-1
 547 0 l 1,2,-1
 418 354 l 1,3,-1
 277 0 l 1,4,-1
 184 0 l 1,5,-1
 36 424 l 2,6,7
 32 436 32 436 32 442 c 0,8,9
 32 473 32 473 66 473 c 0,10,11
 93 473 93 473 104 445 c 1,12,-1
 234 68 l 1,13,-1
 378 440 l 2,14,15
 388 467 388 467 418 467 c 128,-1,16
 448 467 448 467 458 440 c 2,17,-1
 596 68 l 1,18,-1
 731 445 l 2,19,20
 742 473 742 473 769 473 c 0,21,22
 803 473 803 473 803 442 c 0,23,24
 803 436 803 436 799 424 c 2,0,-1
EndSplineSet
Validated: 1
EndChar

StartChar: x
Encoding: 120 120 89
Width: 558
Flags: HW
HStem: 452 20G<73.5 90.5 468.25 484.75>
AnchorPoint: "top" 280 510 basechar 0
AnchorPoint: "bottom" 280 0 basechar 0
LayerCount: 2
Fore
SplineSet
503 50 m 2,0,1
 515 38 515 38 515 22.5 c 128,-1,2
 515 7 515 7 503.5 -2 c 128,-1,3
 492 -11 492 -11 476 -11 c 128,-1,4
 460 -11 460 -11 448 1 c 2,5,-1
 280 186 l 1,6,-1
 111 1 l 2,7,8
 99 -11 99 -11 82.5 -11 c 128,-1,9
 66 -11 66 -11 54.5 -2 c 128,-1,10
 43 7 43 7 43 22.5 c 128,-1,11
 43 38 43 38 55 50 c 2,12,-1
 226 230 l 1,13,-1
 55 411 l 2,14,15
 43 424 43 424 43 439 c 128,-1,16
 43 454 43 454 54 463 c 128,-1,17
 65 472 65 472 82 472 c 128,-1,18
 99 472 99 472 111 460 c 2,19,-1
 280 275 l 1,20,-1
 448 460 l 2,21,22
 460 472 460 472 476.5 472 c 128,-1,23
 493 472 493 472 504 463 c 128,-1,24
 515 454 515 454 515 439 c 128,-1,25
 515 424 515 424 503 411 c 2,26,-1
 332 230 l 1,27,-1
 503 50 l 2,0,1
EndSplineSet
Validated: 1
EndChar

StartChar: y
Encoding: 121 121 90
Width: 679
Flags: HW
HStem: -205 72<151.286 525.293> 0 72<170.641 458.564> 448 20G<88 124 550 586>
VStem: 70 72<-121.652 -40.3926 101.598 465.99> 532 72<-125.261 50 140.906 465.99>
AnchorPoint: "bottom" 337 0 basechar 0
AnchorPoint: "top" 337 510 basechar 0
LayerCount: 2
Fore
SplineSet
604 -77 m 2,0,1
 604 -146 604 -146 582.5 -175.5 c 128,-1,2
 561 -205 561 -205 503 -205 c 2,3,-1
 180 -205 l 2,4,5
 115 -205 115 -205 92.5 -171.5 c 128,-1,6
 70 -138 70 -138 70 -88 c 128,-1,7
 70 -38 70 -38 106 -38 c 128,-1,8
 142 -38 142 -38 142 -81 c 0,9,10
 142 -111 142 -111 151 -122 c 128,-1,11
 160 -133 160 -133 187 -133 c 2,12,-1
 496 -133 l 2,13,14
 519 -133 519 -133 525.5 -125.5 c 128,-1,15
 532 -118 532 -118 532 -93 c 2,16,-1
 532 50 l 1,17,18
 470 0 470 0 351 0 c 2,19,-1
 322 0 l 2,20,21
 188 0 188 0 129 36.5 c 128,-1,22
 70 73 70 73 70 178 c 2,23,-1
 70 426 l 2,24,25
 70 468 70 468 106 468 c 128,-1,26
 142 468 142 468 142 426 c 2,27,-1
 142 181 l 2,28,29
 142 109 142 109 176.5 90.5 c 128,-1,30
 211 72 211 72 322 72 c 2,31,-1
 351 72 l 2,32,33
 532 72 532 72 532 232 c 2,34,-1
 532 426 l 2,35,36
 532 468 532 468 568 468 c 128,-1,37
 604 468 604 468 604 426 c 2,38,-1
 604 -77 l 2,0,1
EndSplineSet
Validated: 1
EndChar

StartChar: z
Encoding: 122 122 91
Width: 594
Flags: HW
HStem: 0 72<162 461.745> 389 72<140.77 422>
VStem: 60 72<278.201 375.071> 470 72<87.4753 183.693>
AnchorPoint: "bottom" 292 0 basechar 0
AnchorPoint: "top" 292 510 basechar 0
LayerCount: 2
Fore
SplineSet
162 72 m 1,0,-1
 424 72 l 2,1,2
 454 72 454 72 462 87 c 128,-1,3
 470 102 470 102 470 144 c 128,-1,4
 470 186 470 186 505 186 c 0,5,-1
 506 186 l 0,6,7
 542 186 542 186 542 139 c 0,8,9
 542 65 542 65 518.5 32.5 c 128,-1,10
 495 0 495 0 432 0 c 2,11,-1
 60 0 l 1,12,-1
 60 74 l 1,13,-1
 422 389 l 1,14,-1
 177 389 l 2,15,16
 149 389 149 389 140.5 375.5 c 128,-1,17
 132 362 132 362 132 319 c 128,-1,18
 132 276 132 276 96 276 c 128,-1,19
 60 276 60 276 60 322 c 0,20,21
 60 397 60 397 83 429 c 128,-1,22
 106 461 106 461 170 461 c 2,23,-1
 521 461 l 1,24,-1
 521 384 l 1,25,-1
 162 72 l 1,0,-1
EndSplineSet
Validated: 1
EndChar

StartChar: braceleft
Encoding: 123 123 92
Width: 287
Flags: HW
HStem: -57 72<168.87 235> 621 72<168.87 235>
VStem: 85 72<25.3464 194.115 442.709 610.865> 113 72<142.793 271.329 362.986 493.538>
LayerCount: 2
Fore
SplineSet
40 327 m 1,0,1
 65 340 65 340 89 361.5 c 128,-1,2
 113 383 113 383 113 399 c 128,-1,3
 113 415 113 415 99 461.5 c 128,-1,4
 85 508 85 508 85 541.5 c 128,-1,5
 85 575 85 575 93.5 606.5 c 128,-1,6
 102 638 102 638 113.5 655 c 128,-1,7
 125 672 125 672 147.5 681 c 128,-1,8
 170 690 170 690 187.5 691.5 c 128,-1,9
 205 693 205 693 235 693 c 1,10,-1
 235 621 l 1,11,12
 180 621 180 621 168.5 608 c 128,-1,13
 157 595 157 595 157 528 c 0,14,15
 157 521 157 521 171 474 c 128,-1,16
 185 427 185 427 185 400 c 0,17,18
 185 360 185 360 123 317 c 1,19,20
 185 278 185 278 185 236 c 0,21,22
 185 209 185 209 171 163 c 128,-1,23
 157 117 157 117 157 108 c 0,24,25
 157 41 157 41 168.5 28 c 128,-1,26
 180 15 180 15 235 15 c 1,27,-1
 235 -57 l 1,28,29
 152 -56 152 -56 128 -34 c 0,30,31
 98 -6 98 -6 91.5 31.5 c 128,-1,32
 85 69 85 69 85 98.5 c 128,-1,33
 85 128 85 128 99 174.5 c 128,-1,34
 113 221 113 221 113 237 c 128,-1,35
 113 253 113 253 89.5 273 c 128,-1,36
 66 293 66 293 40 307 c 1,37,-1
 40 327 l 1,0,1
EndSplineSet
Validated: 8388609
EndChar

StartChar: bar
Encoding: 124 124 93
Width: 235
Flags: HW
HStem: -7 21G<99 135> 623 20G<99 135>
VStem: 81 72<-5.08594 641.038>
LayerCount: 2
Fore
SplineSet
153 33 m 2,0,1
 153 -7 153 -7 117 -7 c 128,-1,2
 81 -7 81 -7 81 33 c 2,3,-1
 81 602 l 2,4,5
 81 643 81 643 117 643 c 128,-1,6
 153 643 153 643 153 602 c 2,7,-1
 153 33 l 2,0,1
EndSplineSet
Validated: 1
EndChar

StartChar: braceright
Encoding: 125 125 94
Width: 287
Flags: HW
HStem: -57 72<52 118.13> 621 72<52 118.13>
VStem: 102 72<142.793 271.329 362.986 491.471> 130 72<24.9204 194.115 442.709 610.679>
LayerCount: 2
Fore
SplineSet
247 327 m 1,0,-1
 247 307 l 1,1,2
 221 293 221 293 197.5 273 c 128,-1,3
 174 253 174 253 174 237 c 128,-1,4
 174 221 174 221 188 174.5 c 128,-1,5
 202 128 202 128 202 98.5 c 128,-1,6
 202 69 202 69 197 40 c 128,-1,7
 192 11 192 11 181 -6.5 c 128,-1,8
 170 -24 170 -24 158.5 -34.5 c 128,-1,9
 147 -45 147 -45 127 -50 c 0,10,11
 99 -57 99 -57 52 -57 c 1,12,-1
 52 15 l 1,13,14
 107 15 107 15 118.5 28 c 128,-1,15
 130 41 130 41 130 108 c 0,16,17
 130 117 130 117 116 163 c 128,-1,18
 102 209 102 209 102 236 c 0,19,20
 102 278 102 278 164 317 c 1,21,22
 102 360 102 360 102 400 c 0,23,24
 102 427 102 427 116 474 c 128,-1,25
 130 521 130 521 130 528 c 0,26,27
 130 595 130 595 118.5 608 c 128,-1,28
 107 621 107 621 52 621 c 1,29,-1
 52 693 l 1,30,31
 82 693 82 693 99.5 691.5 c 128,-1,32
 117 690 117 690 139.5 681 c 128,-1,33
 162 672 162 672 174 655 c 0,34,35
 202 613 202 613 202 528 c 0,36,37
 202 508 202 508 188 461.5 c 128,-1,38
 174 415 174 415 174 399 c 128,-1,39
 174 383 174 383 198 361.5 c 128,-1,40
 222 340 222 340 247 327 c 1,0,-1
EndSplineSet
Validated: 8388609
EndChar

StartChar: asciitilde
Encoding: 126 126 95
Width: 438
Flags: HW
HStem: 167 77<213.992 299.407> 207 77<138.242 223.453>
VStem: 68 301.5
LayerCount: 2
Fore
SplineSet
171 205 m 2,0,1
 167 207 167 207 165 207 c 128,-1,2
 163 207 163 207 160 204 c 2,3,-1
 131 178 l 2,4,5
 120 167 120 167 106 167 c 128,-1,6
 92 167 92 167 80 176.5 c 128,-1,7
 68 186 68 186 68 203 c 128,-1,8
 68 220 68 220 86 235 c 2,9,-1
 131 273 l 2,10,11
 144 284 144 284 156 284 c 128,-1,12
 168 284 168 284 180 279 c 2,13,-1
 267 246 l 2,14,15
 270 244 270 244 272 244 c 128,-1,16
 274 244 274 244 277 247 c 2,17,-1
 307 273 l 1,18,19
 318 284 318 284 332 284 c 128,-1,20
 346 284 346 284 358 274 c 0,21,22
 370 266 370 266 369.5 248 c 128,-1,23
 369 230 369 230 351 216 c 1,24,-1
 307 178 l 1,25,26
 292 167 292 167 281 167 c 128,-1,27
 270 167 270 167 257 172 c 2,28,-1
 171 205 l 2,0,1
EndSplineSet
Validated: 8388609
EndChar

StartChar: exclamdown
Encoding: 161 161 96
Width: 247
Flags: HW
HStem: -180 21G<116 141.5> 399 102<73.5312 173.188>
VStem: 62 123<412.608 487.828> 88 72<-170.2 314.684>
LayerCount: 2
Fore
SplineSet
88 282 m 2,0,1
 88 305 88 305 99 315 c 128,-1,2
 110 325 110 325 124 325 c 128,-1,3
 138 325 138 325 149 315 c 128,-1,4
 160 305 160 305 160 282 c 2,5,-1
 160 -138 l 2,6,7
 160 -180 160 -180 123 -180 c 0,8,9
 109 -180 109 -180 98.5 -170.5 c 128,-1,10
 88 -161 88 -161 88 -138 c 2,11,-1
 88 282 l 2,0,1
123 399 m 128,-1,13
 103 399 103 399 82.5 413.5 c 128,-1,14
 62 428 62 428 62 450 c 128,-1,15
 62 472 62 472 82.5 486.5 c 128,-1,16
 103 501 103 501 124 501 c 128,-1,17
 145 501 145 501 165 486.5 c 128,-1,18
 185 472 185 472 185 450 c 128,-1,19
 185 428 185 428 164 413.5 c 128,-1,12
 143 399 143 399 123 399 c 128,-1,13
EndSplineSet
Validated: 8388609
EndChar

StartChar: cent
Encoding: 162 162 97
Width: 498
Flags: HW
HStem: 108 72<150.223 218 290 359.714> 458 72<153.031 218 290 359.715>
VStem: 49 72<208.056 427.042> 218 72<-12.1998 108 181 457 530 655.942> 369 72<190.833 272.583 365.782 447.682>
LayerCount: 2
Fore
SplineSet
218 108 m 1,0,1
 133 115 133 115 91 158 c 128,-1,2
 49 201 49 201 49 298 c 2,3,-1
 49 340 l 2,4,5
 49 436 49 436 92 479 c 128,-1,6
 135 522 135 522 218 529 c 1,7,-1
 218 615 l 2,8,9
 218 658 218 658 254 658 c 128,-1,10
 290 658 290 658 290 615 c 2,11,-1
 290 530 l 1,12,-1
 332 530 l 2,13,14
 397 530 397 530 419 497 c 128,-1,15
 441 464 441 464 441 414 c 128,-1,16
 441 364 441 364 405 363 c 0,17,18
 369 363 369 363 369 407 c 0,19,20
 369 438 369 438 360 448 c 128,-1,21
 351 458 351 458 325 458 c 2,22,-1
 290 458 l 1,23,-1
 290 180 l 1,24,-1
 323 180 l 2,25,26
 351 180 351 180 360 190.5 c 128,-1,27
 369 201 369 201 369 231 c 0,28,29
 369 275 369 275 405 275 c 128,-1,30
 441 275 441 275 441 225 c 128,-1,31
 441 175 441 175 418 141.5 c 128,-1,32
 395 108 395 108 330 108 c 2,33,-1
 290 108 l 1,34,-1
 290 20 l 2,35,36
 290 -22 290 -22 253 -22 c 0,37,38
 239 -22 239 -22 228.5 -12.5 c 128,-1,39
 218 -3 218 -3 218 20 c 2,40,-1
 218 108 l 1,0,1
218 181 m 1,41,-1
 218 457 l 1,42,43
 165 452 165 452 143 428 c 128,-1,44
 121 404 121 404 121 340 c 2,45,-1
 121 298 l 2,46,47
 121 233 121 233 142 209.5 c 128,-1,48
 163 186 163 186 218 181 c 1,41,-1
EndSplineSet
Validated: 1
EndChar

StartChar: sterling
Encoding: 163 163 98
Width: 520
Flags: HW
HStem: -15 72<139 460.942> 307 72<168 223.2> 586 72<210.197 373.955>
VStem: 389 72<468.316 570.962>
LayerCount: 2
Fore
SplineSet
104 468 m 2,0,1
 114 586 114 586 173 625 c 0,2,3
 223 658 223 658 298.5 658 c 128,-1,4
 374 658 374 658 417.5 624.5 c 128,-1,5
 461 591 461 591 461 501 c 0,6,7
 461 478 461 478 449.5 468 c 128,-1,8
 438 458 438 458 424 458 c 0,9,10
 389 458 389 458 389 501 c 0,11,12
 389 555 389 555 368 570.5 c 128,-1,13
 347 586 347 586 292 586 c 128,-1,14
 237 586 237 586 210 563.5 c 128,-1,15
 183 541 183 541 176 468 c 2,16,-1
 168 379 l 1,17,-1
 191 379 l 2,18,19
 214 379 214 379 223.5 367.5 c 128,-1,20
 233 356 233 356 233 342 c 128,-1,21
 233 328 233 328 223.5 317.5 c 128,-1,22
 214 307 214 307 191 307 c 2,23,-1
 163 307 l 1,24,-1
 139 57 l 1,25,-1
 420 57 l 2,26,27
 463 57 463 57 463 21 c 128,-1,28
 463 -15 463 -15 420 -15 c 2,29,-1
 97 -15 l 2,30,31
 65 -15 65 -15 65 25 c 0,32,33
 65 31 65 31 66 34 c 2,34,-1
 104 468 l 2,0,1
EndSplineSet
Validated: 1
EndChar

StartChar: currency
Encoding: 164 164 99
Width: 521
Flags: HW
HStem: 72 64<200.468 320.785> 325 64<200.468 320.785>
VStem: 102 64<170.458 290.542> 355 64<170.237 290.763>
LayerCount: 2
Fore
SplineSet
194 297 m 128,-1,1
 166 269 166 269 166 230.5 c 128,-1,2
 166 192 166 192 194 164 c 128,-1,3
 222 136 222 136 260.5 136 c 128,-1,4
 299 136 299 136 327 164 c 128,-1,5
 355 192 355 192 355 230.5 c 128,-1,6
 355 269 355 269 327 297 c 128,-1,7
 299 325 299 325 260.5 325 c 128,-1,0
 222 325 222 325 194 297 c 128,-1,1
85 354 m 1,8,9
 71 370 71 370 71 384 c 128,-1,10
 71 398 71 398 82.5 408.5 c 128,-1,11
 94 419 94 419 107 419 c 128,-1,12
 120 419 120 419 136 405 c 1,13,-1
 177 364 l 1,14,15
 216 389 216 389 261 389 c 128,-1,16
 306 389 306 389 344 365 c 1,17,-1
 384 405 l 2,18,19
 399 419 399 419 413 419 c 128,-1,20
 427 419 427 419 438.5 409.5 c 128,-1,21
 450 400 450 400 450 384 c 128,-1,22
 450 368 450 368 432 352 c 1,23,-1
 395 314 l 1,24,25
 419 276 419 276 419 230.5 c 128,-1,26
 419 185 419 185 395 147 c 1,27,-1
 434 108 l 2,28,29
 450 91 450 91 450 77.5 c 128,-1,30
 450 64 450 64 439 52.5 c 128,-1,31
 428 41 428 41 413.5 41 c 128,-1,32
 399 41 399 41 382 59 c 1,33,-1
 344 96 l 1,34,35
 306 72 306 72 261 72 c 128,-1,36
 216 72 216 72 177 97 c 1,37,-1
 138 59 l 1,38,39
 122 41 122 41 107 41 c 128,-1,40
 92 41 92 41 81.5 50.5 c 128,-1,41
 71 60 71 60 71 76 c 128,-1,42
 71 92 71 92 85 107 c 2,43,-1
 126 148 l 1,44,45
 102 182 102 182 102 230.5 c 128,-1,46
 102 279 102 279 126 313 c 1,47,-1
 85 354 l 1,8,9
EndSplineSet
Validated: 1
EndChar

StartChar: yen
Encoding: 165 165 100
Width: 560
Flags: HW
HStem: 126 72<115.01 245 316 432.684> 215 72<122.8 245 316 432.684>
VStem: 245 71<-12.1998 126 198 215 287 304>
LayerCount: 2
Fore
SplineSet
43 648 m 128,-1,1
 54 658 54 658 69 658 c 128,-1,2
 84 658 84 658 100 636 c 2,3,-1
 280 381 l 1,4,-1
 459 636 l 1,5,6
 473 658 473 658 489 658 c 128,-1,7
 505 658 505 658 516.5 648 c 128,-1,8
 528 638 528 638 528 624 c 128,-1,9
 528 610 528 610 518 595 c 2,10,-1
 316 304 l 1,11,-1
 316 287 l 1,12,-1
 400 287 l 2,13,14
 423 287 423 287 433 275.5 c 128,-1,15
 443 264 443 264 443 250.5 c 128,-1,16
 443 237 443 237 433 226 c 128,-1,17
 423 215 423 215 400 215 c 2,18,-1
 316 215 l 1,19,-1
 316 198 l 1,20,-1
 400 198 l 2,21,22
 423 198 423 198 433 186.5 c 128,-1,23
 443 175 443 175 443 161 c 0,24,25
 443 126 443 126 400 126 c 2,26,-1
 316 126 l 1,27,-1
 316 20 l 2,28,29
 316 -22 316 -22 280 -22 c 0,30,31
 266 -22 266 -22 255.5 -12.5 c 128,-1,32
 245 -3 245 -3 245 20 c 2,33,-1
 245 126 l 1,34,-1
 155 126 l 2,35,36
 113 126 113 126 113 162 c 128,-1,37
 113 198 113 198 155 198 c 2,38,-1
 245 198 l 1,39,-1
 245 215 l 1,40,-1
 155 215 l 2,41,42
 132 215 132 215 122.5 226.5 c 128,-1,43
 113 238 113 238 113 252 c 0,44,45
 113 287 113 287 155 287 c 2,46,-1
 245 287 l 1,47,-1
 245 304 l 1,48,-1
 42 595 l 1,49,50
 32 612 32 612 32 625 c 128,-1,0
 32 638 32 638 43 648 c 128,-1,1
EndSplineSet
Validated: 1
EndChar

StartChar: brokenbar
Encoding: 166 166 101
Width: 231
Flags: HW
VStem: 80 71<-11.6841 265.623 370.377 648.2>
LayerCount: 2
Back
SplineSet
151 401 m 2
 151 385.667 147.167 374.667 139.5 368 c 128
 131.833 361.333 123 358 113 358 c 128
 103 358 95 362 89 370 c 128
 83 378 80 388.333 80 401 c 2
 80 616 l 2
 80 644 92 658 116 658 c 0
 125.333 658 133.5 654.833 140.5 648.5 c 128
 147.5 642.162 151 631.328 151 616 c 2
 151 401 l 2
151 22 m 2
 151 -7.33333 138.667 -22 114 -22 c 0
 105.333 -22 97.5 -18.6667 90.5 -12 c 128
 83.5 -5.33333 80 6 80 22 c 2
 80 237 l 2
 80 264.333 91.8333 278 115.5 278 c 128
 139.167 278 151 265 151 239 c 2
 151 22 l 2
EndSplineSet
Fore
SplineSet
80 235 m 2,0,1
 80 258 80 258 91.5 268 c 128,-1,2
 103 278 103 278 118 278 c 128,-1,3
 133 278 133 278 142 266 c 128,-1,4
 151 254 151 254 151 235 c 2,5,-1
 151 22 l 2,6,7
 151 -22 151 -22 114 -22 c 0,8,9
 101 -22 101 -22 90.5 -12 c 128,-1,10
 80 -2 80 -2 80 22 c 2,11,-1
 80 235 l 2,0,1
151 401 m 2,12,13
 151 378 151 378 139.5 368 c 128,-1,14
 128 358 128 358 113 358 c 128,-1,15
 98 358 98 358 89 370 c 128,-1,16
 80 382 80 382 80 401 c 2,17,-1
 80 616 l 2,18,19
 80 658 80 658 116 658 c 0,20,21
 130 658 130 658 140.5 648.5 c 128,-1,22
 151 639 151 639 151 616 c 2,23,-1
 151 401 l 2,12,13
EndSplineSet
Validated: 1
EndChar

StartChar: section
Encoding: 167 167 102
Width: 539
Flags: HW
HStem: -15 72<150.645 385.294> 468 21G<420 446> 537 72<152.706 387.355>
VStem: 74 72<61.6442 114.654 268.215 351.307 437.896 530.729> 392 72<63.0137 156.104 242.387 326.457 479.346 532.356>
LayerCount: 2
Fore
SplineSet
349 -15 m 2,0,-1
 165 -15 l 2,1,2
 111 -15 111 -15 92.5 12.5 c 128,-1,3
 74 40 74 40 74 86 c 0,4,5
 74 104 74 104 84 115 c 128,-1,6
 94 126 94 126 110 126 c 128,-1,7
 126 126 126 126 136 115 c 128,-1,8
 146 104 146 104 146 85 c 128,-1,9
 146 66 146 66 150.5 61.5 c 128,-1,10
 155 57 155 57 176 57 c 2,11,-1
 360 57 l 2,12,13
 379 57 379 57 385.5 65.5 c 128,-1,14
 392 74 392 74 392 99 c 0,15,16
 392 155 392 155 361 159 c 2,17,-1
 186 184 l 1,18,19
 74 198 74 198 74 306 c 0,20,21
 74 371 74 371 111 400 c 1,22,23
 74 432 74 432 74 495 c 0,24,25
 74 609 74 609 189 609 c 2,26,-1
 374 609 l 2,27,28
 427 609 427 609 445.5 581.5 c 128,-1,29
 464 554 464 554 464 511 c 128,-1,30
 464 468 464 468 428 468 c 0,31,32
 412 468 412 468 402 479 c 128,-1,33
 392 490 392 490 392 509 c 128,-1,34
 392 528 392 528 387.5 532.5 c 128,-1,35
 383 537 383 537 362 537 c 2,36,-1
 178 537 l 2,37,38
 159 537 159 537 152.5 528 c 128,-1,39
 146 519 146 519 146 495 c 0,40,41
 146 439 146 439 177 435 c 2,42,-1
 352 410 l 1,43,44
 464 396 464 396 464 289 c 0,45,46
 464 221 464 221 427 194 c 1,47,48
 464 162 464 162 464 99 c 0,49,50
 464 -15 464 -15 349 -15 c 2,0,-1
157.5 350 m 128,-1,52
 146 342 146 342 146 307.5 c 128,-1,53
 146 273 146 273 193.5 254.5 c 128,-1,54
 241 236 241 236 305 236 c 128,-1,55
 369 236 369 236 380.5 244 c 128,-1,56
 392 252 392 252 392 288.5 c 128,-1,57
 392 325 392 325 339 341.5 c 128,-1,58
 286 358 286 358 227.5 358 c 128,-1,51
 169 358 169 358 157.5 350 c 128,-1,52
EndSplineSet
Validated: 1
EndChar

StartChar: dieresis
Encoding: 168 168 103
Width: 392
Flags: HW
HStem: 579 102<61.5312 160.469 231.531 330.469>
VStem: 50 122<592.172 667.828> 220 122<592.172 667.828>
LayerCount: 2
Fore
SplineSet
151.5 593.5 m 128,-1,1
 131 579 131 579 110 579 c 128,-1,2
 89 579 89 579 69.5 593.5 c 128,-1,3
 50 608 50 608 50 630 c 128,-1,4
 50 652 50 652 70.5 666.5 c 128,-1,5
 91 681 91 681 111 681 c 128,-1,6
 131 681 131 681 151.5 666.5 c 128,-1,7
 172 652 172 652 172 630 c 128,-1,0
 172 608 172 608 151.5 593.5 c 128,-1,1
321.5 593.5 m 128,-1,9
 301 579 301 579 280 579 c 128,-1,10
 259 579 259 579 239.5 593.5 c 128,-1,11
 220 608 220 608 220 630 c 128,-1,12
 220 652 220 652 240.5 666.5 c 128,-1,13
 261 681 261 681 281 681 c 128,-1,14
 301 681 301 681 321.5 666.5 c 128,-1,15
 342 652 342 652 342 630 c 128,-1,8
 342 608 342 608 321.5 593.5 c 128,-1,9
EndSplineSet
Validated: 1
EndChar

StartChar: copyright
Encoding: 169 169 104
Width: 630
Flags: HW
HStem: 72 72<180.022 450.107> 204 61<277.377 370.725> 370 61<277.377 364.968> 491 72<180.022 450.107>
VStem: 78 72<173.04 461.96> 205 60<274.283 360.717> 365 60<265.406 291.778 343.737 369> 480 72<173.04 461.96>
LayerCount: 2
Fore
SplineSet
301 144 m 2,0,-1
 330 144 l 2,1,2
 417 144 417 144 448.5 165 c 128,-1,3
 480 186 480 186 480 262 c 2,4,-1
 480 373 l 2,5,6
 480 449 480 449 448.5 470 c 128,-1,7
 417 491 417 491 330 491 c 2,8,-1
 301 491 l 2,9,10
 212 491 212 491 181 470 c 128,-1,11
 150 449 150 449 150 373 c 2,12,-1
 150 262 l 2,13,14
 150 186 150 186 181 165 c 128,-1,15
 212 144 212 144 301 144 c 2,0,-1
78 373 m 2,16,17
 78 485 78 485 133 524 c 128,-1,18
 188 563 188 563 301 563 c 2,19,-1
 330 563 l 2,20,21
 442 563 442 563 497 524 c 128,-1,22
 552 485 552 485 552 373 c 2,23,-1
 552 262 l 2,24,25
 552 150 552 150 497 111 c 128,-1,26
 442 72 442 72 330 72 c 2,27,-1
 301 72 l 2,28,29
 188 72 188 72 133 111 c 128,-1,30
 78 150 78 150 78 262 c 2,31,-1
 78 373 l 2,16,17
415.5 343.5 m 128,-1,33
 406 336 406 336 393 336 c 0,34,35
 368 336 368 336 366 359 c 2,36,-1
 365 369 l 2,37,38
 364 370 364 370 358 370 c 2,39,-1
 310 370 l 2,40,41
 289 370 289 370 277 361 c 128,-1,42
 265 352 265 352 265 337 c 2,43,-1
 265 298 l 2,44,45
 265 283 265 283 277 274 c 128,-1,46
 289 265 289 265 310 265 c 2,47,-1
 358 265 l 2,48,49
 365 265 365 265 365 266 c 0,50,51
 368 288 368 288 376 293.5 c 128,-1,52
 384 299 384 299 395 299 c 128,-1,53
 406 299 406 299 415.5 292 c 128,-1,54
 425 285 425 285 425 266 c 128,-1,55
 425 247 425 247 410.5 225.5 c 128,-1,56
 396 204 396 204 360 204 c 2,57,-1
 310 204 l 2,58,59
 266 204 266 204 235.5 228.5 c 128,-1,60
 205 253 205 253 205 298 c 2,61,-1
 205 337 l 2,62,63
 205 382 205 382 235.5 406.5 c 128,-1,64
 266 431 266 431 310 431 c 2,65,-1
 360 431 l 2,66,67
 394 431 394 431 409.5 409.5 c 128,-1,68
 425 388 425 388 425 369.5 c 128,-1,32
 425 351 425 351 415.5 343.5 c 128,-1,33
EndSplineSet
Validated: 1
EndChar

StartChar: ordfeminine
Encoding: 170 170 105
Width: 392
Flags: HW
HStem: 149 65<71.314 320.17> 234 61<147.509 236.583> 339 61<156.287 244> 415 61<147.064 243.452>
VStem: 86 61<295.059 335.019 389.984 415> 245 61<302.262 339 400 412.936>
LayerCount: 2
Fore
SplineSet
245 404 m 2,0,1
 245 411 245 411 243.5 413 c 128,-1,2
 242 415 242 415 235 415 c 2,3,-1
 156 415 l 2,4,5
 149 415 149 415 147 414 c 1,6,7
 147 403 147 403 137.5 396 c 128,-1,8
 128 389 128 389 116.5 389 c 128,-1,9
 105 389 105 389 95.5 396.5 c 128,-1,10
 86 404 86 404 86 416 c 0,11,12
 86 445 86 445 104 460.5 c 128,-1,13
 122 476 122 476 153 476 c 2,14,-1
 238 476 l 2,15,16
 272 476 272 476 289 454.5 c 128,-1,17
 306 433 306 433 306 397 c 2,18,-1
 306 258 l 2,19,20
 306 244 306 244 296 237.5 c 128,-1,21
 286 231 286 231 271 231 c 128,-1,22
 256 231 256 231 247 248 c 1,23,24
 227 234 227 234 193 234 c 2,25,-1
 156 234 l 2,26,27
 125 234 125 234 105.5 258 c 128,-1,28
 86 282 86 282 86 311 c 0,29,30
 86 361 86 361 115 380.5 c 128,-1,31
 144 400 144 400 198 400 c 2,32,-1
 245 400 l 1,33,-1
 245 404 l 2,0,1
293 214 m 2,34,35
 310 214 310 214 320.5 204.5 c 128,-1,36
 331 195 331 195 331 180.5 c 128,-1,37
 331 166 331 166 320.5 157.5 c 128,-1,38
 310 149 310 149 293 149 c 2,39,-1
 97 149 l 2,40,41
 78 149 78 149 69.5 159.5 c 128,-1,42
 61 170 61 170 61 182.5 c 128,-1,43
 61 195 61 195 71 204.5 c 128,-1,44
 81 214 81 214 97 214 c 2,45,-1
 293 214 l 2,34,35
156 333.5 m 128,-1,47
 147 328 147 328 147 312 c 128,-1,48
 147 296 147 296 156 295 c 1,49,-1
 193 295 l 2,50,51
 237 295 237 295 244 339 c 1,52,-1
 198 339 l 2,53,46
 165 339 165 339 156 333.5 c 128,-1,47
EndSplineSet
Validated: 1
EndChar

StartChar: guillemotleft
Encoding: 171 171 106
Width: 516
Flags: HW
VStem: 33 263 187 263
LayerCount: 2
Back
SplineSet
420 545 m 0x40
 429.335 545 436.668 542.167 442 536.5 c 128
 447.333 530.833 450 523.667 450 515 c 0
 450 501.667 444.667 489 434 477 c 1
 285 333 l 1
 434 188 l 2
 444.667 177.333 450 164.667 450 150 c 0
 450 140.666 447.333 133.333 442 128 c 128
 436.667 122.667 429.333 120 420 120 c 0
 406.667 120 397 123 391 129 c 2
 209 298 l 1
 194.333 310 187 321.667 187 333 c 0
 187 343 194.333 354 209 366 c 1
 391 535 l 2
 397.667 541.667 407.333 545 420 545 c 0x40
266 545 m 0x80
 275.334 545 282.668 542.167 288 536.5 c 128
 293.333 530.833 296 523.667 296 515 c 0
 296 501.667 290.667 489 280 477 c 1
 131 333 l 1
 280 188 l 2
 290.667 177.333 296 164.667 296 150 c 0
 296 140.666 293.333 133.333 288 128 c 128
 282.667 122.667 275.333 120 266 120 c 0
 252.667 120 243 123 237 129 c 2
 55 298 l 1
 40.3333 310 33 321.667 33 333 c 0
 33 343 40.3333 354 55 366 c 1
 237 535 l 2
 243.667 541.667 253.334 545 266 545 c 0x80
EndSplineSet
Fore
Refer: 643 8249 N 1 0 0 1 0 0 2
Refer: 643 8249 N 1 0 0 1 154 0 2
Validated: 1
EndChar

StartChar: logicalnot
Encoding: 172 172 107
Width: 543
Flags: HW
HStem: 194 73<88.7999 389>
VStem: 389 73<110.377 194>
LayerCount: 2
Fore
SplineSet
389 141 m 2,0,-1
 389 194 l 1,1,-1
 120 194 l 2,2,3
 79 194 79 194 79 231 c 0,4,5
 79 244 79 244 88.5 255.5 c 128,-1,6
 98 267 98 267 120 267 c 2,7,-1
 418 267 l 2,8,9
 462 267 462 267 462 225 c 2,10,-1
 462 141 l 2,11,12
 462 98 462 98 424 98 c 0,13,14
 408 98 408 98 398.5 110 c 128,-1,15
 389 122 389 122 389 141 c 2,0,-1
EndSplineSet
Validated: 1
EndChar

StartChar: uni00AD
Encoding: 173 173 108
Width: 476
Flags: HW
HStem: 194 73<82.7999 390.108>
VStem: 73 330<203.798 255.14>
LayerCount: 2
Fore
SplineSet
359 267 m 2,0,1
 403 267 403 267 403 229 c 0,2,3
 403 213 403 213 390.5 203.5 c 128,-1,4
 378 194 378 194 359 194 c 2,5,-1
 114 194 l 2,6,7
 73 194 73 194 73 231 c 0,8,9
 73 244 73 244 82.5 255.5 c 128,-1,10
 92 267 92 267 114 267 c 2,11,-1
 359 267 l 2,0,1
EndSplineSet
Validated: 1
EndChar

StartChar: registered
Encoding: 174 174 109
Width: 630
Flags: HW
HStem: 72 72<180.022 450.107> 288 61<262 344.939> 375 61<262 361.165> 491 72<180.022 450.107>
VStem: 78 72<173.04 461.96> 201 61<200.219 288 349 375> 372 61<194.482 259.193 351.602 372.341> 480 72<173.04 461.96>
LayerCount: 2
Fore
SplineSet
301 144 m 2,0,-1
 330 144 l 2,1,2
 417 144 417 144 448.5 165 c 128,-1,3
 480 186 480 186 480 262 c 2,4,-1
 480 373 l 2,5,6
 480 449 480 449 448.5 470 c 128,-1,7
 417 491 417 491 330 491 c 2,8,-1
 301 491 l 2,9,10
 212 491 212 491 181 470 c 128,-1,11
 150 449 150 449 150 373 c 2,12,-1
 150 262 l 2,13,14
 150 186 150 186 181 165 c 128,-1,15
 212 144 212 144 301 144 c 2,0,-1
78 373 m 2,16,17
 78 485 78 485 133 524 c 128,-1,18
 188 563 188 563 301 563 c 2,19,-1
 330 563 l 2,20,21
 442 563 442 563 497 524 c 128,-1,22
 552 485 552 485 552 373 c 2,23,-1
 552 262 l 2,24,25
 552 150 552 150 497 111 c 128,-1,26
 442 72 442 72 330 72 c 2,27,-1
 301 72 l 2,28,29
 188 72 188 72 133 111 c 128,-1,30
 78 150 78 150 78 262 c 2,31,-1
 78 373 l 2,16,17
407 193 m 0,32,33
 380 193 380 193 375 214 c 0,34,35
 372 225 372 225 356.5 250 c 128,-1,36
 341 275 341 275 320 288 c 1,37,-1
 262 288 l 1,38,-1
 262 217 l 2,39,40
 262 207 262 207 253.5 200 c 128,-1,41
 245 193 245 193 232 193 c 128,-1,42
 219 193 219 193 210 200 c 128,-1,43
 201 207 201 207 201 217 c 2,44,-1
 201 411 l 2,45,46
 201 423 201 423 211 429.5 c 128,-1,47
 221 436 221 436 230 436 c 2,48,-1
 314 436 l 2,49,50
 433 436 433 436 433 361 c 0,51,52
 433 318 433 318 392 297 c 1,53,54
 436 246 436 246 436 217 c 0,55,56
 436 207 436 207 427 200 c 128,-1,57
 418 193 418 193 407 193 c 0,32,33
314 349 m 2,58,59
 362 349 362 349 367 352.5 c 128,-1,60
 372 356 372 356 372 361 c 0,61,62
 372 370 372 370 361.5 372.5 c 128,-1,63
 351 375 351 375 314 375 c 2,64,-1
 262 375 l 1,65,-1
 262 349 l 1,66,-1
 314 349 l 2,58,59
EndSplineSet
Validated: 1
EndChar

StartChar: macron
Encoding: 175 175 110
Width: 429
Flags: HW
HStem: 663 73<59.7999 367.108>
VStem: 50 330<672.798 724.14>
LayerCount: 2
Fore
SplineSet
336 736 m 2,0,1
 380 736 380 736 380 698 c 0,2,3
 380 682 380 682 367.5 672.5 c 128,-1,4
 355 663 355 663 336 663 c 2,5,-1
 91 663 l 2,6,7
 50 663 50 663 50 700 c 0,8,9
 50 713 50 713 59.5 724.5 c 128,-1,10
 69 736 69 736 91 736 c 2,11,-1
 336 736 l 2,0,1
EndSplineSet
Validated: 1
EndChar

StartChar: degree
Encoding: 176 176 111
Width: 424
Flags: HW
HStem: 376 71<155.195 269.805> 622 71<155.195 269.805>
VStem: 54 71<477.195 591.805> 300 71<477.195 591.805>
LayerCount: 2
Fore
SplineSet
151 596 m 128,-1,1
 125 570 125 570 125 534.5 c 128,-1,2
 125 499 125 499 151 473 c 128,-1,3
 177 447 177 447 212.5 447 c 128,-1,4
 248 447 248 447 274 473 c 128,-1,5
 300 499 300 499 300 534.5 c 128,-1,6
 300 570 300 570 274 596 c 128,-1,7
 248 622 248 622 212.5 622 c 128,-1,0
 177 622 177 622 151 596 c 128,-1,1
324.5 422.5 m 128,-1,9
 278 376 278 376 212.5 376 c 128,-1,10
 147 376 147 376 100.5 422.5 c 128,-1,11
 54 469 54 469 54 534.5 c 128,-1,12
 54 600 54 600 100.5 646.5 c 128,-1,13
 147 693 147 693 212.5 693 c 128,-1,14
 278 693 278 693 324.5 646.5 c 128,-1,15
 371 600 371 600 371 534.5 c 128,-1,8
 371 469 371 469 324.5 422.5 c 128,-1,9
EndSplineSet
Validated: 1
EndChar

StartChar: plusminus
Encoding: 177 177 112
Width: 587
Flags: HW
HStem: -10 73<74.8915 512.108> 255 73<72.8304 257 329 512.108>
VStem: 257 72<103.01 255 328 480.942>
LayerCount: 2
Fore
SplineSet
103 -10 m 2,0,1
 87 -10 87 -10 74.5 -1 c 128,-1,2
 62 8 62 8 62 28 c 0,3,4
 62 63 62 63 103 63 c 2,5,-1
 481 63 l 2,6,7
 525 63 525 63 525 25 c 0,8,9
 525 9 525 9 512.5 -0.5 c 128,-1,10
 500 -10 500 -10 481 -10 c 2,11,-1
 103 -10 l 2,0,1
257 255 m 1,12,-1
 103 255 l 2,13,14
 83 255 83 255 72.5 266 c 128,-1,15
 62 277 62 277 62 293 c 0,16,17
 62 328 62 328 103 328 c 2,18,-1
 257 328 l 1,19,-1
 257 440 l 2,20,21
 257 483 257 483 293 483 c 128,-1,22
 329 483 329 483 329 440 c 2,23,-1
 329 328 l 1,24,-1
 481 328 l 2,25,26
 501 328 501 328 513 318 c 128,-1,27
 525 308 525 308 525 292 c 128,-1,28
 525 276 525 276 512.5 265.5 c 128,-1,29
 500 255 500 255 481 255 c 2,30,-1
 329 255 l 1,31,-1
 329 143 l 2,32,33
 329 101 329 101 293 101 c 128,-1,34
 257 101 257 101 257 143 c 2,35,-1
 257 255 l 1,12,-1
EndSplineSet
Validated: 1
EndChar

StartChar: twosuperior
Encoding: 178 178 113
Width: 355
Flags: HW
HStem: 446 63<120 302.864> 719 63<116.007 229.101>
VStem: 50 66<679.798 718.692> 242 63<656.174 712.808>
LayerCount: 2
Fore
SplineSet
268 446 m 2,0,-1
 50 446 l 1,1,-1
 50 483 l 2,2,3
 50 520 50 520 70 550 c 128,-1,4
 90 580 90 580 118 598 c 128,-1,5
 146 616 146 616 174 630 c 128,-1,6
 202 644 202 644 222 657 c 128,-1,7
 242 670 242 670 242 682 c 0,8,9
 242 707 242 707 229.5 713 c 128,-1,10
 217 719 217 719 170 719 c 2,11,-1
 144 719 l 2,12,13
 116 719 116 719 116 704 c 128,-1,14
 116 689 116 689 106.5 679.5 c 128,-1,15
 97 670 97 670 84.5 670 c 128,-1,16
 72 670 72 670 61 679 c 128,-1,17
 50 688 50 688 50 703 c 0,18,19
 50 738 50 738 77.5 760 c 128,-1,20
 105 782 105 782 140 782 c 2,21,-1
 170 782 l 2,22,23
 236 782 236 782 270.5 763 c 128,-1,24
 305 744 305 744 305 682 c 0,25,26
 305 681 305 681 305 680 c 0,27,28
 305 628 305 628 222 586 c 1,29,30
 133 543 133 543 120 509 c 1,31,-1
 268 509 l 1,32,33
 281 508 281 508 293 499 c 128,-1,34
 305 490 305 490 305 478 c 128,-1,35
 305 466 305 466 293 456 c 128,-1,36
 281 446 281 446 268 446 c 2,0,-1
EndSplineSet
Validated: 1
EndChar

StartChar: threesuperior
Encoding: 179 179 114
Width: 325
Flags: HW
HStem: 446 63<102.106 191.78> 586 63<117.799 203.978> 719 63<103.396 210.763>
VStem: 37 66<512.504 546.233 681.767 714.616> 218 62<510.883 568.732 662.186 714.883>
LayerCount: 2
Fore
SplineSet
205.5 713.5 m 128,-1,1
 193 719 193 719 168 719 c 0,2,3
 144 719 144 719 130 716 c 0,4,5
 104 710 104 710 103 701 c 0,6,7
 103 688 103 688 93.5 680.5 c 128,-1,8
 84 673 84 673 69.5 673 c 128,-1,9
 55 673 55 673 46 681.5 c 128,-1,10
 37 690 37 690 37 703 c 0,11,12
 37 732 37 732 69 757 c 128,-1,13
 101 782 101 782 149 782 c 0,14,15
 226 782 226 782 252 760 c 0,16,17
 280 736 280 736 280 684 c 0,18,19
 280 644 280 644 233 618 c 1,20,21
 280 585 280 585 280 540 c 0,22,23
 280 476 280 476 238 460 c 0,24,25
 205 446 205 446 153 446 c 128,-1,26
 101 446 101 446 69 471 c 128,-1,27
 37 496 37 496 37 525 c 0,28,29
 37 538 37 538 46 546.5 c 128,-1,30
 55 555 55 555 69.5 555 c 128,-1,31
 84 555 84 555 92 547 c 0,32,33
 102 537 102 537 103 525 c 1,34,35
 111 509 111 509 159 509 c 0,36,37
 167 509 167 509 173 509 c 0,38,39
 185 509 185 509 192 510 c 0,40,41
 218 514 218 514 218 541 c 0,42,43
 218 557 218 557 192 571.5 c 128,-1,44
 166 586 166 586 145 586 c 128,-1,45
 124 586 124 586 116 596.5 c 128,-1,46
 108 607 108 607 108 619 c 128,-1,47
 108 631 108 631 117.5 640 c 128,-1,48
 127 649 127 649 146.5 649 c 128,-1,49
 166 649 166 649 192 660 c 128,-1,50
 218 671 218 671 218 689.5 c 128,-1,0
 218 708 218 708 205.5 713.5 c 128,-1,1
EndSplineSet
Validated: 1
EndChar

StartChar: acute
Encoding: 180 180 115
Width: 212
Flags: HW
HStem: 495 198
VStem: 19 175
LayerCount: 2
Fore
SplineSet
87 514 m 2,0,1
 70 495 70 495 56 495 c 128,-1,2
 42 495 42 495 30.5 505 c 128,-1,3
 19 515 19 515 19 529.5 c 128,-1,4
 19 544 19 544 30 559 c 1,5,-1
 126 674 l 2,6,7
 143 693 143 693 158 693 c 128,-1,8
 173 693 173 693 183.5 683 c 128,-1,9
 194 673 194 673 194 657 c 128,-1,10
 194 641 194 641 183 629 c 2,11,-1
 87 514 l 2,0,1
EndSplineSet
Validated: 1
EndChar

StartChar: paragraph
Encoding: 182 182 117
Width: 506
Flags: HW
HStem: 579 72<314 345>
VStem: 35 279<397.074 577.498> 242 72<-12.1998 322> 345 72<-12.1998 579>
LayerCount: 2
Fore
SplineSet
345 579 m 1,0,-1
 314 579 l 1,1,-1
 314 20 l 2,2,3
 314 -3 314 -3 303.5 -12.5 c 128,-1,4
 293 -22 293 -22 279 -22 c 0,5,6
 242 -22 242 -22 242 20 c 2,7,-1
 242 322 l 1,8,-1
 215 322 l 2,9,10
 131 322 131 322 83 364.5 c 128,-1,11
 35 407 35 407 35 493 c 128,-1,12
 35 579 35 579 91.5 615 c 128,-1,13
 148 651 148 651 257 651 c 2,14,-1
 417 651 l 1,15,-1
 417 20 l 2,16,17
 417 -3 417 -3 406.5 -12.5 c 128,-1,18
 396 -22 396 -22 382 -22 c 0,19,20
 345 -22 345 -22 345 20 c 2,21,-1
 345 579 l 1,0,-1
EndSplineSet
Validated: 8388609
EndChar

StartChar: periodcentered
Encoding: 183 183 118
Width: 252
Flags: HW
HStem: 336 102<76.5312 175.469>
VStem: 65 122<349.172 424.828>
LayerCount: 2
Fore
SplineSet
166.5 350.5 m 128,-1,1
 146 336 146 336 125 336 c 128,-1,2
 104 336 104 336 84.5 350.5 c 128,-1,3
 65 365 65 365 65 387 c 128,-1,4
 65 409 65 409 85.5 423.5 c 128,-1,5
 106 438 106 438 126 438 c 128,-1,6
 146 438 146 438 166.5 423.5 c 128,-1,7
 187 409 187 409 187 387 c 128,-1,0
 187 365 187 365 166.5 350.5 c 128,-1,1
EndSplineSet
Validated: 1
EndChar

StartChar: cedilla
Encoding: 184 184 119
Width: 242
Flags: HW
HStem: -190 67<50.4465 149.78>
VStem: 81 72<-27.2021 10> 150 72<-122.164 -79.6045>
LayerCount: 2
Fore
SplineSet
153 5 m 2,0,1
 154 -16 154 -16 188 -36 c 0,2,3
 200 -44 200 -44 211 -60.5 c 128,-1,4
 222 -77 222 -77 222 -99 c 0,5,6
 222 -142 222 -142 190 -166 c 128,-1,7
 158 -190 158 -190 116 -190 c 0,8,9
 73 -190 73 -190 50 -171 c 128,-1,10
 27 -152 27 -152 27 -134 c 128,-1,11
 27 -116 27 -116 35 -109 c 128,-1,12
 43 -102 43 -102 54 -102 c 128,-1,13
 65 -102 65 -102 87 -112.5 c 128,-1,14
 109 -123 109 -123 119.5 -123 c 128,-1,15
 130 -123 130 -123 137 -121 c 0,16,17
 144 -120 144 -120 146 -114 c 0,18,19
 150 -106 150 -106 150 -98 c 0,20,21
 150 -95 150 -95 133 -83.5 c 128,-1,22
 116 -72 116 -72 98.5 -49 c 128,-1,23
 81 -26 81 -26 81 5 c 2,24,-1
 81 10 l 1,25,-1
 153 10 l 1,26,-1
 153 5 l 2,0,1
EndSplineSet
Validated: 8388609
EndChar

StartChar: onesuperior
Encoding: 185 185 120
Width: 182
Flags: HW
VStem: 59 64<444.093 679>
LayerCount: 2
Fore
SplineSet
59 679 m 1,0,1
 43 663 43 663 28 663 c 128,-1,2
 13 663 13 663 5 672 c 0,3,4
 -3 682 -3 682 -3 694 c 128,-1,5
 -3 706 -3 706 12 721 c 2,6,-1
 61 772 l 1,7,8
 76 785 76 785 88 785 c 128,-1,9
 100 785 100 785 111.5 776.5 c 128,-1,10
 123 768 123 768 123 751 c 2,11,-1
 123 480 l 2,12,13
 123 443 123 443 91 443 c 128,-1,14
 59 443 59 443 59 480 c 2,15,-1
 59 679 l 1,0,1
EndSplineSet
Validated: 8388609
EndChar

StartChar: ordmasculine
Encoding: 186 186 121
Width: 392
Flags: HW
HStem: 149 65<71.314 319.686> 234 61<154.224 237.775> 415 61<154.224 237.775>
VStem: 86 61<300.677 409.323> 245 61<300.677 409.323>
LayerCount: 2
Fore
SplineSet
191 295 m 2,0,-1
 200 295 l 2,1,2
 231 295 231 295 238 300.5 c 128,-1,3
 245 306 245 306 245 333 c 2,4,-1
 245 377 l 2,5,6
 245 404 245 404 238 409.5 c 128,-1,7
 231 415 231 415 200 415 c 2,8,-1
 191 415 l 2,9,10
 161 415 161 415 154 409.5 c 128,-1,11
 147 404 147 404 147 377 c 2,12,-1
 147 333 l 2,13,14
 147 306 147 306 154 300.5 c 128,-1,15
 161 295 161 295 191 295 c 2,0,-1
86 377 m 2,16,17
 86 434 86 434 110.5 455 c 128,-1,18
 135 476 135 476 191 476 c 2,19,-1
 200 476 l 2,20,21
 257 476 257 476 281.5 455 c 128,-1,22
 306 434 306 434 306 377 c 2,23,-1
 306 333 l 2,24,25
 306 276 306 276 281.5 255 c 128,-1,26
 257 234 257 234 200 234 c 2,27,-1
 191 234 l 2,28,29
 135 234 135 234 110.5 255 c 128,-1,30
 86 276 86 276 86 333 c 2,31,-1
 86 377 l 2,16,17
293 214 m 2,32,33
 310 214 310 214 320 204 c 128,-1,34
 330 194 330 194 330.5 180 c 128,-1,35
 331 166 331 166 320.5 157.5 c 128,-1,36
 310 149 310 149 293 149 c 2,37,-1
 97 149 l 2,38,39
 78 149 78 149 69.5 159.5 c 128,-1,40
 61 170 61 170 61 182 c 128,-1,41
 61 194 61 194 71 204 c 128,-1,42
 81 214 81 214 97 214 c 2,43,-1
 293 214 l 2,32,33
EndSplineSet
Validated: 1
EndChar

StartChar: guillemotright
Encoding: 187 187 122
Width: 516
Flags: HW
VStem: 66 263 220 263
LayerCount: 2
Back
SplineSet
250 545 m 0x40
 262.667 545 272.333 541.667 279 535 c 2
 461 366 l 1
 475.667 354 483 343 483 333 c 0
 483 321.667 475.667 310 461 298 c 1
 279 129 l 2
 273 123 263.333 120 250 120 c 0
 240.666 120 233.333 122.667 228 128 c 128
 222.667 133.333 220 140.667 220 150 c 0
 220 164.667 225.333 177.334 236 188 c 2
 385 333 l 1
 236 477 l 1
 225.333 489 220 501.667 220 515 c 0
 220 523.671 222.667 530.837 228 536.5 c 128
 233.333 542.167 240.667 545 250 545 c 0x40
96 545 m 0x80
 108.667 545 118.333 541.667 125 535 c 2
 307 366 l 1
 321.667 354 329 343 329 333 c 0
 329 321.667 321.667 310 307 298 c 1
 125 129 l 2
 119 123 109.333 120 96 120 c 0
 86.6667 120 79.3333 122.667 74 128 c 128
 68.6667 133.333 66 140.667 66 150 c 0
 66 164.667 71.3333 177.334 82 188 c 2
 231 333 l 1
 82 477 l 1
 71.3333 489 66 501.667 66 515 c 0
 66 523.671 68.6667 530.837 74 536.5 c 128
 79.3334 542.167 86.6667 545 96 545 c 0x80
EndSplineSet
Fore
Refer: 644 8250 N 1 0 0 1 0 0 2
Refer: 644 8250 N 1 0 0 1 154 0 2
Validated: 1
EndChar

StartChar: onequarter
Encoding: 188 188 123
Width: 602
Flags: HW
HStem: 85 63<367 425 489 557.937>
VStem: 150 64<310.093 545> 425 64<-17.907 85 148 226>
LayerCount: 2
Back
SplineSet
150 545 m 1x20
 139.333 534.333 128.667 529 118 529 c 0
 108.667 529 101.333 532 96 538 c 128
 90.6667 544 88 550.667 88 558 c 0x40
 88 567.333 93 577 103 587 c 2
 152 638 l 1
 162 646.667 171.667 651 181 651 c 0
 188.333 651 195.667 648.167 203 642.5 c 128
 210.333 636.833 214 628.333 214 617 c 2
 214 346 l 2
 214 321.333 203.333 309 182 309 c 128
 160.667 309 150 321.333 150 346 c 2
 150 545 l 1x20
103 77 m 2
 93 67.6667 82.6667 63 72 63 c 0
 64 63 57 65.3333 51 70 c 128
 45 74.6667 42 82.3333 42 93 c 128
 42 103.667 46.6667 114 56 124 c 2
 467 535 l 2
 477 544.333 487.333 549 498 549 c 0
 506 549 513 546.667 519 542 c 128
 525 537.333 528 529.667 528 519 c 128
 528 508.333 523.333 498 514 488 c 2
 103 77 l 2
457 -19 m 128x90
 435.667 -19 425 -6.66667 425 18 c 2
 425 85 l 1
 293 85 l 1
 293 151 l 1
 419 320 l 1
 489 320 l 1
 489 148 l 1
 523 148 l 2
 547 148 559 137.667 559 117 c 0
 559 95.6667 547 85 523 85 c 2
 489 85 l 1
 489 18 l 2
 489 -6.66667 478.333 -19 457 -19 c 128x90
425 148 m 1
 425 226 l 1
 367 148 l 1
 425 148 l 1
EndSplineSet
Fore
Refer: 646 8308 S 1 0 0 1 260 -462 2
Refer: 120 185 N 1 0 0 1 91 -134 2
Refer: 645 8260 N 1 0 0 1 173 0 2
Validated: 1
EndChar

StartChar: onehalf
Encoding: 189 189 124
Width: 631
Flags: HW
HStem: -16 63<393 575.864> 257 63<389.007 502.101>
VStem: 158 64<310.093 545> 323 66<217.798 256.692> 515 63<194.174 250.808>
LayerCount: 2
Back
SplineSet
100 77 m 2x00
 90 67.6667 79.6667 63 69 63 c 0
 61 63 54 65.3333 48 70 c 128
 42 74.6667 39 82.3333 39 93 c 128
 39 103.667 43.6667 114 53 124 c 2
 464 535 l 2
 474 544.333 484.333 549 495 549 c 0
 503 549 510 546.667 516 542 c 128
 522 537.333 525 529.667 525 519 c 128
 525 508.333 520.333 498 511 488 c 2
 100 77 l 2x00
541 -16 m 2xcc
 323 -16 l 1
 323 21 l 2
 323 45.6667 329.667 68 343 88 c 128
 356.333 108 372.333 124 391 136 c 128
 409.667 148 428.333 158.667 447 168 c 128
 465.667 177.333 481.667 186.333 495 195 c 128
 508.333 203.667 515 212 515 220 c 0
 515 236.667 510.833 247 502.5 251 c 128
 494.167 255 474.333 257 443 257 c 2
 417 257 l 2
 398.333 257 389 251.667 389 241 c 0
 389 231.666 385.833 223.833 379.5 217.5 c 128
 373.167 211.167 365.333 208 356 208 c 0
 348.667 208 341.333 211 334 217 c 128
 326.667 223 323 231 323 241 c 0
 323 264.333 332.167 283.333 350.5 298 c 128
 368.834 312.667 389.667 320 413 320 c 2
 443 320 l 2
 487 320 520.5 313.667 543.5 301 c 128
 566.5 288.333 578 261.333 578 220 c 0
 578 200 569.5 181.5 552.5 164.5 c 128
 535.5 147.5 516.333 133.833 495 123.5 c 128
 473.667 113.167 452.667 101.167 432 87.5 c 128
 411.333 73.8333 398.333 60.3333 393 47 c 1
 541 47 l 1
 549.667 46.3333 558 43 566 37 c 128
 574 31 578 23.6667 578 15 c 0
 578 7.66667 574 0.666667 566 -6 c 128
 558 -12.6667 549.667 -16 541 -16 c 2xcc
158 545 m 1x10
 147.333 534.333 136.667 529 126 529 c 0
 116.667 529 109.333 532 104 538 c 128
 98.6667 544 96 550.667 96 558 c 0x20
 96 567.333 101 577 111 587 c 2
 160 638 l 1
 170 646.667 179.667 651 189 651 c 0
 196.333 651 203.667 648.167 211 642.5 c 128
 218.333 636.833 222 628.333 222 617 c 2
 222 346 l 2
 222 321.333 211.333 309 190 309 c 128
 168.667 309 158 321.333 158 346 c 2
 158 545 l 1x10
EndSplineSet
Fore
Refer: 113 178 S 1 0 0 1 273 -462 2
Refer: 120 185 N 1 0 0 1 99 -134 2
Refer: 645 8260 N 1 0 0 1 170 0 2
Validated: 1
EndChar

StartChar: threequarters
Encoding: 190 190 125
Width: 650
Flags: HW
HStem: 85 63<413 471 535 603.937> 315 63<127.106 216.78> 455 63<142.799 228.978> 588 63<128.396 235.763>
VStem: 62 66<381.504 415.233 550.767 583.616> 243 62<379.883 437.732 531.186 583.883> 471 64<-17.907 85 148 226>
LayerCount: 2
Back
SplineSet
503 -19 m 128
 481.667 -19 471 -6.66667 471 18 c 2
 471 85 l 1
 339 85 l 1
 339 151 l 1
 465 320 l 1
 535 320 l 1
 535 148 l 1
 569 148 l 2
 593 148 605 137.667 605 117 c 0
 605 95.6667 593 85 569 85 c 2
 535 85 l 1
 535 18 l 2
 535 -6.66667 524.333 -19 503 -19 c 128
471 148 m 1
 471 226 l 1
 413 148 l 1
 471 148 l 1
154 77 m 2
 144 67.6667 133.667 63 123 63 c 0
 115 63 108 65.3333 102 70 c 128
 96 74.6667 93 82.3333 93 93 c 128
 93 103.667 97.6667 114 107 124 c 2
 518 535 l 2
 528 544.333 538.333 549 549 549 c 0
 557 549 564 546.667 570 542 c 128
 576 537.333 579 529.667 579 519 c 128
 579 508.333 574.333 498 565 488 c 2
 154 77 l 2
184 588 m 0
 173.333 588 163.5 587 154.5 585 c 128
 145.5 583 138.833 580.667 134.5 578 c 128
 130.167 575.333 128 572.667 128 570 c 0
 128 561.333 124.833 554.5 118.5 549.5 c 128
 112.167 544.5 104 542 94 542 c 0
 84.6667 542 77 544.833 71 550.5 c 128
 65 556.168 62 563.334 62 572 c 0
 62 591.333 72.6667 609.333 94 626 c 128
 115.333 642.667 142 651 174 651 c 0
 189.333 651 201.5 650.667 210.5 650 c 128
 219.5 649.333 230.833 647.333 244.5 644 c 128
 258.167 640.657 268.833 635.824 276.5 629.5 c 128
 284.167 623.167 290.833 613.5 296.5 600.5 c 128
 302.167 587.5 305 571.667 305 553 c 0
 305 526.333 289.333 504.333 258 487 c 1
 289.333 465 305 439 305 409 c 0
 305 387.667 301.5 370.333 294.5 357 c 128
 287.5 343.667 277 334.167 263 328.5 c 128
 249 322.828 235.667 319.162 223 317.5 c 128
 210.333 315.833 194 315 174 315 c 0
 142 315 115.333 323.333 94 340 c 128
 72.6667 356.667 62 374.667 62 394 c 0
 62 402.667 65 409.833 71 415.5 c 128
 77 421.167 84.6667 424 94 424 c 0
 104 424 111.833 421.333 117.5 416 c 128
 123.167 410.667 126.333 406.333 127 403 c 128
 127.667 399.667 128 396.667 128 394 c 1
 133.333 383.333 152 378 184 378 c 0
 199.333 378 210.333 378.5 217 379.5 c 128
 223.667 380.5 229.667 383.333 235 388 c 128
 240.333 392.667 243 400 243 410 c 0
 243 420.667 234.333 430.833 217 440.5 c 128
 199.667 450.167 182.667 455 166 455 c 0
 154.666 455 146.333 458.5 141 465.5 c 128
 135.667 472.5 133 479.667 133 487 c 0
 133 495.667 136.167 503 142.5 509 c 128
 148.833 515 156.667 518 166 518 c 0
 182.667 518 199.667 521.667 217 529 c 128
 234.333 536.333 243 545.333 243 556 c 0
 243 570 238.833 578.833 230.5 582.5 c 128
 222.167 586.167 206.667 588 184 588 c 0
EndSplineSet
Fore
Refer: 646 8308 N 1 0 0 1 306 -462 2
Refer: 114 179 N 1 0 0 1 25 -131 2
Refer: 645 8260 N 1 0 0 1 224 0 2
Validated: 1
EndChar

StartChar: questiondown
Encoding: 191 191 126
Width: 545
Flags: HW
HStem: -180 72<137.019 411.329> 399 102<239.325 339.469>
VStem: 36 72<-76.7168 67.1482> 228 123<412.172 487.828> 253 72<188 325.942> 439 73<-81.1099 38.6233>
LayerCount: 2
Fore
SplineSet
248 486.5 m 128,-1,1
 268 501 268 501 289 501 c 128,-1,2
 310 501 310 501 330.5 486.5 c 128,-1,3
 351 472 351 472 351 450 c 128,-1,4
 351 428 351 428 330.5 413.5 c 128,-1,5
 310 399 310 399 290 399 c 128,-1,6
 270 399 270 399 249 413 c 128,-1,7
 228 427 228 427 228 449.5 c 128,-1,0
 228 472 228 472 248 486.5 c 128,-1,1
325 285 m 2,8,-1
 325 133 l 1,9,-1
 160 88 l 2,10,11
 138 82 138 82 123 56 c 128,-1,12
 108 30 108 30 108 -6.5 c 128,-1,13
 108 -43 108 -43 129 -75.5 c 128,-1,14
 150 -108 150 -108 195 -108 c 2,15,-1
 289 -108 l 2,16,17
 379 -108 379 -108 409 -88 c 128,-1,18
 439 -68 439 -68 439 8 c 0,19,20
 439 27 439 27 449 39 c 128,-1,21
 459 51 459 51 474 51 c 128,-1,22
 489 51 489 51 500.5 41 c 128,-1,23
 512 31 512 31 512 8 c 0,24,25
 512 -108 512 -108 450 -146 c 0,26,27
 418 -166 418 -166 381 -173 c 128,-1,28
 344 -180 344 -180 289 -180 c 2,29,-1
 213 -180 l 2,30,31
 120 -180 120 -180 78 -128.5 c 128,-1,32
 36 -77 36 -77 36 -6 c 128,-1,33
 36 65 36 65 67 104.5 c 128,-1,34
 98 144 98 144 172 165 c 2,35,-1
 253 188 l 1,36,-1
 253 285 l 2,37,38
 253 328 253 328 289 328 c 128,-1,39
 325 328 325 328 325 285 c 2,8,-1
EndSplineSet
Validated: 8388609
EndChar

StartChar: Agrave
Encoding: 192 192 127
Width: 610
Flags: HW
HStem: 189 72<195 415> 616 20<256.087 353.913> 668 151
VStem: 24 73<-12.9854 12> 187 152 513 73<-12.9854 12>
LayerCount: 2
Back
SplineSet
346 636 m 1
 583 37 l 2
 585 31 586 24 586 18 c 0
 586 -9 560 -16 550 -16 c 0
 532 -16 518 -1 513 12 c 2
 444 189 l 1
 166 189 l 1
 97 12 l 2
 89 -6 75 -16 60 -16 c 0
 51 -16 24 -9 24 18 c 0
 24 24 25 31 27 37 c 2
 264 636 l 1
 346 636 l 1
195 261 m 1
 415 261 l 1
 304 532 l 1
 195 261 l 1
325 733 m 2
 333 724 339 715 339 702 c 0
 339 687 325 668 304 668 c 0
 292 668 281 674 271 685 c 2
 202 753 l 2
 194 762 187 771 187 784 c 0
 187 801 205 819 223 819 c 0
 229 819 240 817 255 803 c 2
 325 733 l 2
EndSplineSet
Fore
Refer: 327 768 N 1 0 0 1 572 178 2
Refer: 34 65 N 1 0 0 1 0 0 3
Validated: 1
EndChar

StartChar: Aacute
Encoding: 193 193 128
Width: 610
Flags: HW
HStem: 189 72<195 415> 616 20<256.087 353.913> 668 151
VStem: 24 73<-12.9854 12> 251 152 513 73<-12.9854 12>
LayerCount: 2
Back
SplineSet
346 636 m 1
 583 37 l 2
 585 31 586 24 586 18 c 0
 586 -9 560 -16 550 -16 c 0
 532 -16 518 -1 513 12 c 2
 444 189 l 1
 166 189 l 1
 97 12 l 2
 89 -6 75 -16 60 -16 c 0
 51 -16 24 -9 24 18 c 0
 24 24 25 31 27 37 c 2
 264 636 l 1
 346 636 l 1
195 261 m 1
 415 261 l 1
 304 532 l 1
 195 261 l 1
367 819 m 0
 385 819 403 801 403 784 c 0
 403 771 396 762 388 753 c 2
 319 685 l 2
 309 674 298 668 286 668 c 0
 265 668 251 687 251 702 c 0
 251 715 257 724 265 733 c 2
 335 803 l 2
 350 817 361 819 367 819 c 0
EndSplineSet
Fore
Refer: 328 769 S 1 0 0 1 636 178 2
Refer: 34 65 N 1 0 0 1 0 0 3
Validated: 1
EndChar

StartChar: Acircumflex
Encoding: 194 194 129
Width: 610
Flags: HW
HStem: 189 72<195 415> 616 20<256.087 353.913> 651 168
VStem: 24 73<-12.9854 12> 154 303<651 693> 513 73<-12.9854 12>
LayerCount: 2
Back
SplineSet
346 636 m 1
 583 37 l 2
 585 31 586 24 586 18 c 0
 586 -9 560 -16 550 -16 c 0
 532 -16 518 -1 513 12 c 2
 444 189 l 1
 166 189 l 1
 97 12 l 2
 89 -6 75 -16 60 -16 c 0
 51 -16 24 -9 24 18 c 0
 24 24 25 31 27 37 c 2
 264 636 l 1
 346 636 l 1
195 261 m 1
 415 261 l 1
 304 532 l 1
 195 261 l 1
162 703 m 2
 271 819 l 1
 338 819 l 1
 449 703 l 2
 453 698 457 686 457 679 c 0
 457 667 451 651 424 651 c 0
 404 651 397 662 389 669 c 2
 305 738 l 1
 222 669 l 2
 214 663 207 651 187 651 c 0
 160 651 154 667 154 679 c 0
 154 686 158 698 162 703 c 2
EndSplineSet
Fore
Refer: 329 770 S 1 0 0 1 607 141 2
Refer: 34 65 N 1 0 0 1 0 0 3
Validated: 1
EndChar

StartChar: Atilde
Encoding: 195 195 130
Width: 610
Flags: HW
HStem: 189 72<195 415> 616 20<256.087 353.913> 691 77<299.992 385.407> 731 77<224.242 309.453>
VStem: 24 73<-12.9854 12> 154 301.5 513 73<-12.9854 12>
LayerCount: 2
Back
SplineSet
346 636 m 1x94
 583 37 l 2
 585 31 586 24 586 18 c 0
 586 -9 560 -16 550 -16 c 0
 532 -16 518 -1 513 12 c 2
 444 189 l 1
 166 189 l 1
 97 12 l 2
 89 -6 75 -16 60 -16 c 0
 51 -16 24 -9 24 18 c 0
 24 24 25 31 27 37 c 2
 264 636 l 1
 346 636 l 1x94
195 261 m 1
 415 261 l 1
 304 532 l 1
 195 261 l 1
257 729 m 2x48
 255 730 252 731 251 731 c 0x28
 249 731 248 730 246 728 c 2
 217 702 l 2
 209 694 200 691 189 691 c 0x48
 174 691 154 704 154 725 c 0
 154 739 161 750 172 759 c 2
 217 797 l 2
 228 806 238 808 243 808 c 0x28
 248 808 258 806 266 803 c 2
 353 770 l 2
 355 769 357 768 359 768 c 0x48
 361 768 361 769 363 771 c 2
 393 797 l 2
 401 805 409 808 421 808 c 0x28
 435 808 455 795 455 774 c 0
 455 760 449 749 437 740 c 1
 393 702 l 1
 381 693 371 691 367 691 c 0
 361 691 351 693 343 696 c 2
 257 729 l 2x48
EndSplineSet
Fore
Refer: 330 771 S 1 0 0 1 582 212 2
Refer: 34 65 N 1 0 0 1 0 0 3
Validated: 1
EndChar

StartChar: Adieresis
Encoding: 196 196 131
Width: 610
Flags: HW
HStem: 189 72<195 415> 616 20<256.087 353.913> 706 102<170.531 269.469 340.531 439.469>
VStem: 24 73<-12.9854 12> 159 122<719.172 794.828> 329 122<719.172 794.828> 513 73<-12.9854 12>
LayerCount: 2
Back
SplineSet
346 636 m 1
 583 37 l 2
 585 31 586 24 586 18 c 0
 586 -9 560 -16 550 -16 c 0
 532 -16 518 -1 513 12 c 2
 444 189 l 1
 166 189 l 1
 97 12 l 2
 89 -6 75 -16 60 -16 c 0
 51 -16 24 -9 24 18 c 0
 24 24 25 31 27 37 c 2
 264 636 l 1
 346 636 l 1
195 261 m 1
 415 261 l 1
 304 532 l 1
 195 261 l 1
220 707 m 0
 193 707 159 727 159 758 c 0
 159 790 197 809 220 809 c 0
 244 809 281 789 281 758 c 0
 281 726 243 707 220 707 c 0
390 707 m 0
 363 707 329 727 329 758 c 0
 329 790 367 809 390 809 c 0
 414 809 451 789 451 758 c 0
 451 726 413 707 390 707 c 0
EndSplineSet
Fore
Refer: 103 168 N 1 0 0 1 109 127 2
Refer: 34 65 N 1 0 0 1 0 0 3
Validated: 1
EndChar

StartChar: Aring
Encoding: 197 197 132
Width: 610
Flags: HW
HStem: 189 72<195 415> 616 20<256.087 353.913> 645 54<278.422 331.578> 765 54<278.422 331.578>
VStem: 24 73<-12.9854 12> 218 54<705.164 758.836> 338 54<705.164 758.836> 513 73<-12.9854 12>
LayerCount: 2
Back
SplineSet
195 261 m 1
 415 261 l 1
 304 532 l 1
 195 261 l 1
346 636 m 1
 583 37 l 2
 585 31 586 24 586 18 c 0
 586 -9 560 -16 550 -16 c 0
 532 -16 518 -1 513 12 c 2
 444 189 l 1
 166 189 l 1
 97 12 l 2
 89 -6 75 -16 60 -16 c 0
 51 -16 24 -9 24 18 c 0
 24 24 25 31 27 37 c 2
 264 636 l 1
 346 636 l 1
305 819 m 0
 353 819 392 780 392 732 c 0
 392 684 353 645 305 645 c 0
 257 645 218 684 218 732 c 0
 218 780 257 819 305 819 c 0
272 732 m 0
 272 714 287 699 305 699 c 0
 323 699 338 714 338 732 c 0
 338 750 323 765 305 765 c 0
 287 765 272 750 272 732 c 0
EndSplineSet
Fore
Refer: 334 778 S 1 0 0 1 612 150 2
Refer: 34 65 N 1 0 0 1 0 0 3
Validated: 1
EndChar

StartChar: AE
Encoding: 198 198 133
Width: 904
Flags: HW
HStem: 0 72<482 854.583> 184 72<249 408> 317 72<482 737.363> 569 72<482 854.583>
VStem: 408 74<72 184 256 317 389 494>
AnchorPoint: "top" 439 678 basechar 0
AnchorPoint: "bottom" 439 0 basechar 0
LayerCount: 2
Fore
SplineSet
482 317 m 1,0,-1
 482 72 l 1,1,-1
 813 72 l 2,2,3
 857 72 857 72 857 34 c 0,4,5
 857 0 857 0 813 0 c 2,6,-1
 442 0 l 2,7,8
 408 0 408 0 408 44 c 2,9,-1
 408 184 l 1,10,-1
 201 184 l 1,11,-1
 81 11 l 2,12,13
 63 -16 63 -16 40 -16 c 0,14,15
 31 -16 31 -16 20.5 -9 c 128,-1,16
 10 -2 10 -2 10 12 c 128,-1,17
 10 26 10 26 20 39 c 2,18,-1
 414 627 l 2,19,20
 424 641 424 641 442 641 c 2,21,-1
 813 641 l 2,22,23
 857 641 857 641 857 603 c 0,24,25
 857 569 857 569 813 569 c 2,26,-1
 482 569 l 1,27,-1
 482 389 l 1,28,-1
 692 389 l 2,29,30
 740 389 740 389 740 351 c 0,31,32
 740 317 740 317 692 317 c 2,33,-1
 482 317 l 1,0,-1
408 494 m 1,34,-1
 249 256 l 1,35,-1
 408 256 l 1,36,-1
 408 494 l 1,34,-1
EndSplineSet
Validated: 1
EndChar

StartChar: Ccedilla
Encoding: 199 199 134
Width: 631
Flags: HW
HStem: -190 67<266.447 365.78> 0 72<173.836 297 369 493.714> 469 21G<532 557> 564 72<172.979 493.714>
VStem: 71 72<103.096 533.689> 366 72<-122.164 -79.4534> 503 72<83.3475 156.683 479.317 552.652>
LayerCount: 2
Fore
SplineSet
297 0 m 1,0,1
 178 2 178 2 124.5 41 c 128,-1,2
 71 80 71 80 71 184 c 2,3,-1
 71 452 l 2,4,5
 71 561 71 561 128 598.5 c 128,-1,6
 185 636 185 636 306 636 c 2,7,-1
 465 636 l 2,8,9
 530 636 530 636 552.5 602.5 c 128,-1,10
 575 569 575 569 575 519 c 128,-1,11
 575 469 575 469 539 469 c 0,12,13
 525 469 525 469 514 479 c 128,-1,14
 503 489 503 489 503 515.5 c 128,-1,15
 503 542 503 542 494 553 c 128,-1,16
 485 564 485 564 458 564 c 2,17,-1
 306 564 l 2,18,19
 209 564 209 564 176 544 c 128,-1,20
 143 524 143 524 143 450 c 2,21,-1
 143 186 l 2,22,23
 143 111 143 111 178 91.5 c 128,-1,24
 213 72 213 72 324 72 c 2,25,-1
 458 72 l 2,26,27
 485 72 485 72 494 83 c 128,-1,28
 503 94 503 94 503 120.5 c 128,-1,29
 503 147 503 147 514 157 c 128,-1,30
 525 167 525 167 539 167 c 0,31,32
 575 167 575 167 575 116.5 c 128,-1,33
 575 66 575 66 552.5 33 c 128,-1,34
 530 0 530 0 465 0 c 2,35,-1
 369 0 l 1,36,37
 371 -13 371 -13 388.5 -25 c 128,-1,38
 406 -37 406 -37 422 -54.5 c 128,-1,39
 438 -72 438 -72 438 -99 c 0,40,41
 438 -142 438 -142 406 -166 c 128,-1,42
 374 -190 374 -190 332 -190 c 0,43,44
 289 -190 289 -190 266 -171 c 128,-1,45
 243 -152 243 -152 243 -134 c 128,-1,46
 243 -116 243 -116 251 -109 c 128,-1,47
 259 -102 259 -102 270 -102 c 128,-1,48
 281 -102 281 -102 303 -112.5 c 128,-1,49
 325 -123 325 -123 335.5 -123 c 128,-1,50
 346 -123 346 -123 353 -121 c 0,51,52
 360 -120 360 -120 362 -114 c 0,53,54
 366 -106 366 -106 366 -98 c 0,55,56
 366 -94 366 -94 349.5 -83.5 c 128,-1,57
 333 -73 333 -73 315.5 -51 c 128,-1,58
 298 -29 298 -29 297 0 c 1,0,1
EndSplineSet
Validated: 1
EndChar

StartChar: Egrave
Encoding: 200 200 135
Width: 636
Flags: HW
HStem: 0 72<156 585.583> 322 72<156 468.253> 564 72<156 585.583> 668 151
VStem: 84 72<72 322 394 564> 214 152
LayerCount: 2
Back
SplineSet
156 322 m 1
 156 72 l 1
 544 72 l 2
 575 72 588 56 588 34 c 0
 588 7 569 0 544 0 c 2
 118 0 l 2
 98 0 84 12 84 44 c 2
 84 592 l 2
 84 630 104 636 118 636 c 2
 544 636 l 2
 575 636 588 620 588 598 c 0
 588 571 569 564 544 564 c 2
 156 564 l 1
 156 394 l 1
 421 394 l 2
 457 394 471 378 471 356 c 0
 471 329 449 322 421 322 c 2
 156 322 l 1
352 733 m 2
 360 724 366 715 366 702 c 0
 366 687 352 668 331 668 c 0
 319 668 308 674 298 685 c 2
 229 753 l 2
 221 762 214 771 214 784 c 0
 214 801 232 819 250 819 c 0
 256 819 267 817 282 803 c 2
 352 733 l 2
EndSplineSet
Fore
Refer: 327 768 N 1 0 0 1 599 178 2
Refer: 38 69 N 1 0 0 1 0 0 3
Validated: 1
EndChar

StartChar: Eacute
Encoding: 201 201 136
Width: 636
Flags: HW
HStem: 0 72<156 585.583> 322 72<156 468.253> 564 72<156 585.583> 668 151
VStem: 84 72<72 322 394 564> 265 152
LayerCount: 2
Back
SplineSet
156 322 m 1
 156 72 l 1
 544 72 l 2
 575 72 588 56 588 34 c 0
 588 7 569 0 544 0 c 2
 118 0 l 2
 98 0 84 12 84 44 c 2
 84 592 l 2
 84 630 104 636 118 636 c 2
 544 636 l 2
 575 636 588 620 588 598 c 0
 588 571 569 564 544 564 c 2
 156 564 l 1
 156 394 l 1
 421 394 l 2
 457 394 471 378 471 356 c 0
 471 329 449 322 421 322 c 2
 156 322 l 1
381 819 m 0
 399 819 417 801 417 784 c 0
 417 771 410 762 402 753 c 2
 333 685 l 2
 323 674 312 668 300 668 c 0
 279 668 265 687 265 702 c 0
 265 715 271 724 279 733 c 2
 349 803 l 2
 364 817 375 819 381 819 c 0
EndSplineSet
Fore
Refer: 328 769 N 1 0 0 1 650 178 2
Refer: 38 69 N 1 0 0 1 0 0 3
Validated: 1
EndChar

StartChar: Ecircumflex
Encoding: 202 202 137
Width: 636
Flags: HW
HStem: 0 72<156 585.583> 322 72<156 468.253> 564 72<156 585.583> 651 168
VStem: 84 72<72 322 394 564> 180 303<651 693>
LayerCount: 2
Back
SplineSet
156 322 m 1
 156 72 l 1
 544 72 l 2
 575 72 588 56 588 34 c 0
 588 7 569 0 544 0 c 2
 118 0 l 2
 98 0 84 12 84 44 c 2
 84 592 l 2
 84 630 104 636 118 636 c 2
 544 636 l 2
 575 636 588 620 588 598 c 0
 588 571 569 564 544 564 c 2
 156 564 l 1
 156 394 l 1
 421 394 l 2
 457 394 471 378 471 356 c 0
 471 329 449 322 421 322 c 2
 156 322 l 1
188 703 m 2
 297 819 l 1
 364 819 l 1
 475 703 l 2
 479 698 483 686 483 679 c 0
 483 667 477 651 450 651 c 0
 430 651 423 662 415 669 c 2
 331 738 l 1
 248 669 l 2
 240 663 233 651 213 651 c 0
 186 651 180 667 180 679 c 0
 180 686 184 698 188 703 c 2
EndSplineSet
Fore
Refer: 329 770 N 1 0 0 1 633 141 2
Refer: 38 69 N 1 0 0 1 0 0 3
Validated: 1
EndChar

StartChar: Edieresis
Encoding: 203 203 138
Width: 636
Flags: HW
HStem: 0 72<156 585.583> 322 72<156 468.253> 564 72<156 585.583> 706 102<196.531 295.469 366.531 465.469>
VStem: 84 72<72 322 394 564> 185 122<719.172 794.828> 355 122<719.172 794.828>
LayerCount: 2
Back
SplineSet
156 322 m 1
 156 72 l 1
 544 72 l 2
 575 72 588 56 588 34 c 0
 588 7 569 0 544 0 c 2
 118 0 l 2
 98 0 84 12 84 44 c 2
 84 592 l 2
 84 630 104 636 118 636 c 2
 544 636 l 2
 575 636 588 620 588 598 c 0
 588 571 569 564 544 564 c 2
 156 564 l 1
 156 394 l 1
 421 394 l 2
 457 394 471 378 471 356 c 0
 471 329 449 322 421 322 c 2
 156 322 l 1
246 706 m 0
 219 706 185 726 185 757 c 0
 185 789 223 808 246 808 c 0
 270 808 307 788 307 757 c 0
 307 725 269 706 246 706 c 0
416 706 m 0
 389 706 355 726 355 757 c 0
 355 789 393 808 416 808 c 0
 440 808 477 788 477 757 c 0
 477 725 439 706 416 706 c 0
EndSplineSet
Fore
Refer: 103 168 N 1 0 0 1 135 127 2
Refer: 38 69 N 1 0 0 1 0 0 3
Validated: 1
EndChar

StartChar: Igrave
Encoding: 204 204 139
Width: 240
Flags: HW
HStem: -7 21<102 138> 623 20<102 138> 668 151
VStem: 4 152 84 72<-5.08594 641.038>
LayerCount: 2
Back
SplineSet
156 33 m 2xc8
 156 14 148 -7 119 -7 c 0
 105 -7 84 0 84 33 c 2
 84 602 l 2
 84 636 106 643 120 643 c 0
 134 643 156 636 156 602 c 2
 156 33 l 2xc8
142 733 m 2x30
 150 724 156 715 156 702 c 0
 156 687 142 668 121 668 c 0
 109 668 98 674 88 685 c 2
 19 753 l 2
 11 762 4 771 4 784 c 0
 4 801 22 819 40 819 c 0
 46 819 57 817 72 803 c 2
 142 733 l 2x30
EndSplineSet
Fore
Refer: 327 768 N 1 0 0 1 389 178 2
Refer: 42 73 N 1 0 0 1 0 0 3
Validated: 1
EndChar

StartChar: Iacute
Encoding: 205 205 140
Width: 240
Flags: HW
HStem: -7 21<102 138> 623 20<102 138> 668 151
VStem: 84 72<-5.08594 641.038> 85 152
LayerCount: 2
Back
SplineSet
156 33 m 2xd0
 156 14 148 -7 119 -7 c 0
 105 -7 84 0 84 33 c 2
 84 602 l 2
 84 636 106 643 120 643 c 0
 134 643 156 636 156 602 c 2
 156 33 l 2xd0
201 819 m 0x28
 219 819 237 801 237 784 c 0
 237 771 230 762 222 753 c 2
 153 685 l 2
 143 674 132 668 120 668 c 0
 99 668 85 687 85 702 c 0
 85 715 91 724 99 733 c 2
 169 803 l 2
 184 817 195 819 201 819 c 0x28
EndSplineSet
Fore
Refer: 328 769 N 1 0 0 1 470 178 2
Refer: 42 73 N 1 0 0 1 0 0 3
Validated: 1
EndChar

StartChar: Icircumflex
Encoding: 206 206 141
Width: 240
Flags: HW
HStem: -7 21<102 138> 623 20<102 138> 651 168
VStem: -30 303<651 693> 84 72<-5.08594 641.038>
LayerCount: 2
Back
SplineSet
156 33 m 2xc8
 156 14 148 -7 119 -7 c 0
 105 -7 84 0 84 33 c 2
 84 602 l 2
 84 636 106 643 120 643 c 0
 134 643 156 636 156 602 c 2
 156 33 l 2xc8
-22 703 m 2x30
 87 819 l 1
 154 819 l 1
 265 703 l 2
 269 698 273 686 273 679 c 0
 273 667 267 651 240 651 c 0
 220 651 213 662 205 669 c 2
 121 738 l 1
 38 669 l 2
 30 663 23 651 3 651 c 0
 -24 651 -30 667 -30 679 c 0
 -30 686 -26 698 -22 703 c 2x30
EndSplineSet
Fore
Refer: 329 770 N 1 0 0 1 423 141 2
Refer: 42 73 N 1 0 0 1 0 0 3
Validated: 1
EndChar

StartChar: Idieresis
Encoding: 207 207 142
Width: 240
Flags: HW
HStem: -7 21<102 138> 623 20<102 138> 706 102<-14.4688 84.4688 155.531 254.469>
VStem: -26 122<719.172 794.828> 84 72<-5.08594 641.038> 144 122<719.172 794.828>
LayerCount: 2
Back
SplineSet
156 33 m 2xc8
 156 14 148 -7 119 -7 c 0
 105 -7 84 0 84 33 c 2
 84 602 l 2
 84 636 106 643 120 643 c 0
 134 643 156 636 156 602 c 2
 156 33 l 2xc8
35 706 m 0x34
 8 706 -26 726 -26 757 c 0
 -26 789 12 808 35 808 c 0
 59 808 96 788 96 757 c 0
 96 725 58 706 35 706 c 0x34
205 706 m 0
 178 706 144 726 144 757 c 0
 144 789 182 808 205 808 c 0
 229 808 266 788 266 757 c 0
 266 725 228 706 205 706 c 0
EndSplineSet
Fore
Refer: 103 168 N 1 0 0 1 -76 127 2
Refer: 42 73 N 1 0 0 1 0 0 3
Validated: 1
EndChar

StartChar: Eth
Encoding: 208 208 143
Width: 659
Flags: HW
HStem: 0 72<156 484.801> 288 73<51.8002 84 156 271.623> 564 72<156 485.035>
VStem: 84 72<72 288 361 564> 516 72<102.311 535.502>
LayerCount: 2
Fore
SplineSet
516 186 m 2,0,-1
 516 450 l 2,1,2
 516 524 516 524 483.5 544 c 128,-1,3
 451 564 451 564 354 564 c 2,4,-1
 156 564 l 1,5,-1
 156 361 l 1,6,-1
 240 361 l 2,7,8
 284 361 284 361 284 324 c 0,9,10
 284 308 284 308 272 298 c 128,-1,11
 260 288 260 288 240 288 c 2,12,-1
 156 288 l 1,13,-1
 156 72 l 1,14,-1
 336 72 l 2,15,16
 447 72 447 72 481.5 91.5 c 128,-1,17
 516 111 516 111 516 186 c 2,0,-1
588 452 m 2,18,-1
 588 184 l 2,19,20
 588 75 588 75 529 37.5 c 128,-1,21
 470 0 470 0 336 0 c 2,22,-1
 118 0 l 2,23,24
 84 0 84 0 84 44 c 2,25,-1
 84 288 l 1,26,27
 42 288 42 288 42 326 c 0,28,29
 42 340 42 340 51.5 350.5 c 128,-1,30
 61 361 61 361 84 361 c 1,31,-1
 84 592 l 2,32,33
 84 636 84 636 118 636 c 2,34,-1
 354 636 l 2,35,36
 475 636 475 636 531.5 598 c 128,-1,37
 588 560 588 560 588 452 c 2,18,-1
EndSplineSet
Validated: 1
EndChar

StartChar: Ntilde
Encoding: 209 209 144
Width: 672
Flags: HW
HStem: -7 21<102 138 541.5 570.5> 623 20<101 129 534 570> 691 77<329.992 415.407> 731 77<254.242 339.453>
VStem: 84 72<-4.99023 517> 184 301.5 516 72<118 640.799>
LayerCount: 2
Back
SplineSet
553 -7 m 0xca
 540 -7 528 -4 525 0 c 2
 156 517 l 1
 156 32 l 2
 156 11 149 -7 120 -7 c 0
 107 -7 84 -2 84 35 c 2
 84 600 l 2
 84 637 104 643 118 643 c 0
 133 643 145 636 156 620 c 2
 516 118 l 1
 516 597 l 2
 516 636 537 643 551 643 c 0
 572 643 588 632 588 600 c 2
 588 35 l 2
 588 14 581 -7 553 -7 c 0xca
287 729 m 2x24
 285 730 282 731 281 731 c 0x14
 279 731 278 730 276 728 c 2
 247 702 l 2
 239 694 230 691 219 691 c 0x24
 204 691 184 704 184 725 c 0
 184 739 191 750 202 759 c 2
 247 797 l 2
 258 806 268 808 273 808 c 0x14
 278 808 288 806 296 803 c 2
 383 770 l 2
 385 769 387 768 389 768 c 0x24
 391 768 391 769 393 771 c 2
 423 797 l 2
 431 805 439 808 451 808 c 0x14
 465 808 485 795 485 774 c 0
 485 760 479 749 467 740 c 1
 423 702 l 1
 411 693 401 691 397 691 c 0
 391 691 381 693 373 696 c 2
 287 729 l 2x24
EndSplineSet
Fore
Refer: 330 771 N 1 0 0 1 612 212 2
Refer: 47 78 N 1 0 0 1 0 0 3
Validated: 1
EndChar

StartChar: Ograve
Encoding: 210 210 145
Width: 632
Flags: HW
HStem: -9 72<213.07 418.493> 573 72<212.737 418.825> 668 151
VStem: 64 72<138.458 497.542> 199 152 496 72<139.056 496.944>
LayerCount: 2
Back
SplineSet
316 -9 m 0
 167 -9 64 79 64 230 c 2
 64 406 l 2
 64 557 167 645 316 645 c 0
 464 645 568 557 568 406 c 2
 568 230 l 2
 568 79 464 -9 316 -9 c 0
316 573 m 0
 195 573 136 509 136 403 c 2
 136 233 l 2
 136 125 197 63 316 63 c 0
 435 63 496 125 496 233 c 2
 496 403 l 2
 496 509 437 573 316 573 c 0
337 733 m 2
 345 724 351 715 351 702 c 0
 351 687 337 668 316 668 c 0
 304 668 293 674 283 685 c 2
 214 753 l 2
 206 762 199 771 199 784 c 0
 199 801 217 819 235 819 c 0
 241 819 252 817 267 803 c 2
 337 733 l 2
EndSplineSet
Fore
Refer: 327 768 N 1 0 0 1 584 178 2
Refer: 48 79 N 1 0 0 1 0 0 3
Validated: 1
EndChar

StartChar: Oacute
Encoding: 211 211 146
Width: 632
Flags: HW
HStem: -9 72<213.07 418.493> 573 72<212.737 418.825> 668 151
VStem: 64 72<138.458 497.542> 280 152 496 72<139.056 496.944>
LayerCount: 2
Back
SplineSet
316 -9 m 0
 167 -9 64 79 64 230 c 2
 64 406 l 2
 64 557 167 645 316 645 c 0
 464 645 568 557 568 406 c 2
 568 230 l 2
 568 79 464 -9 316 -9 c 0
316 573 m 0
 195 573 136 509 136 403 c 2
 136 233 l 2
 136 125 197 63 316 63 c 0
 435 63 496 125 496 233 c 2
 496 403 l 2
 496 509 437 573 316 573 c 0
396 819 m 0
 414 819 432 801 432 784 c 0
 432 771 425 762 417 753 c 2
 348 685 l 2
 338 674 327 668 315 668 c 0
 294 668 280 687 280 702 c 0
 280 715 286 724 294 733 c 2
 364 803 l 2
 379 817 390 819 396 819 c 0
EndSplineSet
Fore
Refer: 328 769 N 1 0 0 1 665 178 2
Refer: 48 79 N 1 0 0 1 0 0 3
Validated: 1
EndChar

StartChar: Ocircumflex
Encoding: 212 212 147
Width: 632
Flags: HW
HStem: -9 72<213.07 418.493> 573 72<212.737 418.825> 651 168
VStem: 64 72<138.458 497.542> 165 303<651 693> 496 72<139.056 496.944>
LayerCount: 2
Back
SplineSet
316 -9 m 0
 167 -9 64 79 64 230 c 2
 64 406 l 2
 64 557 167 645 316 645 c 0
 464 645 568 557 568 406 c 2
 568 230 l 2
 568 79 464 -9 316 -9 c 0
316 573 m 0
 195 573 136 509 136 403 c 2
 136 233 l 2
 136 125 197 63 316 63 c 0
 435 63 496 125 496 233 c 2
 496 403 l 2
 496 509 437 573 316 573 c 0
173 703 m 2
 282 819 l 1
 349 819 l 1
 460 703 l 2
 464 698 468 686 468 679 c 0
 468 667 462 651 435 651 c 0
 415 651 408 662 400 669 c 2
 316 738 l 1
 233 669 l 2
 225 663 218 651 198 651 c 0
 171 651 165 667 165 679 c 0
 165 686 169 698 173 703 c 2
EndSplineSet
Fore
Refer: 329 770 S 1 0 0 1 618 141 2
Refer: 48 79 N 1 0 0 1 0 0 3
Validated: 1
EndChar

StartChar: Otilde
Encoding: 213 213 148
Width: 632
Flags: HW
HStem: -9 72<213.07 418.493> 573 72<212.737 418.825> 691 77<310.992 396.407> 731 77<235.242 320.453>
VStem: 64 72<138.458 497.542> 165 301.5 496 72<139.056 496.944>
LayerCount: 2
Back
SplineSet
316 -9 m 0xca
 167 -9 64 79 64 230 c 2
 64 406 l 2
 64 557 167 645 316 645 c 0
 464 645 568 557 568 406 c 2
 568 230 l 2
 568 79 464 -9 316 -9 c 0xca
316 573 m 0
 195 573 136 509 136 403 c 2
 136 233 l 2
 136 125 197 63 316 63 c 0
 435 63 496 125 496 233 c 2
 496 403 l 2
 496 509 437 573 316 573 c 0
268 729 m 2x24
 266 730 263 731 262 731 c 0x14
 260 731 259 730 257 728 c 2
 228 702 l 2
 220 694 211 691 200 691 c 0x24
 185 691 165 704 165 725 c 0
 165 739 172 750 183 759 c 2
 228 797 l 2
 239 806 249 808 254 808 c 0x14
 259 808 269 806 277 803 c 2
 364 770 l 2
 366 769 368 768 370 768 c 0x24
 372 768 372 769 374 771 c 2
 404 797 l 2
 412 805 420 808 432 808 c 0x14
 446 808 466 795 466 774 c 0
 466 760 460 749 448 740 c 1
 404 702 l 1
 392 693 382 691 378 691 c 0
 372 691 362 693 354 696 c 2
 268 729 l 2x24
EndSplineSet
Fore
Refer: 330 771 S 1 0 0 1 593 212 2
Refer: 48 79 N 1 0 0 1 0 0 3
Validated: 1
EndChar

StartChar: Odieresis
Encoding: 214 214 149
Width: 632
Flags: HW
HStem: -9 72<213.07 418.493> 573 72<212.737 418.825> 706 102<181.531 280.469 351.531 450.469>
VStem: 64 72<138.458 497.542> 170 122<719.172 794.828> 340 122<719.172 794.828> 496 72<139.056 496.944>
LayerCount: 2
Back
SplineSet
316 -9 m 0
 167 -9 64 79 64 230 c 2
 64 406 l 2
 64 557 167 645 316 645 c 0
 464 645 568 557 568 406 c 2
 568 230 l 2
 568 79 464 -9 316 -9 c 0
316 573 m 0
 195 573 136 509 136 403 c 2
 136 233 l 2
 136 125 197 63 316 63 c 0
 435 63 496 125 496 233 c 2
 496 403 l 2
 496 509 437 573 316 573 c 0
231 706 m 0
 204 706 170 726 170 757 c 0
 170 789 208 808 231 808 c 0
 255 808 292 788 292 757 c 0
 292 725 254 706 231 706 c 0
401 706 m 0
 374 706 340 726 340 757 c 0
 340 789 378 808 401 808 c 0
 425 808 462 788 462 757 c 0
 462 725 424 706 401 706 c 0
EndSplineSet
Fore
Refer: 103 168 N 1 0 0 1 120 127 2
Refer: 48 79 N 1 0 0 1 0 0 3
Validated: 1
EndChar

StartChar: multiply
Encoding: 215 215 150
Width: 510
Flags: W
LayerCount: 2
Fore
SplineSet
84 351 m 1,0,1
 69 364 69 364 69 380 c 128,-1,2
 69 396 69 396 80 406.5 c 128,-1,3
 91 417 91 417 105.5 417 c 128,-1,4
 120 417 120 417 135 402 c 2,5,-1
 255 282 l 1,6,-1
 376 403 l 2,7,8
 391 417 391 417 406 417 c 128,-1,9
 421 417 421 417 431 405.5 c 128,-1,10
 441 394 441 394 441 379.5 c 128,-1,11
 441 365 441 365 427 351 c 2,12,-1
 306 230 l 1,13,-1
 427 109 l 1,14,15
 441 97 441 97 441 81.5 c 128,-1,16
 441 66 441 66 429.5 54 c 128,-1,17
 418 42 418 42 406 42 c 128,-1,18
 394 42 394 42 376 58 c 1,19,-1
 255 179 l 1,20,-1
 134 58 l 2,21,22
 121 45 121 45 105.5 45 c 128,-1,23
 90 45 90 45 79.5 55.5 c 128,-1,24
 69 66 69 66 69 81 c 128,-1,25
 69 96 69 96 83 109 c 2,26,-1
 204 230 l 1,27,-1
 84 351 l 1,0,1
EndSplineSet
Validated: 1
EndChar

StartChar: Oslash
Encoding: 216 216 151
Width: 632
Flags: HW
HStem: -9 72<212.62 419.776> 573 72<211.598 418.947>
VStem: 64 72<157.896 497.542> 496 72<139.056 477.997>
AnchorPoint: "bottom" 316 0 basechar 0
AnchorPoint: "top" 316 678 basechar 0
LayerCount: 2
Fore
SplineSet
438 539 m 1,0,1
 393 573 393 573 310 573 c 128,-1,2
 227 573 227 573 181.5 528.5 c 128,-1,3
 136 484 136 484 136 403 c 2,4,-1
 136 233 l 2,5,6
 136 188 136 188 149 156 c 1,7,-1
 438 539 l 1,0,1
505 627 m 2,8,9
 519 646 519 646 534.5 646 c 128,-1,10
 550 646 550 646 561.5 635.5 c 128,-1,11
 573 625 573 625 573 611.5 c 128,-1,12
 573 598 573 598 562 584 c 2,13,-1
 531 543 l 1,14,15
 568 486 568 486 568 406 c 2,16,-1
 568 230 l 2,17,18
 568 119 568 119 498.5 55 c 128,-1,19
 429 -9 429 -9 324 -9 c 128,-1,20
 219 -9 219 -9 152 39 c 1,21,-1
 127 6 l 2,22,23
 113 -12 113 -12 98 -12 c 128,-1,24
 83 -12 83 -12 71 -2 c 128,-1,25
 59 8 59 8 59 23 c 128,-1,26
 59 38 59 38 69 50 c 2,27,-1
 101 93 l 1,28,29
 64 150 64 150 64 230 c 2,30,-1
 64 406 l 2,31,32
 64 518 64 518 133 581.5 c 128,-1,33
 202 645 202 645 308.5 645 c 128,-1,34
 415 645 415 645 481 596 c 1,35,-1
 505 627 l 2,8,9
483 479 m 1,36,-1
 195 96 l 1,37,38
 238 63 238 63 321 63 c 128,-1,39
 404 63 404 63 450 107 c 128,-1,40
 496 151 496 151 496 233 c 2,41,-1
 496 403 l 2,42,43
 496 447 496 447 483 479 c 1,36,-1
EndSplineSet
Validated: 1
EndChar

StartChar: Ugrave
Encoding: 217 217 152
Width: 658
Flags: HW
HStem: -9 72<225.695 431.43> 621 198 623 20<95 120 527 563>
VStem: 77 72<138.458 633.2> 213 175 509 72<139.056 641.038>
LayerCount: 2
Back
SplineSet
509 603 m 2xb4
 509 635 530 643 546 643 c 0
 560 643 581 636 581 602 c 2
 581 230 l 2
 581 79 477 -9 329 -9 c 0
 180 -9 77 79 77 230 c 2
 77 602 l 2
 77 636 99 643 113 643 c 0
 129 643 149 634 149 603 c 2
 149 233 l 2
 149 125 210 63 329 63 c 0
 448 63 509 125 509 233 c 2
 509 603 l 2xb4
377 685 m 2x48
 383 677 388 667 388 656 c 0
 388 635 369 621 353 621 c 0
 341 621 331 628 320 640 c 2
 224 755 l 2
 216 764 213 774 213 783 c 0
 213 805 231 819 248 819 c 0
 260 819 270 812 281 800 c 2
 377 685 l 2x48
EndSplineSet
Fore
Refer: 65 96 S 1 0 0 1 194 126 2
Refer: 54 85 N 1 0 0 1 0 0 3
Validated: 1
EndChar

StartChar: Uacute
Encoding: 218 218 153
Width: 658
Flags: HW
HStem: -9 72<225.695 431.43> 621 198 623 20<95 120 527 563>
VStem: 77 72<138.458 633.2> 294 175 509 72<139.056 641.038>
LayerCount: 2
Back
SplineSet
509 603 m 2xb4
 509 635 530 643 546 643 c 0
 560 643 581 636 581 602 c 2
 581 230 l 2
 581 79 477 -9 329 -9 c 0
 180 -9 77 79 77 230 c 2
 77 602 l 2
 77 636 99 643 113 643 c 0
 129 643 149 634 149 603 c 2
 149 233 l 2
 149 125 210 63 329 63 c 0
 448 63 509 125 509 233 c 2
 509 603 l 2xb4
329 621 m 0x48
 315 621 294 634 294 656 c 0
 294 667 299 677 305 685 c 2
 401 800 l 2
 412 812 422 819 434 819 c 0
 451 819 469 805 469 783 c 0
 469 774 466 764 458 755 c 2
 362 640 l 2
 351 628 341 621 329 621 c 0x48
EndSplineSet
Fore
Refer: 115 180 S 1 0 0 1 275 126 2
Refer: 54 85 N 1 0 0 1 0 0 3
Validated: 1
EndChar

StartChar: Ucircumflex
Encoding: 219 219 154
Width: 658
Flags: HW
HStem: -9 72<225.695 431.43> 623 20<95 120 527 563> 651 168
VStem: 77 72<138.458 633.2> 178 303<651 693> 509 72<139.056 641.038>
LayerCount: 2
Back
SplineSet
509 603 m 2
 509 635 530 643 546 643 c 0
 560 643 581 636 581 602 c 2
 581 230 l 2
 581 79 477 -9 329 -9 c 0
 180 -9 77 79 77 230 c 2
 77 602 l 2
 77 636 99 643 113 643 c 0
 129 643 149 634 149 603 c 2
 149 233 l 2
 149 125 210 63 329 63 c 0
 448 63 509 125 509 233 c 2
 509 603 l 2
186 703 m 2
 295 819 l 1
 362 819 l 1
 473 703 l 2
 477 698 481 686 481 679 c 0
 481 667 475 651 448 651 c 0
 428 651 421 662 413 669 c 2
 329 738 l 1
 246 669 l 2
 238 663 231 651 211 651 c 0
 184 651 178 667 178 679 c 0
 178 686 182 698 186 703 c 2
EndSplineSet
Fore
Refer: 329 770 N 1 0 0 1 631 141 2
Refer: 54 85 N 1 0 0 1 0 0 3
Validated: 1
EndChar

StartChar: Udieresis
Encoding: 220 220 155
Width: 658
Flags: HW
HStem: -9 72<225.695 431.43> 623 20<95 120 527 563> 706 102<195.531 294.469 365.531 464.469>
VStem: 77 72<138.458 633.2> 184 122<719.172 794.828> 354 122<719.172 794.828> 509 72<139.056 641.038>
LayerCount: 2
Back
SplineSet
509 603 m 2
 509 635 530 643 546 643 c 0
 560 643 581 636 581 602 c 2
 581 230 l 2
 581 79 477 -9 329 -9 c 0
 180 -9 77 79 77 230 c 2
 77 602 l 2
 77 636 99 643 113 643 c 0
 129 643 149 634 149 603 c 2
 149 233 l 2
 149 125 210 63 329 63 c 0
 448 63 509 125 509 233 c 2
 509 603 l 2
245 706 m 0
 218 706 184 726 184 757 c 0
 184 789 222 808 245 808 c 0
 269 808 306 788 306 757 c 0
 306 725 268 706 245 706 c 0
415 706 m 0
 388 706 354 726 354 757 c 0
 354 789 392 808 415 808 c 0
 439 808 476 788 476 757 c 0
 476 725 438 706 415 706 c 0
EndSplineSet
Fore
Refer: 103 168 N 1 0 0 1 134 127 2
Refer: 54 85 N 1 0 0 1 0 0 3
Validated: 1
EndChar

StartChar: Yacute
Encoding: 221 221 156
Width: 563
Flags: HW
HStem: -7 21<263 301> 621 198 623 20<47.5 62.5 500 514>
VStem: 243 77<-4.5625 306> 246 175
LayerCount: 2
Back
SplineSet
243 306 m 1xb0
 28 583 l 1
 24 590 18 598 18 609 c 0
 18 629 37 643 53 643 c 0
 68 643 78 632 86 621 c 2
 281 365 l 1
 475 621 l 2
 489 638 500 643 509 643 c 0
 523 643 544 630 544 609 c 0
 544 598 538 590 534 583 c 1
 320 306 l 1
 320 32 l 2
 320 15 313 -7 281 -7 c 0
 263 -7 243 2 243 32 c 2
 243 306 l 1xb0
281 621 m 0x48
 267 621 246 634 246 656 c 0
 246 667 251 677 257 685 c 2
 353 800 l 2
 364 812 374 819 386 819 c 0
 403 819 421 805 421 783 c 0
 421 774 418 764 410 755 c 2
 314 640 l 2
 303 628 293 621 281 621 c 0x48
EndSplineSet
Fore
Refer: 115 180 N 1 0 0 1 227 126 2
Refer: 58 89 N 1 0 0 1 0 0 3
Validated: 1
EndChar

StartChar: Thorn
Encoding: 222 222 157
Width: 560
Flags: HW
HStem: -7 21G<102 138> 155 63<156 423.211> 404 72<156 424.238>
VStem: 84 72<-4.99023 155 218 404 476 605.684> 452 73<244.694 377.123>
LayerCount: 2
Fore
SplineSet
156 476 m 1,0,-1
 335 476 l 2,1,2
 426 476 426 476 475.5 435 c 128,-1,3
 525 394 525 394 525 316 c 128,-1,4
 525 238 525 238 475 196.5 c 128,-1,5
 425 155 425 155 333 155 c 2,6,-1
 156 155 l 1,7,-1
 156 35 l 2,8,9
 156 -7 156 -7 120 -7 c 128,-1,10
 84 -7 84 -7 84 35 c 2,11,-1
 84 573 l 2,12,13
 84 596 84 596 95 606 c 128,-1,14
 106 616 106 616 120 616 c 128,-1,15
 134 616 134 616 145 606 c 128,-1,16
 156 596 156 596 156 573 c 2,17,-1
 156 476 l 1,0,-1
284 404 m 2,18,-1
 156 404 l 1,19,-1
 156 218 l 1,20,-1
 283 218 l 2,21,22
 384 218 384 218 418 236 c 128,-1,23
 452 254 452 254 452 311 c 128,-1,24
 452 368 452 368 417 386 c 128,-1,25
 382 404 382 404 284 404 c 2,18,-1
EndSplineSet
Validated: 1
EndChar

StartChar: germandbls
Encoding: 223 223 158
Width: 506
Flags: HW
HStem: -20 72<244.569 361.16> -7 21G<80 116> 341 67<165 280.786> 564 72<155.465 308.602>
VStem: 32 103<396.124 457.876> 63 72<-4.25 403.741 450.259 543.562> 152 84<62.735 143.361> 325 73<446.32 550.094> 394 72<87.7291 273.285>
LayerCount: 2
Fore
SplineSet
165 341 m 1,0,-1
 165 408 l 1,1,2
 241 408 241 408 283 431 c 128,-1,3
 325 454 325 454 325 512 c 0,4,5
 325 536 325 536 304 550 c 128,-1,6
 283 564 283 564 233 564 c 128,-1,7
 183 564 183 564 159 545.5 c 128,-1,8
 135 527 135 527 135 461 c 2,9,-1
 135 39 l 2,10,11
 135 -7 135 -7 97 -7 c 0,12,13
 63 -7 63 -7 63 37 c 2,14,-1
 63 394 l 1,15,16
 32 399 32 399 32 427 c 128,-1,17
 32 455 32 455 63 460 c 1,18,19
 68 562 68 562 116 599 c 128,-1,20
 164 636 164 636 242 636 c 128,-1,21
 320 636 320 636 359 598.5 c 128,-1,22
 398 561 398 561 398 510 c 0,23,24
 398 430 398 430 335 381 c 1,25,26
 466 336 466 336 466 198 c 0,27,28
 466 68 466 68 408 20 c 0,29,30
 360 -20 360 -20 303.5 -20 c 128,-1,31
 247 -20 247 -20 199.5 11.5 c 128,-1,32
 152 43 152 43 152 101 c 0,33,34
 152 147 152 147 194 147 c 128,-1,35
 236 147 236 147 236 103 c 0,36,37
 236 52 236 52 310 52 c 0,38,39
 394 52 394 52 394 201 c 0,40,41
 394 341 394 341 165 341 c 1,0,-1
EndSplineSet
Validated: 8388609
EndChar

StartChar: agrave
Encoding: 224 224 159
Width: 594
Flags: HW
HStem: 0 72<142.525 386.547> 233 72<163.724 451> 389 72<160.856 441.714> 492 198
VStem: 61 72<81.3438 204.135 307.153 377.389> 176 175 451 72<-4.84668 50 137.186 233 305 380.23>
LayerCount: 2
Back
SplineSet
314 305 m 2
 451 305 l 1
 451 347 l 2
 451 380 442 389 406 389 c 2
 265 389 l 2
 158 389 133 379 133 350 c 0
 133 325 126 305 96 305 c 0
 82 305 61 312 61 350 c 0
 61 439 141 461 258 461 c 2
 413 461 l 2
 501 461 523 420 523 331 c 2
 523 35 l 2
 523 -2 500 -7 487 -7 c 0
 473 -7 451 -1 451 38 c 2
 451 50 l 1
 409 15 343 0 271 0 c 2
 178 0 l 2
 111 0 61 49 61 129 c 0
 61 273 150 305 314 305 c 2
451 233 m 1
 314 233 l 2
 171 233 133 223 133 124 c 0
 133 95 159 72 178 72 c 2
 271 72 l 2
 436 72 451 167 451 233 c 1
340 556 m 2
 346 548 351 538 351 527 c 0
 351 506 332 492 316 492 c 0
 304 492 294 499 283 511 c 2
 187 626 l 2
 179 635 176 645 176 654 c 0
 176 676 194 690 211 690 c 0
 223 690 233 683 244 671 c 2
 340 556 l 2
EndSplineSet
Fore
Refer: 65 96 S 1 0 0 1 157 -3 2
Refer: 66 97 N 1 0 0 1 0 0 3
Validated: 1
EndChar

StartChar: aacute
Encoding: 225 225 160
Width: 594
Flags: HW
HStem: 0 72<142.525 386.547> 233 72<163.724 451> 389 72<160.856 441.714> 495 198
VStem: 61 72<81.3438 204.135 307.153 377.389> 257 175 451 72<-4.84668 50 137.186 233 305 380.23>
LayerCount: 2
Back
SplineSet
314 305 m 2
 451 305 l 1
 451 347 l 2
 451 380 442 389 406 389 c 2
 265 389 l 2
 158 389 133 379 133 350 c 0
 133 325 126 305 96 305 c 0
 82 305 61 312 61 350 c 0
 61 439 141 461 258 461 c 2
 413 461 l 2
 501 461 523 420 523 331 c 2
 523 35 l 2
 523 -2 500 -7 487 -7 c 0
 473 -7 451 -1 451 38 c 2
 451 50 l 1
 409 15 343 0 271 0 c 2
 178 0 l 2
 111 0 61 49 61 129 c 0
 61 273 150 305 314 305 c 2
451 233 m 1
 314 233 l 2
 171 233 133 223 133 124 c 0
 133 95 159 72 178 72 c 2
 271 72 l 2
 436 72 451 167 451 233 c 1
292 495 m 0
 278 495 257 508 257 530 c 0
 257 541 262 551 268 559 c 2
 364 674 l 2
 375 686 385 693 397 693 c 0
 414 693 432 679 432 657 c 0
 432 648 429 638 421 629 c 2
 325 514 l 2
 314 502 304 495 292 495 c 0
EndSplineSet
Fore
Refer: 115 180 S 1 0 0 1 238 0 2
Refer: 66 97 N 1 0 0 1 0 0 3
Validated: 1
EndChar

StartChar: acircumflex
Encoding: 226 226 161
Width: 594
Flags: HW
HStem: 0 72<142.525 386.547> 233 72<163.724 451> 389 72<160.856 441.714> 522 168
VStem: 61 72<81.3438 204.135 307.153 377.389> 141 303<522 564> 451 72<-4.84668 50 137.186 233 305 380.23>
LayerCount: 2
Back
SplineSet
314 305 m 2
 451 305 l 1
 451 347 l 2
 451 380 442 389 406 389 c 2
 265 389 l 2
 158 389 133 379 133 350 c 0
 133 325 126 305 96 305 c 0
 82 305 61 312 61 350 c 0
 61 439 141 461 258 461 c 2
 413 461 l 2
 501 461 523 420 523 331 c 2
 523 35 l 2
 523 -2 500 -7 487 -7 c 0
 473 -7 451 -1 451 38 c 2
 451 50 l 1
 409 15 343 0 271 0 c 2
 178 0 l 2
 111 0 61 49 61 129 c 0
 61 273 150 305 314 305 c 2
451 233 m 1
 314 233 l 2
 171 233 133 223 133 124 c 0
 133 95 159 72 178 72 c 2
 271 72 l 2
 436 72 451 167 451 233 c 1
149 574 m 2
 258 690 l 1
 325 690 l 1
 436 574 l 2
 440 569 444 557 444 550 c 0
 444 538 438 522 411 522 c 0
 391 522 384 533 376 540 c 2
 292 609 l 1
 209 540 l 2
 201 534 194 522 174 522 c 0
 147 522 141 538 141 550 c 0
 141 557 145 569 149 574 c 2
EndSplineSet
Fore
Refer: 329 770 S 1 0 0 1 594 12 2
Refer: 66 97 N 1 0 0 1 0 0 3
Validated: 1
EndChar

StartChar: atilde
Encoding: 227 227 162
Width: 594
Flags: HW
HStem: 0 72<142.525 386.547> 233 72<163.724 451> 389 72<160.856 441.714> 507 77<287.992 373.407> 547 77<212.242 297.453>
VStem: 61 72<81.3438 204.135 307.153 377.389> 142 301.5 451 72<-4.84668 50 137.186 233 305 380.23>
LayerCount: 2
Back
SplineSet
314 305 m 2xe5
 451 305 l 1
 451 347 l 2
 451 380 442 389 406 389 c 2
 265 389 l 2
 158 389 133 379 133 350 c 0
 133 325 126 305 96 305 c 0
 82 305 61 312 61 350 c 0
 61 439 141 461 258 461 c 2
 413 461 l 2
 501 461 523 420 523 331 c 2
 523 35 l 2
 523 -2 500 -7 487 -7 c 0
 473 -7 451 -1 451 38 c 2
 451 50 l 1
 409 15 343 0 271 0 c 2
 178 0 l 2
 111 0 61 49 61 129 c 0
 61 273 150 305 314 305 c 2xe5
451 233 m 1
 314 233 l 2
 171 233 133 223 133 124 c 0
 133 95 159 72 178 72 c 2
 271 72 l 2
 436 72 451 167 451 233 c 1
245 545 m 2x12
 243 546 240 547 239 547 c 0x0a
 237 547 236 546 234 544 c 2
 205 518 l 2
 197 510 188 507 177 507 c 0x12
 162 507 142 520 142 541 c 0
 142 555 149 566 160 575 c 2
 205 613 l 2
 216 622 226 624 231 624 c 0x0a
 236 624 246 622 254 619 c 2
 341 586 l 2
 343 585 345 584 347 584 c 0x12
 349 584 349 585 351 587 c 2
 381 613 l 2
 389 621 397 624 409 624 c 0x0a
 423 624 443 611 443 590 c 0
 443 576 437 565 425 556 c 1
 381 518 l 1
 369 509 359 507 355 507 c 0
 349 507 339 509 331 512 c 2
 245 545 l 2x12
EndSplineSet
Fore
Refer: 330 771 S 1 0 0 1 570 28 2
Refer: 66 97 N 1 0 0 1 0 0 3
Validated: 1
EndChar

StartChar: adieresis
Encoding: 228 228 163
Width: 594
Flags: HW
HStem: 0 72<142.525 386.547> 233 72<163.724 451> 389 72<160.856 441.714> 522 102<200.531 299.469 370.531 469.469>
VStem: 61 72<81.3438 204.135 307.153 377.389> 189 122<535.172 610.828> 359 122<535.172 610.828> 451 72<-4.84668 50 137.186 233 305 380.23>
LayerCount: 2
Back
SplineSet
314 305 m 2xe9
 451 305 l 1
 451 347 l 2
 451 380 442 389 406 389 c 2
 265 389 l 2
 158 389 133 379 133 350 c 0
 133 325 126 305 96 305 c 0
 82 305 61 312 61 350 c 0
 61 439 141 461 258 461 c 2
 413 461 l 2
 501 461 523 420 523 331 c 2
 523 35 l 2
 523 -2 500 -7 487 -7 c 0
 473 -7 451 -1 451 38 c 2
 451 50 l 1
 409 15 343 0 271 0 c 2
 178 0 l 2
 111 0 61 49 61 129 c 0
 61 273 150 305 314 305 c 2xe9
451 233 m 1
 314 233 l 2
 171 233 133 223 133 124 c 0
 133 95 159 72 178 72 c 2
 271 72 l 2
 436 72 451 167 451 233 c 1
251 522 m 0x16
 224 522 190 542 190 573 c 0
 190 605 228 624 251 624 c 0
 275 624 312 604 312 573 c 0
 312 541 274 522 251 522 c 0x16
421 522 m 0
 394 522 360 542 360 573 c 0
 360 605 398 624 421 624 c 0
 445 624 482 604 482 573 c 0
 482 541 444 522 421 522 c 0
EndSplineSet
Fore
Refer: 103 168 N 1 0 0 1 139 -57 2
Refer: 66 97 N 1 0 0 1 0 0 3
Validated: 1
EndChar

StartChar: aring
Encoding: 229 229 164
Width: 594
Flags: HW
HStem: 0 72<142.525 386.547> 233 72<163.724 451> 389 72<160.856 441.714> 507 54<266.422 319.578> 627 54<266.422 319.578>
VStem: 61 72<81.3438 204.135 307.153 377.389> 206 54<567.164 620.836> 326 54<567.164 620.836> 451 72<-4.84668 50 137.186 233 305 380.23>
LayerCount: 2
Back
SplineSet
314 305 m 2
 451 305 l 1
 451 347 l 2
 451 380 442 389 406 389 c 2
 265 389 l 2
 158 389 133 379 133 350 c 0
 133 325 126 305 96 305 c 0
 82 305 61 312 61 350 c 0
 61 439 141 461 258 461 c 2
 413 461 l 2
 501 461 523 420 523 331 c 2
 523 35 l 2
 523 -2 500 -7 487 -7 c 0
 473 -7 451 -1 451 38 c 2
 451 50 l 1
 409 15 343 0 271 0 c 2
 178 0 l 2
 111 0 61 49 61 129 c 0
 61 273 150 305 314 305 c 2
451 233 m 1
 314 233 l 2
 171 233 133 223 133 124 c 0
 133 95 159 72 178 72 c 2
 271 72 l 2
 436 72 451 167 451 233 c 1
260 594 m 0
 260 576 275 561 293 561 c 0
 311 561 326 576 326 594 c 0
 326 612 311 627 293 627 c 0
 275 627 260 612 260 594 c 0
293 681 m 0
 341 681 380 642 380 594 c 0
 380 546 341 507 293 507 c 0
 245 507 206 546 206 594 c 0
 206 642 245 681 293 681 c 0
EndSplineSet
Fore
Refer: 334 778 N 1 0 0 1 600 12 2
Refer: 66 97 N 1 0 0 1 0 0 3
Validated: 1
EndChar

StartChar: ae
Encoding: 230 230 165
Width: 986
Flags: HW
HStem: 0 72<143.525 374.375 546.712 844.714> 233 72<161.346 435 513 854> 389 72<147.234 425.198 543.201 825.693>
VStem: 62 72<81.3438 205.871 296.153 373.18> 435 78<129.929 228 305 361.135> 854 72<83.3474 156.168 305 361.764>
AnchorPoint: "bottom" 470 0 basechar 0
AnchorPoint: "top" 495 510 basechar 0
LayerCount: 2
Fore
SplineSet
295 233 m 2,0,1
 198 233 198 233 166 214 c 128,-1,2
 134 195 134 195 134 124 c 0,3,4
 134 103 134 103 149 87.5 c 128,-1,5
 164 72 164 72 179 72 c 2,6,-1
 272 72 l 2,7,8
 440 72 440 72 440 228 c 1,9,-1
 436 233 l 1,10,-1
 295 233 l 2,0,1
694 389 m 2,11,-1
 686 389 l 2,12,13
 589 389 589 389 553 373 c 128,-1,14
 517 357 517 357 513 305 c 1,15,-1
 854 305 l 1,16,17
 850 357 850 357 816.5 373 c 128,-1,18
 783 389 783 389 694 389 c 2,11,-1
926 283 m 2,19,-1
 926 233 l 1,20,-1
 513 233 l 1,21,-1
 517 181 l 1,22,23
 517 110 517 110 550.5 91 c 128,-1,24
 584 72 584 72 686 72 c 2,25,-1
 809 72 l 2,26,27
 836 72 836 72 845 83 c 128,-1,28
 854 94 854 94 854 120 c 128,-1,29
 854 146 854 146 865 156.5 c 128,-1,30
 876 167 876 167 890 167 c 0,31,32
 926 166 926 166 926 116 c 128,-1,33
 926 66 926 66 903.5 33 c 128,-1,34
 881 0 881 0 816 0 c 2,35,-1
 686 0 l 2,36,37
 603 0 603 0 550 15 c 128,-1,38
 497 30 497 30 469 71 c 1,39,40
 436 37 436 37 378.5 18.5 c 128,-1,41
 321 0 321 0 272 0 c 2,42,-1
 179 0 l 2,43,44
 128 0 128 0 95 35 c 128,-1,45
 62 70 62 70 62 129 c 0,46,47
 62 231 62 231 119.5 268 c 128,-1,48
 177 305 177 305 295 305 c 2,49,-1
 435 305 l 1,50,-1
 435 347 l 2,51,52
 435 371 435 371 425.5 380 c 128,-1,53
 416 389 416 389 387 389 c 2,54,-1
 246 389 l 2,55,56
 134 389 134 389 134 339 c 0,57,58
 134 294 134 294 98 294 c 128,-1,59
 62 294 62 294 62 339 c 0,60,61
 62 402 62 402 111 431.5 c 128,-1,62
 160 461 160 461 239 461 c 2,63,-1
 394 461 l 2,64,65
 468 461 468 461 494 421 c 1,66,67
 547 461 547 461 686 461 c 2,68,-1
 694 461 l 2,69,70
 813 461 813 461 869.5 424.5 c 128,-1,71
 926 388 926 388 926 283 c 2,19,-1
EndSplineSet
Validated: 1
EndChar

StartChar: ccedilla
Encoding: 231 231 166
Width: 624
Flags: HW
HStem: -190 67<246.447 345.824> 0 72<161.457 277 349 483.714> 389 72<161.729 483.714>
VStem: 61 72<101.609 359.402> 346 72<-122.164 -79.1248> 493 72<83.3475 156.683 304.317 377.652>
LayerCount: 2
Fore
SplineSet
277 1 m 1,0,1
 163 5 163 5 112 42.5 c 128,-1,2
 61 80 61 80 61 178 c 2,3,-1
 61 283 l 2,4,5
 61 388 61 388 120 424.5 c 128,-1,6
 179 461 179 461 314 461 c 2,7,-1
 455 461 l 2,8,9
 520 461 520 461 542.5 427.5 c 128,-1,10
 565 394 565 394 565 344 c 128,-1,11
 565 294 565 294 529 294 c 0,12,13
 515 294 515 294 504 304 c 128,-1,14
 493 314 493 314 493 340.5 c 128,-1,15
 493 367 493 367 484 378 c 128,-1,16
 475 389 475 389 448 389 c 2,17,-1
 314 389 l 2,18,19
 202 389 202 389 167.5 370.5 c 128,-1,20
 133 352 133 352 133 280 c 2,21,-1
 133 181 l 2,22,23
 133 109 133 109 167.5 90.5 c 128,-1,24
 202 72 202 72 314 72 c 2,25,-1
 448 72 l 2,26,27
 475 72 475 72 484 83 c 128,-1,28
 493 94 493 94 493 120.5 c 128,-1,29
 493 147 493 147 504 157 c 128,-1,30
 515 167 515 167 529 167 c 0,31,32
 565 167 565 167 565 116.5 c 128,-1,33
 565 66 565 66 542.5 33 c 128,-1,34
 520 0 520 0 455 0 c 2,35,-1
 349 0 l 1,36,37
 351 -13 351 -13 368.5 -25 c 128,-1,38
 386 -37 386 -37 402 -54.5 c 128,-1,39
 418 -72 418 -72 418 -99 c 0,40,41
 418 -142 418 -142 386 -166 c 128,-1,42
 354 -190 354 -190 312 -190 c 0,43,44
 269 -190 269 -190 246 -171 c 128,-1,45
 223 -152 223 -152 223 -134 c 128,-1,46
 223 -116 223 -116 231 -109 c 128,-1,47
 239 -102 239 -102 250 -102 c 128,-1,48
 261 -102 261 -102 283 -112.5 c 128,-1,49
 305 -123 305 -123 315.5 -123 c 128,-1,50
 326 -123 326 -123 333 -121 c 0,51,52
 340 -120 340 -120 342 -114 c 0,53,54
 346 -106 346 -106 346 -100 c 128,-1,55
 346 -94 346 -94 329.5 -83 c 128,-1,56
 313 -72 313 -72 295.5 -50 c 128,-1,57
 278 -28 278 -28 277 1 c 1,0,1
EndSplineSet
Validated: 8388609
EndChar

StartChar: egrave
Encoding: 232 232 167
Width: 651
Flags: HW
HStem: 0 72<161.729 503.714> 235 72<133 523> 389 72<159.199 496.305> 495 198
VStem: 61 72<101.598 235 307 364.092> 210 175 513 72<83.3474 156.168>
LayerCount: 2
Back
SplineSet
595 283 m 2
 595 235 l 1
 133 235 l 1
 133 181 l 2
 133 82 171 72 314 72 c 2
 468 72 l 2
 504 72 513 84 513 124 c 0
 513 159 535 167 549 167 c 0
 571 167 585 154 585 121 c 0
 585 62 571 0 475 0 c 2
 314 0 l 2
 147 0 61 30 61 178 c 2
 61 283 l 2
 61 431 147 461 314 461 c 2
 343 461 l 2
 509 461 595 431 595 283 c 2
343 389 m 2
 314 389 l 2
 173 389 137 377 133 307 c 1
 523 307 l 1
 518 381 473 389 343 389 c 2
374 559 m 2
 380 551 385 541 385 530 c 0
 385 509 366 495 350 495 c 0
 338 495 328 502 317 514 c 2
 221 629 l 2
 213 638 210 648 210 657 c 0
 210 679 228 693 245 693 c 0
 257 693 267 686 278 674 c 2
 374 559 l 2
EndSplineSet
Fore
Refer: 65 96 S 1 0 0 1 191 0 2
Refer: 70 101 N 1 0 0 1 0 0 3
Validated: 1
EndChar

StartChar: eacute
Encoding: 233 233 168
Width: 651
Flags: HW
HStem: 0 72<161.729 503.714> 235 72<133 523> 389 72<159.199 496.305> 495 198
VStem: 61 72<101.598 235 307 364.092> 294 175 513 72<83.3474 156.168>
LayerCount: 2
Back
SplineSet
595 283 m 2
 595 235 l 1
 133 235 l 1
 133 181 l 2
 133 82 171 72 314 72 c 2
 468 72 l 2
 504 72 513 84 513 124 c 0
 513 159 535 167 549 167 c 0
 571 167 585 154 585 121 c 0
 585 62 571 0 475 0 c 2
 314 0 l 2
 147 0 61 30 61 178 c 2
 61 283 l 2
 61 431 147 461 314 461 c 2
 343 461 l 2
 509 461 595 431 595 283 c 2
343 389 m 2
 314 389 l 2
 173 389 137 377 133 307 c 1
 523 307 l 1
 518 381 473 389 343 389 c 2
329 495 m 0
 315 495 294 508 294 530 c 0
 294 541 299 551 305 559 c 2
 401 674 l 2
 412 686 422 693 434 693 c 0
 451 693 469 679 469 657 c 0
 469 648 466 638 458 629 c 2
 362 514 l 2
 351 502 341 495 329 495 c 0
EndSplineSet
Fore
Refer: 115 180 S 1 0 0 1 275 0 2
Refer: 70 101 N 1 0 0 1 0 0 3
Validated: 1
EndChar

StartChar: ecircumflex
Encoding: 234 234 169
Width: 651
Flags: HW
HStem: 0 72<161.729 503.714> 235 72<133 523> 389 72<159.199 496.305> 522 168
VStem: 61 72<101.598 235 307 364.092> 177 303<522 564> 513 72<83.3474 156.168>
LayerCount: 2
Back
SplineSet
595 283 m 2
 595 235 l 1
 133 235 l 1
 133 181 l 2
 133 82 171 72 314 72 c 2
 468 72 l 2
 504 72 513 84 513 124 c 0
 513 159 535 167 549 167 c 0
 571 167 585 154 585 121 c 0
 585 62 571 0 475 0 c 2
 314 0 l 2
 147 0 61 30 61 178 c 2
 61 283 l 2
 61 431 147 461 314 461 c 2
 343 461 l 2
 509 461 595 431 595 283 c 2
343 389 m 2
 314 389 l 2
 173 389 137 377 133 307 c 1
 523 307 l 1
 518 381 473 389 343 389 c 2
185 574 m 2
 294 690 l 1
 361 690 l 1
 472 574 l 2
 476 569 480 557 480 550 c 0
 480 538 474 522 447 522 c 0
 427 522 420 533 412 540 c 2
 328 609 l 1
 245 540 l 2
 237 534 230 522 210 522 c 0
 183 522 177 538 177 550 c 0
 177 557 181 569 185 574 c 2
EndSplineSet
Fore
Refer: 329 770 N 1 0 0 1 630 12 2
Refer: 70 101 N 1 0 0 1 0 0 3
Validated: 1
EndChar

StartChar: edieresis
Encoding: 235 235 170
Width: 651
Flags: HW
HStem: 0 72<161.729 503.714> 235 72<133 523> 389 72<159.199 496.305> 522 102<193.531 292.469 363.531 462.469>
VStem: 61 72<101.598 235 307 364.092> 182 122<535.172 610.828> 352 122<535.172 610.828> 513 72<83.3474 156.168>
LayerCount: 2
Back
SplineSet
595 283 m 2
 595 235 l 1
 133 235 l 1
 133 181 l 2
 133 82 171 72 314 72 c 2
 468 72 l 2
 504 72 513 84 513 124 c 0
 513 159 535 167 549 167 c 0
 571 167 585 154 585 121 c 0
 585 62 571 0 475 0 c 2
 314 0 l 2
 147 0 61 30 61 178 c 2
 61 283 l 2
 61 431 147 461 314 461 c 2
 343 461 l 2
 509 461 595 431 595 283 c 2
343 389 m 2
 314 389 l 2
 173 389 137 377 133 307 c 1
 523 307 l 1
 518 381 473 389 343 389 c 2
243 522 m 0
 216 522 182 542 182 573 c 0
 182 605 220 624 243 624 c 0
 267 624 304 604 304 573 c 0
 304 541 266 522 243 522 c 0
413 522 m 0
 386 522 352 542 352 573 c 0
 352 605 390 624 413 624 c 0
 437 624 474 604 474 573 c 0
 474 541 436 522 413 522 c 0
EndSplineSet
Fore
Refer: 103 168 N 1 0 0 1 132 -57 2
Refer: 70 101 N 1 0 0 1 0 0 3
Validated: 1
EndChar

StartChar: igrave
Encoding: 236 236 171
Width: 218
Flags: HW
HStem: 503 198
VStem: -30 175 73 72<-12.1998 472.684>
LayerCount: 2
Back
SplineSet
73 440 m 2x20
 73 475 95 483 109 483 c 0
 123 483 145 475 145 440 c 2
 145 20 l 2
 145 -1 137 -22 108 -22 c 0
 94 -22 73 -14 73 20 c 2
 73 440 l 2x20
134 560 m 2xc0
 140 552 145 542 145 531 c 0
 145 510 126 496 110 496 c 0
 98 496 88 503 77 515 c 2
 -19 630 l 2
 -27 639 -30 649 -30 658 c 0
 -30 680 -12 694 5 694 c 0
 17 694 27 687 38 675 c 2
 134 560 l 2xc0
EndSplineSet
Fore
Refer: 65 96 N 1 0 0 1 -49 8 2
Refer: 236 305 N 1 0 0 1 0 0 3
Validated: 1
EndChar

StartChar: iacute
Encoding: 237 237 172
Width: 218
Flags: HW
HStem: 499 198
VStem: 73 72<-12.1998 472.684> 73 175
LayerCount: 2
Back
SplineSet
73 440 m 2x40
 73 475 95 483 109 483 c 0
 123 483 145 475 145 440 c 2
 145 20 l 2
 145 -1 137 -22 108 -22 c 0
 94 -22 73 -14 73 20 c 2
 73 440 l 2x40
108 495 m 0xa0
 94 495 73 508 73 530 c 0
 73 541 78 551 84 559 c 2
 180 674 l 2
 191 686 201 693 213 693 c 0
 230 693 248 679 248 657 c 0
 248 648 245 638 237 629 c 2
 141 514 l 2
 130 502 120 495 108 495 c 0xa0
EndSplineSet
Fore
Refer: 115 180 N 1 0 0 1 54 4 2
Refer: 236 305 N 1 0 0 1 0 0 3
Validated: 1
EndChar

StartChar: icircumflex
Encoding: 238 238 173
Width: 218
Flags: HW
HStem: 529 168
VStem: -42 303<529 571> 73 72<-12.1998 472.684>
LayerCount: 2
Back
SplineSet
73 440 m 2x20
 73 475 95 483 109 483 c 0
 123 483 145 475 145 440 c 2
 145 20 l 2
 145 -1 137 -22 108 -22 c 0
 94 -22 73 -14 73 20 c 2
 73 440 l 2x20
-34 581 m 2xc0
 75 697 l 1
 142 697 l 1
 253 581 l 2
 257 576 261 564 261 557 c 0
 261 545 255 529 228 529 c 0
 208 529 201 540 193 547 c 2
 109 616 l 1
 26 547 l 2
 18 541 11 529 -9 529 c 0
 -36 529 -42 545 -42 557 c 0
 -42 564 -38 576 -34 581 c 2xc0
EndSplineSet
Fore
Refer: 329 770 N 1 0 0 1 411 19 2
Refer: 236 305 N 1 0 0 1 0 0 3
Validated: 1
EndChar

StartChar: idieresis
Encoding: 239 239 174
Width: 218
Flags: HW
HStem: 544 102<-25.4688 73.4688 144.531 243.469>
VStem: -37 122<557.172 632.828> 73 72<-12.1998 472.684> 133 122<557.172 632.828>
LayerCount: 2
Back
SplineSet
73 440 m 2x20
 73 475 95 483 109 483 c 0
 123 483 145 475 145 440 c 2
 145 20 l 2
 145 -1 137 -22 108 -22 c 0
 94 -22 73 -14 73 20 c 2
 73 440 l 2x20
24 544 m 0xd0
 -3 544 -37 564 -37 595 c 0
 -37 627 1 646 24 646 c 0
 48 646 85 626 85 595 c 0
 85 563 47 544 24 544 c 0xd0
194 544 m 0
 167 544 133 564 133 595 c 0
 133 627 171 646 194 646 c 0
 218 646 255 626 255 595 c 0
 255 563 217 544 194 544 c 0
EndSplineSet
Fore
Refer: 103 168 N 1 0 0 1 -87 -35 2
Refer: 236 305 N 1 0 0 1 0 0 3
Validated: 1
EndChar

StartChar: eth
Encoding: 240 240 175
Width: 605
Flags: HW
HStem: -16 72<206.096 404.1> 384 72<207.338 409.228> 467 21G<234 250> 563 73<133.891 238.781>
VStem: 46 72<138.189 302.667> 478 72<135.314 312.006>
LayerCount: 2
Fore
SplineSet
240 554 m 1,0,1
 201 563 201 563 161 563 c 128,-1,2
 121 563 121 563 121 598 c 0,3,4
 121 618 121 618 133.5 627 c 128,-1,5
 146 636 146 636 162 636 c 0,6,7
 236 636 236 636 305 612 c 1,8,-1
 336 640 l 1,9,10
 354 654 354 654 369.5 654 c 128,-1,11
 385 654 385 654 397.5 644.5 c 128,-1,12
 410 635 410 635 410 619.5 c 128,-1,13
 410 604 410 604 393 587 c 1,14,-1
 380 577 l 1,15,16
 550 471 550 471 550 224 c 0,17,18
 550 125 550 125 488 54.5 c 128,-1,19
 426 -16 426 -16 310 -16 c 128,-1,20
 194 -16 194 -16 120 47 c 128,-1,21
 46 110 46 110 46 220.5 c 128,-1,22
 46 331 46 331 119.5 393.5 c 128,-1,23
 193 456 193 456 316 456 c 0,24,25
 375 456 375 456 423 435 c 1,26,27
 387 488 387 488 322 524 c 1,28,-1
 272 481 l 1,29,30
 258 467 258 467 242 467 c 128,-1,31
 226 467 226 467 212 477 c 128,-1,32
 198 487 198 487 198 501.5 c 128,-1,33
 198 516 198 516 216 534 c 1,34,-1
 240 554 l 1,0,1
437.5 107.5 m 128,-1,36
 478 159 478 159 478 224.5 c 128,-1,37
 478 290 478 290 438.5 337 c 128,-1,38
 399 384 399 384 312 384 c 128,-1,39
 225 384 225 384 171.5 339 c 128,-1,40
 118 294 118 294 118 220.5 c 128,-1,41
 118 147 118 147 170.5 101.5 c 128,-1,42
 223 56 223 56 310 56 c 128,-1,35
 397 56 397 56 437.5 107.5 c 128,-1,36
EndSplineSet
Validated: 1
EndChar

StartChar: ntilde
Encoding: 241 241 176
Width: 678
Flags: HW
HStem: -7 21<92 128 554 590> 389 72<213.891 507.359> 514 77<335.992 421.407> 554 77<260.242 345.453>
VStem: 74 72<-4.99023 321.906 411 465.312> 190 301.5 536 72<-4.99023 359.402>
LayerCount: 2
Back
SplineSet
327 389 m 2xca
 180 389 146 313 146 229 c 2
 146 35 l 2
 146 9 135 -7 110 -7 c 0
 97 -7 74 -2 74 35 c 2
 74 425 l 2
 74 462 94 468 108 468 c 0
 130 468 146 454 146 422 c 2
 146 411 l 1
 188 445 254 461 327 461 c 2
 356 461 l 2
 522 461 608 431 608 283 c 2
 608 35 l 2
 608 14 601 -7 573 -7 c 0
 555 -7 536 2 536 35 c 2
 536 280 l 2
 536 380 496 389 356 389 c 2
 327 389 l 2xca
293 552 m 2x24
 291 553 288 554 287 554 c 0x14
 285 554 284 553 282 551 c 2
 253 525 l 2
 245 517 236 514 225 514 c 0x24
 210 514 190 527 190 548 c 0
 190 562 197 573 208 582 c 2
 253 620 l 2
 264 629 274 631 279 631 c 0x14
 284 631 294 629 302 626 c 2
 389 593 l 2
 391 592 393 591 395 591 c 0x24
 397 591 397 592 399 594 c 2
 429 620 l 2
 437 628 445 631 457 631 c 0x14
 471 631 491 618 491 597 c 0
 491 583 485 572 473 563 c 1
 429 525 l 1
 417 516 407 514 403 514 c 0
 397 514 387 516 379 519 c 2
 293 552 l 2x24
EndSplineSet
Fore
Refer: 330 771 S 1 0 0 1 618 35 2
Refer: 79 110 N 1 0 0 1 0 0 3
Validated: 1
EndChar

StartChar: ograve
Encoding: 242 242 177
Width: 656
Flags: HW
HStem: 0 72<161.729 494.359> 389 72<161.729 494.359> 495 198
VStem: 61 72<101.598 359.402> 212 175 523 72<101.598 359.402>
LayerCount: 2
Back
SplineSet
343 0 m 2
 314 0 l 2
 147 0 61 30 61 178 c 2
 61 283 l 2
 61 431 147 461 314 461 c 2
 343 461 l 2
 509 461 595 431 595 283 c 2
 595 178 l 2
 595 30 509 0 343 0 c 2
314 72 m 2
 343 72 l 2
 483 72 523 81 523 181 c 2
 523 280 l 2
 523 380 483 389 343 389 c 2
 314 389 l 2
 171 389 133 379 133 280 c 2
 133 181 l 2
 133 82 171 72 314 72 c 2
376 559 m 2
 382 551 387 541 387 530 c 0
 387 509 368 495 352 495 c 0
 340 495 330 502 319 514 c 2
 223 629 l 2
 215 638 212 648 212 657 c 0
 212 679 230 693 247 693 c 0
 259 693 269 686 280 674 c 2
 376 559 l 2
EndSplineSet
Fore
Refer: 65 96 S 1 0 0 1 193 0 2
Refer: 80 111 N 1 0 0 1 0 0 3
Validated: 1
EndChar

StartChar: oacute
Encoding: 243 243 178
Width: 656
Flags: HW
HStem: 0 72<161.729 494.359> 389 72<161.729 494.359> 495 198
VStem: 61 72<101.598 359.402> 292 175 523 72<101.598 359.402>
LayerCount: 2
Back
SplineSet
343 0 m 2
 314 0 l 2
 147 0 61 30 61 178 c 2
 61 283 l 2
 61 431 147 461 314 461 c 2
 343 461 l 2
 509 461 595 431 595 283 c 2
 595 178 l 2
 595 30 509 0 343 0 c 2
314 72 m 2
 343 72 l 2
 483 72 523 81 523 181 c 2
 523 280 l 2
 523 380 483 389 343 389 c 2
 314 389 l 2
 171 389 133 379 133 280 c 2
 133 181 l 2
 133 82 171 72 314 72 c 2
327 495 m 0
 313 495 292 508 292 530 c 0
 292 541 297 551 303 559 c 2
 399 674 l 2
 410 686 420 693 432 693 c 0
 449 693 467 679 467 657 c 0
 467 648 464 638 456 629 c 2
 360 514 l 2
 349 502 339 495 327 495 c 0
EndSplineSet
Fore
Refer: 115 180 S 1 0 0 1 273 0 2
Refer: 80 111 N 1 0 0 1 0 0 3
Validated: 1
EndChar

StartChar: ocircumflex
Encoding: 244 244 179
Width: 656
Flags: HW
HStem: 0 72<161.729 494.359> 389 72<161.729 494.359> 522 168
VStem: 61 72<101.598 359.402> 177 303<522 564> 523 72<101.598 359.402>
LayerCount: 2
Back
SplineSet
343 0 m 2
 314 0 l 2
 147 0 61 30 61 178 c 2
 61 283 l 2
 61 431 147 461 314 461 c 2
 343 461 l 2
 509 461 595 431 595 283 c 2
 595 178 l 2
 595 30 509 0 343 0 c 2
314 72 m 2
 343 72 l 2
 483 72 523 81 523 181 c 2
 523 280 l 2
 523 380 483 389 343 389 c 2
 314 389 l 2
 171 389 133 379 133 280 c 2
 133 181 l 2
 133 82 171 72 314 72 c 2
185 574 m 2
 294 690 l 1
 361 690 l 1
 472 574 l 2
 476 569 480 557 480 550 c 0
 480 538 474 522 447 522 c 0
 427 522 420 533 412 540 c 2
 328 609 l 1
 245 540 l 2
 237 534 230 522 210 522 c 0
 183 522 177 538 177 550 c 0
 177 557 181 569 185 574 c 2
EndSplineSet
Fore
Refer: 329 770 S 1 0 0 1 630 12 2
Refer: 80 111 N 1 0 0 1 0 0 3
Validated: 1
EndChar

StartChar: otilde
Encoding: 245 245 180
Width: 656
Flags: HW
HStem: 0 72<161.729 494.359> 389 72<161.729 494.359> 507 77<322.992 408.407> 547 77<247.242 332.453>
VStem: 61 72<101.598 359.402> 177 301.5 523 72<101.598 359.402>
LayerCount: 2
Back
SplineSet
343 0 m 2xca
 314 0 l 2
 147 0 61 30 61 178 c 2
 61 283 l 2
 61 431 147 461 314 461 c 2
 343 461 l 2
 509 461 595 431 595 283 c 2
 595 178 l 2
 595 30 509 0 343 0 c 2xca
314 72 m 2
 343 72 l 2
 483 72 523 81 523 181 c 2
 523 280 l 2
 523 380 483 389 343 389 c 2
 314 389 l 2
 171 389 133 379 133 280 c 2
 133 181 l 2
 133 82 171 72 314 72 c 2
280 545 m 2x24
 278 546 275 547 274 547 c 0x14
 272 547 271 546 269 544 c 2
 240 518 l 2
 232 510 223 507 212 507 c 0x24
 197 507 177 520 177 541 c 0
 177 555 184 566 195 575 c 2
 240 613 l 2
 251 622 261 624 266 624 c 0x14
 271 624 281 622 289 619 c 2
 376 586 l 2
 378 585 380 584 382 584 c 0x24
 384 584 384 585 386 587 c 2
 416 613 l 2
 424 621 432 624 444 624 c 0x14
 458 624 478 611 478 590 c 0
 478 576 472 565 460 556 c 1
 416 518 l 1
 404 509 394 507 390 507 c 0
 384 507 374 509 366 512 c 2
 280 545 l 2x24
EndSplineSet
Fore
Refer: 330 771 S 1 0 0 1 605 28 2
Refer: 80 111 N 1 0 0 1 0 0 3
Validated: 1
EndChar

StartChar: odieresis
Encoding: 246 246 181
Width: 656
Flags: HW
HStem: 0 72<161.729 494.359> 389 72<161.729 494.359> 522 102<193.531 292.469 363.531 462.469>
VStem: 61 72<101.598 359.402> 182 122<535.172 610.828> 352 122<535.172 610.828> 523 72<101.598 359.402>
LayerCount: 2
Back
SplineSet
343 0 m 2
 314 0 l 2
 147 0 61 30 61 178 c 2
 61 283 l 2
 61 431 147 461 314 461 c 2
 343 461 l 2
 509 461 595 431 595 283 c 2
 595 178 l 2
 595 30 509 0 343 0 c 2
314 72 m 2
 343 72 l 2
 483 72 523 81 523 181 c 2
 523 280 l 2
 523 380 483 389 343 389 c 2
 314 389 l 2
 171 389 133 379 133 280 c 2
 133 181 l 2
 133 82 171 72 314 72 c 2
243 522 m 0
 216 522 182 542 182 573 c 0
 182 605 220 624 243 624 c 0
 267 624 304 604 304 573 c 0
 304 541 266 522 243 522 c 0
413 522 m 0
 386 522 352 542 352 573 c 0
 352 605 390 624 413 624 c 0
 437 624 474 604 474 573 c 0
 474 541 436 522 413 522 c 0
EndSplineSet
Fore
Refer: 103 168 N 1 0 0 1 132 -57 2
Refer: 80 111 N 1 0 0 1 0 0 3
Validated: 1
EndChar

StartChar: divide
Encoding: 247 247 182
Width: 440
Flags: HW
HStem: 67 102<166.531 265.469> 194 73<64.7999 372.108> 292 102<166.531 265.469>
VStem: 155 122<80.1725 155.828 305.172 380.828>
CounterMasks: 1 e0
LayerCount: 2
Fore
SplineSet
341 267 m 2,0,1
 385 267 385 267 385 229 c 0,2,3
 385 213 385 213 372.5 203.5 c 128,-1,4
 360 194 360 194 341 194 c 2,5,-1
 96 194 l 2,6,7
 55 194 55 194 55 231 c 0,8,9
 55 244 55 244 64.5 255.5 c 128,-1,10
 74 267 74 267 96 267 c 2,11,-1
 341 267 l 2,0,1
256.5 81.5 m 128,-1,13
 236 67 236 67 215 67 c 128,-1,14
 194 67 194 67 174.5 81.5 c 128,-1,15
 155 96 155 96 155 118 c 128,-1,16
 155 140 155 140 175.5 154.5 c 128,-1,17
 196 169 196 169 216 169 c 128,-1,18
 236 169 236 169 256.5 154.5 c 128,-1,19
 277 140 277 140 277 118 c 128,-1,12
 277 96 277 96 256.5 81.5 c 128,-1,13
256.5 306.5 m 128,-1,21
 236 292 236 292 215 292 c 128,-1,22
 194 292 194 292 174.5 306.5 c 128,-1,23
 155 321 155 321 155 343 c 128,-1,24
 155 365 155 365 175.5 379.5 c 128,-1,25
 196 394 196 394 216 394 c 128,-1,26
 236 394 236 394 256.5 379.5 c 128,-1,27
 277 365 277 365 277 343 c 128,-1,20
 277 321 277 321 256.5 306.5 c 128,-1,21
EndSplineSet
Validated: 8388609
EndChar

StartChar: oslash
Encoding: 248 248 183
Width: 656
Flags: HW
HStem: 0 72<211.624 494.359> 389 72<161.729 458.98>
VStem: 61 72<117.461 359.402> 523 72<101.598 332.656>
AnchorPoint: "top" 328 510 basechar 0
AnchorPoint: "bottom" 328 0 basechar 0
LayerCount: 2
Fore
SplineSet
314 72 m 2,0,-1
 343 72 l 2,1,2
 454 72 454 72 488.5 90.5 c 128,-1,3
 523 109 523 109 523 181 c 2,4,-1
 523 280 l 2,5,6
 523 314 523 314 516 334 c 1,7,-1
 210 77 l 1,8,9
 242 72 242 72 314 72 c 2,0,-1
522 433 m 1,10,11
 538 447 538 447 552.5 447 c 128,-1,12
 567 447 567 447 577.5 435.5 c 128,-1,13
 588 424 588 424 588 410.5 c 128,-1,14
 588 397 588 397 574 383 c 1,15,16
 595 345 595 345 595 283 c 2,17,-1
 595 178 l 2,18,19
 595 73 595 73 536 36.5 c 128,-1,20
 477 0 477 0 343 0 c 2,21,-1
 314 0 l 2,22,23
 199 0 199 0 145 23 c 1,24,25
 123 3 123 3 107.5 3 c 128,-1,26
 92 3 92 3 82 15 c 128,-1,27
 72 27 72 27 72 40.5 c 128,-1,28
 72 54 72 54 88 69 c 1,29,30
 61 108 61 108 61 178 c 2,31,-1
 61 283 l 2,32,33
 61 388 61 388 120 424.5 c 128,-1,34
 179 461 179 461 314 461 c 2,35,-1
 343 461 l 2,36,37
 469 461 469 461 522 433 c 1,10,11
144 116 m 1,38,-1
 460 381 l 1,39,40
 429 389 429 389 343 389 c 2,41,-1
 314 389 l 2,42,43
 202 389 202 389 167.5 370.5 c 128,-1,44
 133 352 133 352 133 280 c 2,45,-1
 133 181 l 2,46,47
 133 138 133 138 144 116 c 1,38,-1
EndSplineSet
Validated: 1
EndChar

StartChar: ugrave
Encoding: 249 249 184
Width: 678
Flags: HW
HStem: 0 72<170.641 464.109> 448 20<88 124 550 586> 495 198
VStem: 70 72<101.598 465.99> 220 175 532 72<-4.3125 50 140.406 465.99>
LayerCount: 2
Back
SplineSet
351 72 m 2
 502 72 528 153 532 232 c 1
 532 426 l 2
 532 452 543 468 568 468 c 0
 581 468 604 463 604 426 c 2
 604 36 l 2
 604 -1 584 -7 570 -7 c 0
 548 -7 532 6 532 39 c 2
 532 50 l 1
 490 16 424 0 351 0 c 2
 322 0 l 2
 156 0 70 30 70 178 c 2
 70 426 l 2
 70 447 77 468 105 468 c 0
 123 468 142 459 142 426 c 2
 142 181 l 2
 142 81 182 72 322 72 c 2
 351 72 l 2
384 559 m 2
 390 551 395 541 395 530 c 0
 395 509 376 495 360 495 c 0
 348 495 338 502 327 514 c 2
 231 629 l 2
 223 638 220 648 220 657 c 0
 220 679 238 693 255 693 c 0
 267 693 277 686 288 674 c 2
 384 559 l 2
EndSplineSet
Fore
Refer: 65 96 S 1 0 0 1 201 0 2
Refer: 86 117 N 1 0 0 1 0 0 3
Validated: 1
EndChar

StartChar: uacute
Encoding: 250 250 185
Width: 678
Flags: HW
HStem: 0 72<170.641 464.109> 448 20<88 124 550 586> 495 198
VStem: 70 72<101.598 465.99> 302 175 532 72<-4.3125 50 140.406 465.99>
LayerCount: 2
Back
SplineSet
351 72 m 2
 502 72 528 153 532 232 c 1
 532 426 l 2
 532 452 543 468 568 468 c 0
 581 468 604 463 604 426 c 2
 604 36 l 2
 604 -1 584 -7 570 -7 c 0
 548 -7 532 6 532 39 c 2
 532 50 l 1
 490 16 424 0 351 0 c 2
 322 0 l 2
 156 0 70 30 70 178 c 2
 70 426 l 2
 70 447 77 468 105 468 c 0
 123 468 142 459 142 426 c 2
 142 181 l 2
 142 81 182 72 322 72 c 2
 351 72 l 2
337 495 m 0
 323 495 302 508 302 530 c 0
 302 541 307 551 313 559 c 2
 409 674 l 2
 420 686 430 693 442 693 c 0
 459 693 477 679 477 657 c 0
 477 648 474 638 466 629 c 2
 370 514 l 2
 359 502 349 495 337 495 c 0
EndSplineSet
Fore
Refer: 115 180 S 1 0 0 1 283 0 2
Refer: 86 117 N 1 0 0 1 0 0 3
Validated: 1
EndChar

StartChar: ucircumflex
Encoding: 251 251 186
Width: 678
Flags: HW
HStem: 0 72<170.641 464.109> 448 20<88 124 550 586> 522 168
VStem: 70 72<101.598 465.99> 185 303<522 564> 532 72<-4.3125 50 140.406 465.99>
LayerCount: 2
Back
SplineSet
351 72 m 2
 502 72 528 153 532 232 c 1
 532 426 l 2
 532 452 543 468 568 468 c 0
 581 468 604 463 604 426 c 2
 604 36 l 2
 604 -1 584 -7 570 -7 c 0
 548 -7 532 6 532 39 c 2
 532 50 l 1
 490 16 424 0 351 0 c 2
 322 0 l 2
 156 0 70 30 70 178 c 2
 70 426 l 2
 70 447 77 468 105 468 c 0
 123 468 142 459 142 426 c 2
 142 181 l 2
 142 81 182 72 322 72 c 2
 351 72 l 2
193 581 m 2
 302 697 l 1
 369 697 l 1
 480 581 l 2
 484 576 488 564 488 557 c 0
 488 545 482 529 455 529 c 0
 435 529 428 540 420 547 c 2
 336 616 l 1
 253 547 l 2
 245 541 238 529 218 529 c 0
 191 529 185 545 185 557 c 0
 185 564 189 576 193 581 c 2
EndSplineSet
Fore
Refer: 329 770 S 1 0 0 1 638 12 2
Refer: 86 117 N 1 0 0 1 0 0 3
Validated: 1
EndChar

StartChar: udieresis
Encoding: 252 252 187
Width: 678
Flags: HW
HStem: 0 72<170.641 464.109> 448 20<88 124 550 586> 529 102<201.531 300.469 371.531 470.469>
VStem: 70 72<101.598 465.99> 190 122<542.172 617.828> 360 122<542.172 617.828> 532 72<-4.3125 50 140.406 465.99>
LayerCount: 2
Back
SplineSet
351 72 m 2
 502 72 528 153 532 232 c 1
 532 426 l 2
 532 452 543 468 568 468 c 0
 581 468 604 463 604 426 c 2
 604 36 l 2
 604 -1 584 -7 570 -7 c 0
 548 -7 532 6 532 39 c 2
 532 50 l 1
 490 16 424 0 351 0 c 2
 322 0 l 2
 156 0 70 30 70 178 c 2
 70 426 l 2
 70 447 77 468 105 468 c 0
 123 468 142 459 142 426 c 2
 142 181 l 2
 142 81 182 72 322 72 c 2
 351 72 l 2
252 529 m 0
 225 529 191 549 191 580 c 0
 191 612 229 631 252 631 c 0
 276 631 313 611 313 580 c 0
 313 548 275 529 252 529 c 0
422 529 m 0
 395 529 361 549 361 580 c 0
 361 612 399 631 422 631 c 0
 446 631 483 611 483 580 c 0
 483 548 445 529 422 529 c 0
EndSplineSet
Fore
Refer: 103 168 S 1 0 0 1 140 -50 2
Refer: 86 117 N 1 0 0 1 0 0 3
Validated: 1
EndChar

StartChar: yacute
Encoding: 253 253 188
Width: 679
Flags: HW
HStem: -205 72<151.286 525.293> 0 72<170.641 458.564> 448 20<88 124 550 586> 495 198
VStem: 70 72<-121.652 -40.3926 101.598 465.99> 303 175 532 72<-125.261 50 140.906 465.99>
LayerCount: 2
Back
SplineSet
604 -77 m 2
 604 -164 584 -205 503 -205 c 2
 180 -205 l 2
 84 -205 70 -142 70 -83 c 0
 70 -44 92 -38 106 -38 c 0
 128 -38 142 -50 142 -81 c 0
 142 -121 151 -133 187 -133 c 2
 496 -133 l 2
 527 -133 532 -126 532 -93 c 2
 532 50 l 1
 490 16 424 0 351 0 c 2
 322 0 l 2
 156 0 70 30 70 178 c 2
 70 426 l 2
 70 447 77 468 105 468 c 0
 123 468 142 459 142 426 c 2
 142 181 l 2
 142 81 182 72 322 72 c 2
 351 72 l 2
 502 72 532 153 532 232 c 2
 532 426 l 2
 532 452 543 468 568 468 c 0
 581 468 604 463 604 426 c 2
 604 -77 l 2
338 495 m 0
 324 495 303 508 303 530 c 0
 303 541 308 551 314 559 c 2
 410 674 l 2
 421 686 431 693 443 693 c 0
 460 693 478 679 478 657 c 0
 478 648 475 638 467 629 c 2
 371 514 l 2
 360 502 350 495 338 495 c 0
EndSplineSet
Fore
Refer: 115 180 N 1 0 0 1 284 0 2
Refer: 90 121 N 1 0 0 1 0 0 3
Validated: 1
EndChar

StartChar: thorn
Encoding: 254 254 189
Width: 671
Flags: HW
HStem: -182 21G<93 129> 0 72<148 507.76> 389 72<215.891 509.359> 623 20G<94 130>
VStem: 76 72<-179.528 0 72 323.406 411 640.847> 538 72<99.3184 359.402>
LayerCount: 2
Fore
SplineSet
538 280 m 2,0,1
 538 352 538 352 503.5 370.5 c 128,-1,2
 469 389 469 389 358 389 c 2,3,-1
 329 389 l 2,4,5
 227 389 227 389 187.5 346.5 c 128,-1,6
 148 304 148 304 148 232 c 2,7,-1
 148 72 l 1,8,-1
 361 72 l 2,9,10
 470 72 470 72 504 90.5 c 128,-1,11
 538 109 538 109 538 181 c 2,12,-1
 538 280 l 2,0,1
610 178 m 2,13,14
 610 73 610 73 551.5 36.5 c 128,-1,15
 493 0 493 0 361 0 c 2,16,-1
 148 0 l 1,17,-1
 148 -137 l 2,18,19
 148 -182 148 -182 110 -182 c 0,20,21
 76 -182 76 -182 76 -137 c 2,22,-1
 76 598 l 2,23,24
 76 643 76 643 112 643 c 128,-1,25
 148 643 148 643 148 598 c 2,26,-1
 148 411 l 1,27,28
 210 461 210 461 329 461 c 2,29,-1
 358 461 l 2,30,31
 492 461 492 461 551 424.5 c 128,-1,32
 610 388 610 388 610 283 c 2,33,-1
 610 178 l 2,13,14
EndSplineSet
Validated: 1
EndChar

StartChar: ydieresis
Encoding: 255 255 190
Width: 679
Flags: HW
HStem: -205 72<151.286 525.293> 0 72<170.641 458.564> 448 20<88 124 550 586> 529 102<201.531 300.469 371.531 470.469>
VStem: 70 72<-121.652 -40.3926 101.598 465.99> 190 122<542.172 617.828> 360 122<542.172 617.828> 532 72<-125.261 50 140.906 465.99>
LayerCount: 2
Back
SplineSet
252 529 m 0
 225 529 191 549 191 580 c 0
 191 612 229 631 252 631 c 0
 276 631 313 611 313 580 c 0
 313 548 275 529 252 529 c 0
422 529 m 0
 395 529 361 549 361 580 c 0
 361 612 399 631 422 631 c 0
 446 631 483 611 483 580 c 0
 483 548 445 529 422 529 c 0
604 -77 m 2
 604 -164 584 -205 503 -205 c 2
 180 -205 l 2
 84 -205 70 -142 70 -83 c 0
 70 -44 92 -38 106 -38 c 0
 128 -38 142 -50 142 -81 c 0
 142 -121 151 -133 187 -133 c 2
 496 -133 l 2
 527 -133 532 -126 532 -93 c 2
 532 50 l 1
 490 16 424 0 351 0 c 2
 322 0 l 2
 156 0 70 30 70 178 c 2
 70 426 l 2
 70 447 77 468 105 468 c 0
 123 468 142 459 142 426 c 2
 142 181 l 2
 142 81 182 72 322 72 c 2
 351 72 l 2
 502 72 532 153 532 232 c 2
 532 426 l 2
 532 452 543 468 568 468 c 0
 581 468 604 463 604 426 c 2
 604 -77 l 2
EndSplineSet
Fore
Refer: 103 168 S 1 0 0 1 140 -50 2
Refer: 90 121 N 1 0 0 1 0 0 3
Validated: 1
EndChar

StartChar: Amacron
Encoding: 256 256 191
Width: 610
Flags: HW
HStem: 189 72<195 415> 616 20<256.087 353.913> 707 73<149.8 457.108>
VStem: 24 73<-12.9854 12> 140 330<716.798 768.14> 513 73<-12.9854 12>
CounterMasks: 1 1c
LayerCount: 2
Back
SplineSet
426 780 m 2
 455.333 780 470 767.333 470 742 c 0
 470 731.333 465.833 722.833 457.5 716.5 c 128
 449.167 710.167 438.667 707 426 707 c 2
 181 707 l 2
 153.667 707 140 719.333 140 744 c 0
 140 752.672 143.167 760.839 149.5 768.5 c 128
 155.833 776.167 166.333 780 181 780 c 2
 426 780 l 2
346 636 m 1
 583 37 l 2
 585 31 586 24.6667 586 18 c 0
 586 6 581.833 -2.66667 573.5 -8 c 128
 565.162 -13.3333 557.329 -16 550 -16 c 0
 532.666 -16 520.332 -6.66667 513 12 c 2
 444 189 l 1
 166 189 l 1
 97 12 l 1
 89 -6.66667 76.6667 -16 60 -16 c 0
 52.6666 -16 44.8333 -13.3333 36.5 -8 c 128
 28.1667 -2.66667 24 6 24 18 c 0
 24 24.6667 25 31 27 37 c 2
 264 636 l 1
 346 636 l 1
195 261 m 1
 415 261 l 1
 304 532 l 1
 195 261 l 1
EndSplineSet
Fore
Refer: 305 772 S 1 0 0 1 583 205 2
Refer: 34 65 N 1 0 0 1 0 0 3
Validated: 1
EndChar

StartChar: amacron
Encoding: 257 257 192
Width: 594
Flags: HW
HStem: 0 72<142.525 386.547> 233 72<163.724 451> 389 72<160.856 441.714> 523 73<136.8 444.108>
VStem: 61 72<81.3438 204.135 307.153 377.389> 127 330<532.798 584.14> 451 72<-4.84668 50 137.186 233 305 380.23>
LayerCount: 2
Back
SplineSet
413 596 m 2x14
 442.333 596 457 583.333 457 558 c 0
 457 547.333 452.833 538.833 444.5 532.5 c 128
 436.167 526.167 425.667 523 413 523 c 2
 168 523 l 2
 140.667 523 127 535.333 127 560 c 0
 127 568.671 130.167 576.838 136.5 584.5 c 128
 142.833 592.167 153.333 596 168 596 c 2
 413 596 l 2x14
314 305 m 2xea
 451 305 l 1
 451 347 l 2
 451 363.667 448 374.833 442 380.5 c 128
 436 386.167 424 389 406 389 c 2
 265 389 l 2
 213 389 178 386.167 160 380.5 c 128
 142 374.832 133 364.665 133 350 c 0
 133 320 120.667 305 96 305 c 0
 72.6667 305 61 320 61 350 c 0
 61 392 77.8334 421 111.5 437 c 128
 145.167 453 194 461 258 461 c 2
 413 461 l 2
 455.667 461 484.667 451 500 431 c 128
 515.333 411 523 377.667 523 331 c 2
 523 35 l 2
 523 7 511 -7 487 -7 c 128
 463 -7 451 8 451 38 c 2
 451 50 l 1
 411 16.6667 351 1.90735e-06 271 0 c 2
 178 0 l 2
 144 0 116 11.6667 94 35 c 128
 72 58.3333 61 89.6667 61 129 c 0
 61 197 81.1667 243.333 121.5 268 c 128
 161.833 292.667 226 305 314 305 c 2xea
451 233 m 1
 314 233 l 2
 239.333 233 190.5 226.833 167.5 214.5 c 128
 144.5 202.167 133 172 133 124 c 0
 133 110 138 97.8333 148 87.5 c 128
 158 77.1667 168 72 178 72 c 2
 271 72 l 2
 309.667 72 342 77 368 87 c 128
 394 97 412.5 111 423.5 129 c 128
 434.5 147 441.833 163.667 445.5 179 c 128
 449.167 194.333 451 212.333 451 233 c 1
EndSplineSet
Fore
Refer: 305 772 N 1 0 0 1 570 21 2
Refer: 66 97 N 1 0 0 1 0 0 3
Validated: 1
EndChar

StartChar: Abreve
Encoding: 258 258 193
Width: 610
Flags: HW
HStem: 189 72<195 415> 616 20<256.087 353.913> 693 74<255.283 355.049>
VStem: 24 73<-12.9854 12> 175 73<774.478 819> 362 73<774.562 819> 513 73<-12.9854 12>
LayerCount: 2
Back
SplineSet
435 819 m 1
 435 775 420.833 743 392.5 723 c 128
 364.167 703 335 693 305 693 c 0
 291.667 693 278.167 695 264.5 699 c 128
 250.833 703 237 709.5 223 718.5 c 128
 209 727.5 197.5 740.667 188.5 758 c 128
 179.5 775.333 175 795.667 175 819 c 1
 248 819 l 1
 248 784.333 267 767 305 767 c 128
 343 767 362 784.333 362 819 c 1
 435 819 l 1
346 636 m 1
 583 37 l 2
 585 31 586 24.6667 586 18 c 0
 586 6 581.833 -2.66667 573.5 -8 c 128
 565.162 -13.3333 557.329 -16 550 -16 c 0
 532.666 -16 520.332 -6.66667 513 12 c 2
 444 189 l 1
 166 189 l 1
 97 12 l 1
 89 -6.66667 76.6667 -16 60 -16 c 0
 52.6666 -16 44.8333 -13.3333 36.5 -8 c 128
 28.1667 -2.66667 24 6 24 18 c 0
 24 24.6667 25 31 27 37 c 2
 264 636 l 1
 346 636 l 1
195 261 m 1
 415 261 l 1
 304 532 l 1
 195 261 l 1
EndSplineSet
Fore
Refer: 323 728 S 1 0 0 1 91 99 2
Refer: 34 65 N 1 0 0 1 0 0 3
Validated: 1
EndChar

StartChar: abreve
Encoding: 259 259 194
Width: 594
Flags: HW
HStem: 0 72<142.525 386.547> 233 72<163.724 451> 389 72<160.856 441.714> 522 74<242.283 342.049>
VStem: 61 72<81.3438 204.135 307.153 377.389> 162 73<603.478 648> 349 73<603.562 648> 451 72<-4.84668 50 137.186 233 305 380.23>
LayerCount: 2
Back
SplineSet
422 648 m 1
 422 604 407.833 572 379.5 552 c 128
 351.167 532 322 522 292 522 c 0
 278.667 522 265.167 524 251.5 528 c 128
 237.833 532 224 538.5 210 547.5 c 128
 196 556.5 184.5 569.667 175.5 587 c 128
 166.5 604.333 162 624.667 162 648 c 1
 235 648 l 1
 235 613.333 254 596 292 596 c 128
 330 596 349 613.333 349 648 c 1
 422 648 l 1
314 305 m 2
 451 305 l 1
 451 347 l 2
 451 363.667 448 374.833 442 380.5 c 128
 436 386.167 424 389 406 389 c 2
 265 389 l 2
 213 389 178 386.167 160 380.5 c 128
 142 374.832 133 364.665 133 350 c 0
 133 320 120.667 305 96 305 c 0
 72.6667 305 61 320 61 350 c 0
 61 392 77.8334 421 111.5 437 c 128
 145.167 453 194 461 258 461 c 2
 413 461 l 2
 455.667 461 484.667 451 500 431 c 128
 515.333 411 523 377.667 523 331 c 2
 523 35 l 2
 523 7 511 -7 487 -7 c 128
 463 -7 451 8 451 38 c 2
 451 50 l 1
 411 16.6667 351 1.90735e-06 271 0 c 2
 178 0 l 2
 144 0 116 11.6667 94 35 c 128
 72 58.3333 61 89.6667 61 129 c 0
 61 197 81.1667 243.333 121.5 268 c 128
 161.833 292.667 226 305 314 305 c 2
451 233 m 1
 314 233 l 2
 239.333 233 190.5 226.833 167.5 214.5 c 128
 144.5 202.167 133 172 133 124 c 0
 133 110 138 97.8333 148 87.5 c 128
 158 77.1667 168 72 178 72 c 2
 271 72 l 2
 309.667 72 342 77 368 87 c 128
 394 97 412.5 111 423.5 129 c 128
 434.5 147 441.833 163.667 445.5 179 c 128
 449.167 194.333 451 212.333 451 233 c 1
EndSplineSet
Fore
Refer: 323 728 S 1 0 0 1 78 -72 2
Refer: 66 97 N 1 0 0 1 0 0 3
Validated: 1
EndChar

StartChar: Aogonek
Encoding: 260 260 195
Width: 609
Flags: HW
HStem: -206 71<506.82 601.777> 189 72<195 415> 626 20G<260.085 349.915>
VStem: 24 73<-12.9854 12> 432 72<-133.319 -45.4082>
LayerCount: 2
Fore
SplineSet
195 261 m 1,0,-1
 415 261 l 1,1,-1
 304 532 l 1,2,-1
 195 261 l 1,0,-1
504 -91 m 0,3,4
 504 -135 504 -135 536 -135 c 0,5,6
 550 -135 550 -135 572.5 -126.5 c 128,-1,7
 595 -118 595 -118 602 -118 c 0,8,9
 627 -118 627 -118 627 -147 c 0,10,11
 627 -168 627 -168 610 -182 c 0,12,13
 583 -206 583 -206 539 -206 c 0,14,15
 538 -206 538 -206 537 -206 c 0,16,17
 492 -206 492 -206 462 -174 c 128,-1,18
 432 -142 432 -142 432 -94 c 128,-1,19
 432 -46 432 -46 505 33 c 1,20,-1
 444 189 l 1,21,-1
 166 189 l 1,22,-1
 97 12 l 1,23,24
 85 -16 85 -16 60 -16 c 0,25,26
 49 -16 49 -16 36.5 -8 c 128,-1,27
 24 0 24 0 24 14 c 128,-1,28
 24 28 24 28 27 37 c 2,29,-1
 268 646 l 1,30,-1
 342 646 l 1,31,-1
 583 37 l 2,32,33
 586 28 586 28 586 15 c 128,-1,34
 586 2 586 2 576 -6.5 c 128,-1,35
 566 -15 566 -15 554 -16 c 1,36,37
 522 -43 522 -43 508 -77 c 0,38,39
 504 -87 504 -87 504 -91 c 0,3,4
EndSplineSet
Validated: 1
EndChar

